<?xml version="1.0" encoding="UTF-8" standalone="no"?>
<!-- Created with Inkscape (http://www.inkscape.org/) -->
<svg xmlns:rdf="http://www.w3.org/1999/02/22-rdf-syntax-ns#" xmlns="http://www.w3.org/2000/svg" height="460.81" width="569.17" version="1.1" xmlns:cc="http://creativecommons.org/ns#" xmlns:xlink="http://www.w3.org/1999/xlink" xmlns:dc="http://purl.org/dc/elements/1.1/">
 <defs>
  <linearGradient id="linearGradient6130" y2="477.36" gradientUnits="userSpaceOnUse" x2="-100" y1="1031.1" x1="537.96">
   <stop stop-color="#0000ed" offset="0"/>
   <stop stop-color="#565fb3" offset="1"/>
  </linearGradient>
  <linearGradient id="linearGradient14022" x1="1026.7" gradientUnits="userSpaceOnUse" y1="1147.7" gradientTransform="matrix(0.995461,0,0,0.995461,3.833802,3.912899)" x2="1703.6" y2="1703.6">
   <stop stop-color="#dc0000" offset="0"/>
   <stop stop-color="#ff3d01" stop-opacity="0.58823532" offset="1"/>
  </linearGradient>
  <linearGradient id="linearGradient14010" x1="1531.2" gradientUnits="userSpaceOnUse" y1="-710.26" gradientTransform="matrix(0.995461,0,0,0.995461,3.833802,3.912899)" x2="514.25" y2="1775.3">
   <stop stop-color="#FFF" offset="0"/>
   <stop stop-color="#FFF" stop-opacity="0" offset="1"/>
  </linearGradient>
  <linearGradient id="linearGradient19843" x1="1678.6" gradientUnits="userSpaceOnUse" y1="288.91" x2="1678.6" y2="1417.6">
   <stop stop-color="#b40000" offset="0"/>
   <stop stop-color="#b40000" stop-opacity="0" offset="1"/>
  </linearGradient>
 </defs>
 <metadata>
  <rdf:RDF>
   <cc:Work rdf:about="">
    <dc:format>image/svg+xml</dc:format>
    <dc:type rdf:resource="http://purl.org/dc/dcmitype/StillImage"/>
    <dc:title/>
   </cc:Work>
  </rdf:RDF>
 </metadata>
 <g transform="translate(-10.949611,-583.43518)">
  <path opacity="0.5" fill="none" d="m129.53,661.29c-33.65-8.645-22.022-60.523,11.734-56.377,32.642-1.8909,41.936,48.212,9.438,56.091-6.7996,2.0312-14.356,2.5898-21.172,0.28558z"/>
  <path opacity="0.5" fill="none" d="m206.97,661.61c-26.172-5.6452-29.821-45.876-3.2604-54.143,24.823-12.781,57.602,18.36,38.982,42.512-7.6488,10.917-23.197,15.239-35.721,11.631z"/>
  <path opacity="0.5" fill="none" d="m283.41,661.72c-28.51-5.8467-28.568-49.645-0.16438-55.423,26.401-10.329,55.934,25.099,32.974,46.735-8.2611,8.6761-21.389,11.489-32.809,8.6874z"/>
  <path opacity="0.5" fill="none" d="m358.89,661.47c-27.417-6.3726-27.369-48.179-0.4368-54.841,23.305-9.7143,52.905,17.236,38.492,40.594-7.29,12.9-24.144,18.642-38.055,14.247z"/>
  <path opacity="0.5" fill="none" d="m435.61,661.56c-30.481-6.8884-26.77-53.368,3.7149-56.05,27.08-7.7962,51.706,29.85,28.171,48.962-8.4192,7.8951-20.978,9.8092-31.885,7.0876z"/>
  <path opacity="0.5" fill="none" d="m512.04,661.63c-37.033-8.8128-20.274-65.514,15.338-56.114,30.515,2.0465,34.577,48.499,4.9161,55.507-6.5162,2.0806-13.614,2.1269-20.254,0.60741z"/>
  <path opacity="0.5" fill="none" d="M57.777,732.38c-26.456-2.55-35.078-40.66-10.983-52.89,20.965-14.212,55.505,5.7632,47.408,31.783-4.1828,15.004-21.555,24.214-36.424,21.105z"/>
  <path opacity="0.5" fill="none" d="m132.93,732.09c-24.748-3.2423-33.495-40.126-10.483-52.048,21.342-15.518,57.324,5.8203,47.824,32.482-5.1084,14.856-22.367,23.094-37.341,19.565z"/>
  <path opacity="0.5" fill="none" d="m210.05,732.35c-25.389-2.7568-34.827-39.554-11.476-52.243,21.989-16.104,58.974,7.3031,47.177,34.182-5.4865,13.42-21.775,21.124-35.701,18.061z"/>
  <path opacity="0.5" fill="none" d="m285.73,732.06c-29.325-3.5978-32.442-48.164-3.6093-55.416,22.43-8.739,50.788,14.505,39.926,38.059-5.875,13.541-22.289,20.307-36.317,17.357z"/>
  <path opacity="0.5" fill="none" d="m362.83,732.39c-23.088-2.5932-34.745-34.905-15.14-49.591,19.676-19.271,59.715-0.45855,52.025,27.853-3.8284,15.524-21.778,24.623-36.885,21.737z"/>
  <path opacity="0.5" fill="none" d="m438.51,732.04c-30.895-3.6279-32.417-51.493-0.8317-56.137,28.398-9.201,54.701,30.734,28.272,49.85-7.5755,5.5038-18.143,9.1662-27.44,6.2866z"/>
  <path opacity="0.5" fill="none" d="m514.41,732.11c-24.472-3.3004-33.4-39.256-10.881-51.82,21.173-15.609,56.722,4.565,48.729,31.315-4.9158,15.377-22.435,24.118-37.848,20.505z"/>
  <path opacity="0.5" fill="none" d="m53.622,801.49c-25.803-6.2357-28.834-45.968-2.3236-53.942,27.386-14.044,60.178,24.156,35.362,46.31-8.5918,8.5969-21.646,10.101-33.039,7.6318z"/>
  <path opacity="0.5" fill="none" d="m130.03,801.54c-25.899-6.015-28.728-45.274-3.1328-53.751,26.447-14.277,60.426,22.005,37.058,45.004-8.3134,9.3938-22.222,11.514-33.925,8.7473z"/>
  <path opacity="0.5" fill="none" d="m204.83,800.92c-31.893-9.1916-20.946-58.48,11.276-55.846,33.33-3.5886,44.735,49.26,9.94,56.211-6.8656,2.0573-14.463,2.2486-21.216-0.36545z"/>
  <path opacity="0.5" fill="none" d="m282.33,801.49c-27.301-6.6863-27.463-49.889,1.2274-55.07,30.29-11.755,57.581,33.289,27.411,51.069-8.0484,5.7702-19.289,5.8769-28.639,4.0011z"/>
  <path opacity="0.5" fill="none" d="m356.95,800.65c-32.585-9.7326-19.069-59.843,13.204-55.641,31.988-2.0074,42.544,47.522,9.9454,56.004-7.4471,2.2618-15.826,2.4874-23.149-0.36292z"/>
  <path opacity="0.5" fill="none" d="m435.1,801.49c-34.453-8.5644-21.674-61.972,12.539-56.361,35.685-0.91556,38.257,55.398,2.7685,57.112-5.0951,0.44339-10.309,0.50972-15.308-0.75136z"/>
  <path opacity="0.5" fill="none" d="m509.43,800.52c-29.486-8.4924-21.554-54.374,7.9522-55.24,27.482-5.9866,49.568,32.128,25.411,50.18-9.0346,7.6571-22.456,9.1905-33.363,5.0607z"/>
  <path opacity="0.5" fill="none" d="M54.512,871.8c-28.915-6.05-28.877-49.42-0.202-55.34,26.561-10.883,55.405,25.454,32.955,46.693-7.8337,9.0622-21.538,11.61-32.752,8.646z"/>
  <path opacity="0.5" fill="none" d="m131.1,871.88c-26.195-4.7905-30.378-44.58-4.9511-53.72,27.892-16.504,62.824,24.394,35.87,46.515-8.2175,7.4922-20.281,9.7729-30.919,7.205z"/>
  <path opacity="0.5" fill="none" d="m207.29,871.8c-27.765-5.7382-29.745-48.405-1.161-55.27,22.756-8.8088,51.51,16.229,38.957,39.529-6.7405,13.541-23.553,19.844-37.796,15.741z"/>
  <path opacity="0.5" fill="none" d="m283.88,871.88c-33.656-6.3724-25.889-58.51,7.3969-56.782,31.697-4.4531,46.15,43.772,14.987,55.065-7.017,2.8828-15.011,3.5347-22.384,1.7166z"/>
  <path opacity="0.5" fill="none" d="m360.27,871.9c-32.456-6.2654-26.846-55.979,5.0763-56.426,26.718-5.9332,48.378,31.464,25.377,49.323-8.1641,7.0223-20.022,9.8721-30.453,7.1026z"/>
  <path opacity="0.5" fill="none" d="m435.61,871.69c-26.717-6.0095-29-46.593-2.3001-54.484,27.817-14.004,60.347,26.129,34.048,47.492-8.459,7.5434-20.897,10.368-31.748,6.9926z"/>
  <path opacity="0.5" fill="none" d="m511.47,871.41c-25.518-5.7198-28.606-44.455-3.5194-53.277,25.04-14.33,59.158,18.252,39.585,42.422-8.3494,10.414-23.347,15.028-36.065,10.855z"/>
  <path opacity="0.5" fill="none" d="M57.025,942.23c-25.537-2.97-33.981-40.04-10.634-52.38,22.289-15.351,58.937,8.2714,46.639,34.927-5.7884,13.089-22.224,21.141-36.005,17.452z"/>
  <path opacity="0.5" fill="none" d="m134.08,942.48c-35.67-3.637-30.727-58.709,4.3702-57.253,30.224-4.4456,47.41,41.915,16.459,54.014-6.3771,3.2471-13.755,4.6153-20.829,3.2395z"/>
  <path opacity="0.5" fill="none" d="m210.56,942.56c-24.48-2.4773-35.03-36.554-14.217-50.787,20.157-17.479,58.609,1.5128,50.75,29.049-4.362,15.168-21.239,24.655-36.532,21.739z"/>
  <path opacity="0.5" fill="none" d="m285.73,942.23c-29.307-3.6391-32.442-48.173-3.5791-55.411,27.473-11.807,57.585,26.141,33.194,47.287-7.718,6.8108-19.417,11.159-29.615,8.1237z"/>
  <path opacity="0.5" fill="none" d="m363.39,942.57c-29.714-2.5007-35.29-47.827-5.3238-55.75,25.296-10.578,55.142,20.52,37.094,43.558-7.3301,9.3852-20.07,14.111-31.77,12.193z"/>
  <path opacity="0.5" fill="none" d="m438.51,942.23c-30.904-3.5758-32.099-51.058-1.3669-56.192,28.584-9.6596,55.424,30.603,28.773,49.892-7.5583,5.5193-18.115,9.1808-27.406,6.2995z"/>
  <path opacity="0.5" fill="none" d="m516.16,942.57c-31.863-2.4551-33.985-51.233-2.7055-56.544,29.117-9.8554,55.899,32.436,27.778,50.607-7.1146,5.2346-16.364,7.4351-25.073,5.9369z"/>
  <path opacity="0.5" fill="none" d="m53.622,1011.6c-34.942-8.7134-21.357-61.743,12.759-56.412,24.97-0.23234,39.71,34.39,18.694,50.128-8.57,7.2615-20.757,9.1902-31.453,6.2838z"/>
  <path opacity="0.5" fill="none" d="m127.94,1010.7c-38.186-12.29-11.327-69.675,23.22-53.584,30.839,7.7217,23.389,53.964-6.3913,55.485-5.6402,0.6694-11.532,0.2684-16.829-1.9019z"/>
  <path opacity="0.5" fill="none" d="m206.21,1011.6c-31.078-7.4374-24.995-56.239,6.9629-56.173,27.884-5.6229,48.31,35.141,22.915,51.146-8.4968,6.0842-19.856,8.164-29.878,5.0273z"/>
  <path opacity="0.5" fill="none" d="m280.72,1010.7c-24.637-7.2444-25.771-44.358-1.4343-52.836,22.686-11.648,54.779,12.609,42.45,37.546-6.8566,14.827-26.227,21.299-41.016,15.29z"/>
  <path opacity="0.5" fill="none" d="m359.34,1011.7c-34.636-7.8761-22.859-61.028,11.123-56.525,32.448-1.9689,41.694,48.598,9.0743,56.01-6.5295,1.852-13.581,2.0139-20.197,0.5153z"/>
  <path opacity="0.5" fill="none" d="m436.65,1012.1c-38.646-8.261-20.961-67.33,15.563-56.2,35.285,4.2903,29.142,59.251-5.8406,56.737-3.2458,0.055-6.5167,0.081-9.7222-0.5375z"/>
  <path opacity="0.5" fill="none" d="m509.55,1010.8c-28.732-8.6319-22.495-52.562,6.4271-55.11,30.513-8.3812,52.933,37.625,22.386,52.993-8.5933,4.8844-19.588,5.5686-28.813,2.1179z"/>
  <text style="letter-spacing:0px;word-spacing:0px;" font-weight="normal" xml:space="preserve" font-size="40px" font-stretch="normal" line-height="125%" onclick=" leisureEvent(&apos;click0&apos;)" font-variant="normal" y="656.06586" x="41.666668" font-family="SF Sports Night" font-style="normal" fill="#000000"><tspan opacity="0.46017701" font-weight="normal" font-size="64px" font-style="normal" font-stretch="normal" font-variant="normal" y="656.06586" x="41.666668" font-family="SF Sports Night" fill="#999999">0</tspan></text>
  <text style="letter-spacing:0px;word-spacing:0px;" font-weight="normal" font-variant="normal" font-size="40px" font-stretch="normal" line-height="125%" onclick=" leisureEvent(&apos;click1&apos;)" font-style="normal" y="656.06586" x="131.65588" font-family="SF Sports Night" xml:space="preserve" fill="#000000"><tspan opacity="0.46017701" font-weight="normal" font-size="64px" font-style="normal" font-stretch="normal" font-variant="normal" y="656.06586" x="131.65588" font-family="SF Sports Night" fill="#999999">1</tspan></text>
  <text style="letter-spacing:0px;word-spacing:0px;" font-weight="normal" xml:space="preserve" font-size="40px" font-stretch="normal" line-height="125%" onclick=" leisureEvent(&apos;click2&apos;)" font-variant="normal" y="656.06586" x="196.15192" font-family="SF Sports Night" font-style="normal" fill="#000000"><tspan opacity="0.46017701" font-weight="normal" font-size="64px" font-style="normal" font-stretch="normal" font-variant="normal" y="656.06586" x="196.15192" font-family="SF Sports Night" fill="#999999">2</tspan></text>
  <text style="letter-spacing:0px;word-spacing:0px;" font-weight="normal" font-variant="normal" font-size="40px" font-stretch="normal" line-height="125%" onclick=" leisureEvent(&apos;click3&apos;)" font-style="normal" y="656.06586" x="272.98584" font-family="SF Sports Night" xml:space="preserve" fill="#000000"><tspan opacity="0.46017701" font-weight="normal" font-size="64px" font-style="normal" font-stretch="normal" font-variant="normal" y="656.06586" x="272.98584" font-family="SF Sports Night" fill="#999999">3</tspan></text>
  <text style="letter-spacing:0px;word-spacing:0px;" font-weight="normal" xml:space="preserve" font-size="40px" font-stretch="normal" line-height="125%" onclick=" leisureEvent(&apos;click4&apos;)" font-variant="normal" y="656.06586" x="347.5444" font-family="SF Sports Night" font-style="normal" fill="#000000"><tspan opacity="0.46017701" font-weight="normal" font-size="64px" font-style="normal" font-stretch="normal" font-variant="normal" y="656.06586" x="347.5444" font-family="SF Sports Night" fill="#999999">4</tspan></text>
  <text style="letter-spacing:0px;word-spacing:0px;" font-weight="normal" font-variant="normal" font-size="40px" font-stretch="normal" line-height="125%" onclick=" leisureEvent(&apos;click5&apos;)" font-style="normal" y="656.06586" x="425.83536" font-family="SF Sports Night" xml:space="preserve" fill="#000000"><tspan opacity="0.46017701" font-weight="normal" font-size="64px" font-style="normal" font-stretch="normal" font-variant="normal" y="656.06586" x="425.83536" font-family="SF Sports Night" fill="#999999">5</tspan></text>
  <text style="letter-spacing:0px;word-spacing:0px;" font-weight="normal" xml:space="preserve" font-size="40px" font-stretch="normal" line-height="125%" onclick=" leisureEvent(&apos;click6&apos;)" font-variant="normal" y="656.06586" x="501.8519" font-family="SF Sports Night" font-style="normal" fill="#000000"><tspan opacity="0.46017701" font-weight="normal" font-size="64px" font-style="normal" font-stretch="normal" font-variant="normal" y="656.06586" x="501.8519" font-family="SF Sports Night" fill="#999999">6</tspan></text>
  <flowRoot style="letter-spacing:0px;word-spacing:0px;" font-weight="normal" xml:space="preserve" font-size="40px" line-height="125%" font-style="normal" font-family="Sans" fill="#000000"><flowRegion><rect y="-213.52" width="681.48" x="-35.185" height="188.89"/></flowRegion><flowPara/></flowRoot>
  <path fill="#A00" d="m1033.7,1131.7c1.3097,26.722-32.708,44.815-54.136,28.792-22.673-13.761-18.989-51.634,5.8981-60.786,21.915-10.081,49.003,7.8712,48.238,31.994z"/>
  <path fill="#A00" d="m949.26,1131.7c1.3097,26.722-32.708,44.815-54.136,28.792-22.673-13.761-18.989-51.634,5.8981-60.786,21.915-10.081,49.004,7.8712,48.238,31.994z"/>
  <path fill="#A00" d="m864.81,1131.7c1.3097,26.722-32.708,44.815-54.136,28.792-22.673-13.761-18.989-51.634,5.8981-60.786,21.915-10.081,49.004,7.8712,48.238,31.994z"/>
  <path fill="#A00" d="m1033.7,1047.3c1.3097,26.722-32.708,44.815-54.136,28.792-22.673-13.761-18.989-51.634,5.8981-60.786,21.915-10.081,49.003,7.8712,48.238,31.994z"/>
  <path fill="#A00" d="m949.26,1047.3c1.3097,26.722-32.708,44.815-54.136,28.792-22.673-13.761-18.989-51.634,5.8981-60.786,21.915-10.081,49.004,7.8712,48.238,31.994z"/>
  <path fill="#A00" d="m864.81,1047.3c1.3097,26.722-32.708,44.815-54.136,28.792-22.673-13.761-18.989-51.634,5.8981-60.786,21.915-10.081,49.004,7.8712,48.238,31.994z"/>
  <path fill="#A00" d="m1033.7,962.83c1.3097,26.722-32.708,44.815-54.136,28.792-22.673-13.761-18.989-51.634,5.8981-60.786,21.915-10.081,49.003,7.8712,48.238,31.994z"/>
  <path fill="#A00" d="m949.26,962.83c1.3097,26.722-32.708,44.815-54.136,28.792-22.673-13.761-18.989-51.634,5.8981-60.786,21.915-10.081,49.004,7.8712,48.238,31.994z"/>
  <path fill="#A00" d="m864.81,962.83c1.3097,26.722-32.708,44.815-54.136,28.792-22.673-13.761-18.989-51.634,5.8981-60.786,21.915-10.081,49.004,7.8712,48.238,31.994z"/>
  <path fill="#A00" d="m1033.7,878.38c1.3097,26.722-32.708,44.815-54.136,28.792-22.673-13.761-18.989-51.634,5.8981-60.786,21.915-10.081,49.003,7.8712,48.238,31.994z"/>
  <path fill="#A00" d="m949.26,878.38c1.3097,26.722-32.708,44.815-54.136,28.792-22.673-13.761-18.989-51.634,5.8981-60.786,21.915-10.081,49.004,7.8712,48.238,31.994z"/>
  <path fill="#A00" d="m864.81,878.38c1.3097,26.722-32.708,44.815-54.136,28.792-22.673-13.761-18.989-51.634,5.8981-60.786,21.915-10.081,49.004,7.8712,48.238,31.994z"/>
  <path fill="#A00" d="m1033.7,793.94c1.3097,26.722-32.708,44.815-54.136,28.792-22.673-13.761-18.989-51.634,5.8981-60.786,21.915-10.081,49.003,7.8712,48.238,31.994z"/>
  <path fill="#A00" d="m949.26,793.94c1.3097,26.722-32.708,44.815-54.136,28.792-22.673-13.761-18.989-51.634,5.8981-60.786,21.915-10.081,49.004,7.8712,48.238,31.994z"/>
  <path fill="#A00" d="m864.81,793.94c1.3097,26.722-32.708,44.815-54.136,28.792-22.673-13.761-18.989-51.634,5.8981-60.786,21.915-10.081,49.004,7.8712,48.238,31.994z"/>
  <path fill="#A00" d="m1033.7,709.49c1.3097,26.722-32.708,44.815-54.136,28.792-22.673-13.761-18.989-51.634,5.8981-60.786,21.915-10.081,49.003,7.8712,48.238,31.994z"/>
  <path fill="#A00" d="m949.26,709.49c1.3097,26.722-32.708,44.815-54.136,28.792-22.673-13.761-18.989-51.634,5.8981-60.786,21.915-10.081,49.004,7.8712,48.238,31.994z"/>
  <path fill="#FFF" d="m675.6,742.23c1.3097,26.722-32.708,44.815-54.136,28.792-22.673-13.761-18.989-51.634,5.8981-60.786,21.915-10.081,49.004,7.8712,48.238,31.994z"/>
  <path fill="#A00" d="m1033.7,625.05c1.3097,26.722-32.708,44.815-54.136,28.792-22.673-13.761-18.989-51.634,5.8981-60.786,21.915-10.081,49.003,7.8712,48.238,31.994z"/>
  <path fill="#A00" d="m949.26,625.05c1.3097,26.722-32.708,44.815-54.136,28.792-22.673-13.761-18.989-51.634,5.8981-60.786,21.915-10.081,49.004,7.8712,48.238,31.994z"/>
  <path fill="#A00" d="m864.81,625.05c1.3097,26.722-32.708,44.815-54.136,28.792-22.673-13.761-18.989-51.634,5.8981-60.786,21.915-10.081,49.004,7.8712,48.238,31.994z"/>
  <path d="M136.11,95.278c0,19.172-15.54,34.722-34.72,34.722-19.178,0-34.723-15.55-34.723-34.722,0-19.177,15.546-34.722,34.722-34.722,19.177,0,34.722,15.546,34.722,34.722z" transform="translate(-208.88889,1036.4363)" fill="#000"/>
  <path d="M136.11,95.278c0,19.172-15.54,34.722-34.72,34.722-19.178,0-34.723-15.55-34.723-34.722,0-19.177,15.546-34.722,34.722-34.722,19.177,0,34.722,15.546,34.722,34.722z" transform="translate(-293.33334,1036.4363)" fill="#000"/>
  <path d="M136.11,95.278c0,19.172-15.54,34.722-34.72,34.722-19.178,0-34.723-15.55-34.723-34.722,0-19.177,15.546-34.722,34.722-34.722,19.177,0,34.722,15.546,34.722,34.722z" transform="translate(-377.77778,1036.4363)" fill="#000"/>
  <path d="M136.11,95.278c0,19.172-15.54,34.722-34.72,34.722-19.178,0-34.723-15.55-34.723-34.722,0-19.177,15.546-34.722,34.722-34.722,19.177,0,34.722,15.546,34.722,34.722z" transform="translate(-208.88889,951.99181)" fill="#000"/>
  <path d="M136.11,95.278c0,19.172-15.54,34.722-34.72,34.722-19.178,0-34.723-15.55-34.723-34.722,0-19.177,15.546-34.722,34.722-34.722,19.177,0,34.722,15.546,34.722,34.722z" transform="translate(-293.33334,951.99181)" fill="#000"/>
  <path d="M136.11,95.278c0,19.172-15.54,34.722-34.72,34.722-19.178,0-34.723-15.55-34.723-34.722,0-19.177,15.546-34.722,34.722-34.722,19.177,0,34.722,15.546,34.722,34.722z" transform="translate(-377.77778,951.99181)" fill="#000"/>
  <path d="M136.11,95.278c0,19.172-15.54,34.722-34.72,34.722-19.178,0-34.723-15.55-34.723-34.722,0-19.177,15.546-34.722,34.722-34.722,19.177,0,34.722,15.546,34.722,34.722z" transform="translate(-208.88889,867.54737)" fill="#000"/>
  <path d="M136.11,95.278c0,19.172-15.54,34.722-34.72,34.722-19.178,0-34.723-15.55-34.723-34.722,0-19.177,15.546-34.722,34.722-34.722,19.177,0,34.722,15.546,34.722,34.722z" transform="translate(-293.33334,867.54737)" fill="#000"/>
  <path d="M136.11,95.278c0,19.172-15.54,34.722-34.72,34.722-19.178,0-34.723-15.55-34.723-34.722,0-19.177,15.546-34.722,34.722-34.722,19.177,0,34.722,15.546,34.722,34.722z" transform="translate(-377.77778,867.54737)" fill="#000"/>
  <path d="M136.11,95.278c0,19.172-15.54,34.722-34.72,34.722-19.178,0-34.723-15.55-34.723-34.722,0-19.177,15.546-34.722,34.722-34.722,19.177,0,34.722,15.546,34.722,34.722z" transform="translate(-208.88889,783.10293)" fill="#000"/>
  <path d="M136.11,95.278c0,19.172-15.54,34.722-34.72,34.722-19.178,0-34.723-15.55-34.723-34.722,0-19.177,15.546-34.722,34.722-34.722,19.177,0,34.722,15.546,34.722,34.722z" transform="translate(-293.33334,783.10293)" fill="#000"/>
  <path d="M136.11,95.278c0,19.172-15.54,34.722-34.72,34.722-19.178,0-34.723-15.55-34.723-34.722,0-19.177,15.546-34.722,34.722-34.722,19.177,0,34.722,15.546,34.722,34.722z" transform="translate(-377.77778,783.10293)" fill="#000"/>
  <path d="M136.11,95.278c0,19.172-15.54,34.722-34.72,34.722-19.178,0-34.723-15.55-34.723-34.722,0-19.177,15.546-34.722,34.722-34.722,19.177,0,34.722,15.546,34.722,34.722z" transform="translate(-208.88889,698.65849)" fill="#000"/>
  <path d="M136.11,95.278c0,19.172-15.54,34.722-34.72,34.722-19.178,0-34.723-15.55-34.723-34.722,0-19.177,15.546-34.722,34.722-34.722,19.177,0,34.722,15.546,34.722,34.722z" transform="translate(-293.33334,698.65849)" fill="#000"/>
  <path d="M136.11,95.278c0,19.172-15.54,34.722-34.72,34.722-19.178,0-34.723-15.55-34.723-34.722,0-19.177,15.546-34.722,34.722-34.722,19.177,0,34.722,15.546,34.722,34.722z" transform="translate(-377.77778,698.65849)" fill="#000"/>
  <path d="M136.11,95.278c0,19.172-15.54,34.722-34.72,34.722-19.178,0-34.723-15.55-34.723-34.722,0-19.177,15.546-34.722,34.722-34.722,19.177,0,34.722,15.546,34.722,34.722z" transform="translate(-208.88889,614.21404)" fill="#000"/>
  <path d="M136.11,95.278c0,19.172-15.54,34.722-34.72,34.722-19.178,0-34.723-15.55-34.723-34.722,0-19.177,15.546-34.722,34.722-34.722,19.177,0,34.722,15.546,34.722,34.722z" transform="translate(-293.33334,614.21404)" fill="#000"/>
  <path d="M136.11,95.278c0,19.172-15.54,34.722-34.72,34.722-19.178,0-34.723-15.55-34.723-34.722,0-19.177,15.546-34.722,34.722-34.722,19.177,0,34.722,15.546,34.722,34.722z" transform="translate(-377.77778,614.21404)" fill="#000"/>
  <path d="M136.11,95.278c0,19.172-15.54,34.722-34.72,34.722-19.178,0-34.723-15.55-34.723-34.722,0-19.177,15.546-34.722,34.722-34.722,19.177,0,34.722,15.546,34.722,34.722z" transform="translate(-208.88889,529.7696)" fill="#000"/>
  <path d="M136.11,95.278c0,19.172-15.54,34.722-34.72,34.722-19.178,0-34.723-15.55-34.723-34.722,0-19.177,15.546-34.722,34.722-34.722,19.177,0,34.722,15.546,34.722,34.722z" transform="translate(-293.33334,529.7696)" fill="#000"/>
  <path d="M136.11,95.278c0,19.172-15.54,34.722-34.72,34.722-19.178,0-34.723-15.55-34.723-34.722,0-19.177,15.546-34.722,34.722-34.722,19.177,0,34.722,15.546,34.722,34.722z" transform="translate(-377.77778,529.7696)" fill="#000"/>
  <g transform="matrix(3.7146624,0,0,3.4847152,617.78577,948.08036)" stroke="#000" stroke-dasharray="none" onclick='leisureEvent(&quot;clickC&quot;)' stroke-miterlimit="4">
   <rect stroke-linejoin="round" fill-rule="nonzero" stroke-dashoffset="0" transform="matrix(-0.9023,-0.431108,-0.431108,0.9023,0,0)" height="3.7881" width="1.5152" y="-6.3802" x="-15.827" stroke-width="0.7" fill="#343434"/>
   <rect stroke-linejoin="round" fill-rule="nonzero" stroke-dashoffset="0" transform="matrix(0.9023,-0.431108,0.431108,0.9023,0,0)" height="3.7881" width="1.5152" y="2.1389" x="2.0035" stroke-width="0.7" fill="#343434"/>
   <rect stroke-linejoin="round" fill-rule="nonzero" stroke-dashoffset="0" height="15.998" width="15.746" y="2.7201" x="2.1024" stroke-width="1" fill="#8e8e8e"/>
   <path stroke-linejoin="round" d="m9.7859,6.647a2.6832,2.4938,0,1,1,-5.3664,0,2.6832,2.4938,0,1,1,5.3664,0z" fill-rule="nonzero" transform="translate(-0.505076,0.820749)" stroke-dashoffset="0" stroke-width="0.60000002" fill="#f98a75"/>
   <path stroke-linejoin="round" d="m9.7859,6.647a2.6832,2.4938,0,1,1,-5.3664,0,2.6832,2.4938,0,1,1,5.3664,0z" fill-rule="nonzero" transform="translate(6.439723,0.820749)" stroke-dashoffset="0" stroke-width="0.60000002" fill="#f98a75"/>
   <rect stroke-linejoin="round" fill-rule="nonzero" stroke-dashoffset="0" ry="0" height="4.6878" width="11.443" y="12.195" x="4.4431" stroke-width="0.777" fill="#EEE"/>
   <path stroke-linejoin="round" d="m7.1973,6.0157a0.53664,0.53664,0,1,1,-1.0733,0,0.53664,0.53664,0,1,1,1.0733,0z" fill-rule="nonzero" transform="translate(0,1.325825)" stroke-dashoffset="0" stroke-width="0.60000002" fill="#000"/>
   <path stroke-linejoin="round" d="m7.1973,6.0157a0.53664,0.53664,0,1,1,-1.0733,0,0.53664,0.53664,0,1,1,1.0733,0z" fill-rule="nonzero" transform="translate(7.071068,1.325825)" stroke-dashoffset="0" stroke-width="0.60000002" fill="#000"/>
   <path stroke-linejoin="miter" d="m4.4194,14.381,11.238,0" stroke-linecap="butt" stroke-width="0.77700001" fill="none"/>
   <path stroke-linejoin="miter" d="m10.985,12.171,0,4.4194" stroke-linecap="butt" stroke-width="0.77700001" fill="none"/>
   <path stroke-linejoin="miter" d="m8.7126,12.171,0,4.4194" stroke-linecap="butt" stroke-width="0.77700001" fill="none"/>
   <path stroke-linejoin="miter" d="m13.258,12.171,0,4.4194" stroke-linecap="butt" stroke-width="0.77700001" fill="none"/>
   <path stroke-linejoin="miter" d="m6.5029,12.171,0,4.4194" stroke-linecap="butt" stroke-width="0.77700001" fill="none"/>
  </g>
  <g onclick='leisureEvent(&quot;newGame&quot;)' transform="matrix(0.04716137,0,0,0.04716137,611.63262,602.43992)">
   <g transform="translate(-5.210447e-5,4.612732e-5)">
    <path stroke-linejoin="round" d="m1417.5,1699.8c155.84,0,282.18-126.33,282.18-282.18" stroke-opacity="0.66666667" stroke="#e83131" stroke-linecap="round" stroke-miterlimit="100" stroke-dasharray="none" stroke-width="10.2480011" fill="none"/>
    <path stroke-linejoin="round" d="m6.655,1417.6c0,155.84,126.34,282.18,282.18,282.18" stroke-opacity="0.66666667" stroke="#e83131" stroke-linecap="round" stroke-miterlimit="100" stroke-dasharray="none" stroke-width="10.2480011" fill="none"/>
    <line stroke-linejoin="round" y2="1699.8" fill="none" stroke-opacity="0.66667" x2="1417.5" stroke="#e83131" stroke-linecap="round" stroke-miterlimit="100" y1="1699.8" stroke-dasharray="none" x1="288.83" stroke-width="10.248"/>
    <line stroke-linejoin="round" y2="1417.6" fill="none" stroke-opacity="0.66667" x2="6.655" stroke="#e83131" stroke-linecap="round" stroke-miterlimit="100" y1="288.91" stroke-dasharray="none" x1="6.655" stroke-width="10.248"/>
    <path stroke-linejoin="round" d="M288.83,6.734c-155.84,0-282.18,126.34-282.18,282.18" stroke-opacity="0.66666667" stroke="#e83131" stroke-linecap="round" stroke-miterlimit="100" stroke-dasharray="none" stroke-width="10.2480011" fill="none"/>
    <line stroke-linejoin="round" y2="6.734" fill="none" stroke-opacity="0.66667" x2="288.83" stroke="#e83131" stroke-linecap="round" stroke-miterlimit="100" y1="6.734" stroke-dasharray="none" x1="1417.5" stroke-width="10.248"/>
    <line stroke-linejoin="round" y2="288.91" fill="none" stroke-opacity="0.66667" x2="1699.7" stroke="#e83131" stroke-linecap="round" stroke-miterlimit="100" y1="1417.6" stroke-dasharray="none" x1="1699.7" stroke-width="10.248"/>
    <path fill-rule="evenodd" fill="url(#linearGradient14022)" d="m1699.7,288.91c0-74.838-29.729-146.61-82.648-199.53-52.9-52.916-124.7-82.645-199.6-82.645h-1128.7c-74.81,0-146.58,29.729-199.5,82.648-52.918,52.917-82.648,124.69-82.648,199.53v1128.7c0,74.839,29.729,146.61,82.648,199.53,52.919,52.919,124.69,82.648,199.53,82.648h1128.7c74.839,0,146.61-29.729,199.53-82.648,52.919-52.918,82.648-124.69,82.648-199.53v-1128.7h0.0009z"/>
    <path fill-rule="evenodd" fill="url(#linearGradient14010)" d="m1699.7,288.91c0-155.84-126.34-282.18-282.18-282.18h-1128.7c-155.81,0.004-282.14,126.34-282.14,282.18v846.53c677.62,53.4,1329.1-272.39,1693-846.49z"/>
    <path d="m1417.5,1671.6c140.96-10.422,257.02-114.87,282.18-253.96,0,155.84-126.34,282.18-282.18,282.18h-1128.7c-155.84,0-282.18-126.33-282.18-282.18,25.161,139.09,141.22,243.54,282.18,253.96h1128.7z" fill-opacity="0.25842698" fill-rule="evenodd" fill="#FFF"/>
    <path stroke-linejoin="round" d="m1417.5,1699.8c155.84,0,282.18-126.33,282.18-282.18" stroke="#F55" stroke-linecap="round" stroke-miterlimit="100" stroke-dasharray="none" stroke-width="14.93190384" fill="none"/>
    <path stroke-linejoin="round" d="m6.655,1417.6c0,155.84,126.34,282.18,282.18,282.18" stroke="#F55" stroke-linecap="round" stroke-miterlimit="100" stroke-dasharray="none" stroke-width="14.93190384" fill="none"/>
    <line stroke-linejoin="round" x1="288.83" fill="none" y1="1699.8" stroke="#F55" stroke-linecap="round" stroke-miterlimit="100" x2="1417.5" stroke-dasharray="none" y2="1699.8" stroke-width="14.932"/>
    <line stroke-linejoin="round" x1="6.655" fill="none" y1="288.91" stroke="#F55" stroke-linecap="round" stroke-miterlimit="100" x2="6.655" stroke-dasharray="none" y2="1417.6" stroke-width="14.932"/>
    <path stroke-linejoin="round" d="M288.83,6.734c-155.84,0-282.18,126.34-282.18,282.18" stroke="#F55" stroke-linecap="round" stroke-miterlimit="100" stroke-dasharray="none" stroke-width="14.93190384" fill="none"/>
    <line stroke-linejoin="round" x1="1417.5" fill="none" y1="6.734" stroke="#F55" stroke-linecap="round" stroke-miterlimit="100" x2="288.83" stroke-dasharray="none" y2="6.734" stroke-width="14.932"/>
    <path stroke-linejoin="round" d="m1699.7,288.91c0-155.84-126.34-282.18-282.18-282.18" stroke="#F55" stroke-linecap="round" stroke-miterlimit="100" stroke-dasharray="none" stroke-width="14.93190384" fill="none"/>
    <line stroke-linejoin="round" x1="1699.7" fill="none" y1="1417.6" stroke="#F55" stroke-linecap="round" stroke-miterlimit="100" x2="1699.7" stroke-dasharray="none" y2="288.91" stroke-width="14.932"/>
    <path d="m1417.5,1671.6c140.96-10.422,257.02-114.87,282.18-253.96,0,155.84-126.34,282.18-282.18,282.18h-1128.7c-155.84,0-282.18-126.33-282.18-282.18,25.161,139.09,141.22,243.54,282.18,253.96h1128.7z" fill-opacity="0.58823529" fill-rule="evenodd" fill="#FFF"/>
    <path stroke-linejoin="round" d="m1699.7,288.91c0-155.84-126.34-282.18-282.18-282.18" stroke-opacity="0.66666667" stroke="#e83131" stroke-linecap="round" stroke-miterlimit="100" stroke-dasharray="none" stroke-width="10.2480011" fill="none"/>
    <path d="m6.655,1417.6c23.376,0,42.327-252.67,42.327-564.36,0-311.68-18.951-564.36-42.327-564.36v1128.7z" fill-opacity="0.58823529" fill-rule="evenodd" fill="#b40000"/>
    <path fill-rule="evenodd" fill="url(#linearGradient19843)" d="m1699.7,1417.6c-23.376,0-42.328-252.67-42.328-564.36,0-311.68,18.951-564.36,42.328-564.36v1128.7z"/>
    <path d="M1699.7,288.91c-47-120.23-154.5-206.27-282.2-225.74h-1128.7c-127.58,19.472-235.13,105.51-282.14,225.74,0-155.84,126.34-282.18,282.18-282.18h1128.7c155.84-0.00099,282.18,126.33,282.18,282.18z" fill-opacity="0.54901961" fill-rule="evenodd" fill="#FFF"/>
   </g>
   <g fill-rule="evenodd" transform="translate(-5.210447e-5,4.612732e-5)">
    <path fill="#FFF" d="m660.74,528.92c-224.4,106.29-320.14,374.36-213.86,598.76,106.29,224.4,374.36,320.14,598.76,213.86,224.4-106.29,320.14-374.36,213.86-598.76-44.449-93.844-120.01-169.41-213.86-213.86-43.022-20.378-61.38-71.773-41.002-114.8,20.378-43.023,71.774-61.38,114.8-41.002,310.44,147.04,442.9,517.91,295.86,828.35-147,310.4-517.91,442.9-828.36,295.8-310.44-147-442.9-517.88-295.86-828.32,61.5-129.83,166.04-234.37,295.86-295.86,43.023-20.378,94.418-2.0212,114.8,41.002,20.378,43.023,2.02,94.418-41.002,114.8z"/>
    <path fill="#FFF" d="m766.99,666.51c0,47.605,38.591,86.195,86.196,86.195s86.196-38.591,86.196-86.195v-430.98c0-47.605-38.592-86.196-86.196-86.196-47.605,0-86.196,38.591-86.196,86.196v430.98z"/>
    <path d="m1171.1,1253.1c-175.57,175.57-460.23,175.57-635.8,0,82.141,88.298,197.3,138.45,317.9,138.45s235.76-50.156,317.9-138.45zm-584.16-879.98c-64.43,30.52-123.14,71.89-173.55,122.31,54.455-44.98,113.61-83.938,176.45-116.2,25.506-9.7687,54.083-7.2955,77.531,6.7088s39.176,37.992,42.669,65.08c0-29.547-15.134-57.036-40.102-72.836-24.969-15.8-56.289-17.711-82.992-5.062zm409.4,77.898c3.4927-27.088,19.219-51.076,42.668-65.08s52.025-16.478,77.531-6.7088c62.834,32.257,121.99,71.215,176.45,116.2-50.413-50.414-109.12-91.785-173.55-122.3-26.704-12.649-58.024-10.737-82.992,5.0632-24.967,15.8-40.102,43.288-40.102,72.835zm-229.35-215.49c3.5977-44.937,41.115-79.571,86.196-79.571s82.599,34.633,86.196,79.571c0-47.605-38.592-86.196-86.196-86.196-47.606,0-86.196,38.591-86.196,86.196z" fill-opacity="0.62745098" fill="#000"/>
   </g>
  </g>
  <path fill="url(#linearGradient6130)" d="m37.454,583.78c-22.473-1.0634-28.362,22.206-26.03,39.972v396.26c0.28596,22.362,24.774,25.459,42.115,23.887h500.1c22.471,1.0616,28.33-22.216,26.005-39.972v-396.26c-0.27342-22.361-24.754-25.46-42.091-23.887h-500.1z"/>
  <path opacity="0.5" d="M57.777,663.72c-26.456-2.6-35.078-41.46-10.983-53.93,20.964-14.49,55.506,5.88,47.407,32.41-4.183,15.3-21.554,24.69-36.424,21.52z" fill="none"/>
 </g>
</svg>
