<?xml version="1.0" encoding="UTF-8" standalone="no"?>
<!-- Created with Inkscape (http://www.inkscape.org/) -->

<svg
   xmlns:dc="http://purl.org/dc/elements/1.1/"
   xmlns:cc="http://creativecommons.org/ns#"
   xmlns:rdf="http://www.w3.org/1999/02/22-rdf-syntax-ns#"
   xmlns:svg="http://www.w3.org/2000/svg"
   xmlns="http://www.w3.org/2000/svg"
   xmlns:xlink="http://www.w3.org/1999/xlink"
   xmlns:sodipodi="http://sodipodi.sourceforge.net/DTD/sodipodi-0.dtd"
   xmlns:inkscape="http://www.inkscape.org/namespaces/inkscape"
   height="80.552"
   width="80.552"
   version="1.1"
   id="svg5884"
   inkscape:version="0.48.4 r9939"
   sodipodi:docname="powerSwitch.svg">
  <sodipodi:namedview
     pagecolor="#ffffff"
     bordercolor="#666666"
     borderopacity="1"
     objecttolerance="10"
     gridtolerance="10"
     guidetolerance="10"
     inkscape:pageopacity="0"
     inkscape:pageshadow="2"
     inkscape:window-width="1590"
     inkscape:window-height="792"
     id="namedview6204"
     showgrid="false"
     inkscape:zoom="2.9297844"
     inkscape:cx="40.276001"
     inkscape:cy="40.276001"
     inkscape:window-x="0"
     inkscape:window-y="0"
     inkscape:window-maximized="0"
     inkscape:current-layer="svg5884" />
  <defs
     id="defs5886">
    <linearGradient
       id="linearGradient6130"
       y2="477.36"
       gradientUnits="userSpaceOnUse"
       x2="-100"
       y1="1031.1"
       x1="537.96">
      <stop
         stop-color="#0000ed"
         offset="0"
         id="stop5889" />
      <stop
         stop-color="#565fb3"
         offset="1"
         id="stop5891" />
    </linearGradient>
    <linearGradient
       id="linearGradient14022"
       x1="1026.7"
       gradientUnits="userSpaceOnUse"
       y1="1147.7"
       gradientTransform="matrix(0.995461,0,0,0.995461,3.833802,3.912899)"
       x2="1703.6"
       y2="1703.6">
      <stop
         stop-color="#dc0000"
         offset="0"
         id="stop5894" />
      <stop
         stop-color="#ff3d01"
         stop-opacity="0.58823532"
         offset="1"
         id="stop5896" />
    </linearGradient>
    <linearGradient
       id="linearGradient14010"
       x1="1531.2"
       gradientUnits="userSpaceOnUse"
       y1="-710.26"
       gradientTransform="matrix(0.995461,0,0,0.995461,3.833802,3.912899)"
       x2="514.25"
       y2="1775.3">
      <stop
         stop-color="#FFF"
         offset="0"
         id="stop5899" />
      <stop
         stop-color="#FFF"
         stop-opacity="0"
         offset="1"
         id="stop5901" />
    </linearGradient>
    <linearGradient
       id="linearGradient19843"
       x1="1678.6"
       gradientUnits="userSpaceOnUse"
       y1="288.91"
       x2="1678.6"
       y2="1417.6">
      <stop
         stop-color="#b40000"
         offset="0"
         id="stop5904" />
      <stop
         stop-color="#b40000"
         stop-opacity="0"
         offset="1"
         id="stop5906" />
    </linearGradient>
    <linearGradient
       inkscape:collect="always"
       xlink:href="#linearGradient6130"
       id="linearGradient6208"
       gradientUnits="userSpaceOnUse"
       x1="537.96"
       y1="1031.1"
       x2="-100"
       y2="477.36"
       gradientTransform="translate(-611.59427,-602.40538)" />
  </defs>
  <metadata
     id="metadata5908">
    <rdf:RDF>
      <cc:Work
         rdf:about="">
        <dc:format>image/svg+xml</dc:format>
        <dc:type
           rdf:resource="http://purl.org/dc/dcmitype/StillImage" />
        <dc:title />
      </cc:Work>
    </rdf:RDF>
  </metadata>
  <g
     id="g6142"
     transform="matrix(0.04716137,0,0,0.04716137,0.03835,0.03454)"
     onclick="leisureEvent(&quot;newGame&quot;)">
    <g
       id="g6144"
       transform="translate(-5.210447e-5,4.612732e-5)">
      <path
         style="fill:none;stroke:#e83131;stroke-width:10.2480011;stroke-linecap:round;stroke-linejoin:round;stroke-miterlimit:100;stroke-opacity:0.66666667;stroke-dasharray:none"
         inkscape:connector-curvature="0"
         id="path6146"
         stroke-miterlimit="100"
         d="m 1417.5,1699.8 c 155.84,0 282.18,-126.33 282.18,-282.18" />
      <path
         style="fill:none;stroke:#e83131;stroke-width:10.2480011;stroke-linecap:round;stroke-linejoin:round;stroke-miterlimit:100;stroke-opacity:0.66666667;stroke-dasharray:none"
         inkscape:connector-curvature="0"
         id="path6148"
         stroke-miterlimit="100"
         d="m 6.655,1417.6 c 0,155.84 126.34,282.18 282.18,282.18" />
      <line
         style="fill:none;stroke:#e83131;stroke-width:10.24800014;stroke-linecap:round;stroke-linejoin:round;stroke-miterlimit:100;stroke-opacity:0.66667002;stroke-dasharray:none"
         id="line6150"
         x1="288.82999"
         y1="1699.8"
         stroke-miterlimit="100"
         x2="1417.5"
         y2="1699.8" />
      <line
         style="fill:none;stroke:#e83131;stroke-width:10.24800014;stroke-linecap:round;stroke-linejoin:round;stroke-miterlimit:100;stroke-opacity:0.66667002;stroke-dasharray:none"
         id="line6152"
         x1="6.6550002"
         y1="288.91"
         stroke-miterlimit="100"
         x2="6.6550002"
         y2="1417.6" />
      <path
         style="fill:none;stroke:#e83131;stroke-width:10.2480011;stroke-linecap:round;stroke-linejoin:round;stroke-miterlimit:100;stroke-opacity:0.66666667;stroke-dasharray:none"
         inkscape:connector-curvature="0"
         id="path6154"
         stroke-miterlimit="100"
         d="M 288.83,6.734 C 132.99,6.734 6.65,133.074 6.65,288.914" />
      <line
         style="fill:none;stroke:#e83131;stroke-width:10.24800014;stroke-linecap:round;stroke-linejoin:round;stroke-miterlimit:100;stroke-opacity:0.66667002;stroke-dasharray:none"
         id="line6156"
         x1="1417.5"
         y1="6.7340002"
         stroke-miterlimit="100"
         x2="288.82999"
         y2="6.7340002" />
      <line
         style="fill:none;stroke:#e83131;stroke-width:10.24800014;stroke-linecap:round;stroke-linejoin:round;stroke-miterlimit:100;stroke-opacity:0.66667002;stroke-dasharray:none"
         id="line6158"
         x1="1699.7"
         y1="1417.6"
         stroke-miterlimit="100"
         x2="1699.7"
         y2="288.91" />
      <path
         inkscape:connector-curvature="0"
         style="fill:url(#linearGradient14022);fill-rule:evenodd"
         id="path6160"
         d="m 1699.7,288.91 c 0,-74.838 -29.729,-146.61 -82.648,-199.53 -52.9,-52.916 -124.7,-82.645 -199.6,-82.645 h -1128.7 c -74.81,0 -146.58,29.729 -199.5,82.648 C 36.334,142.3 6.604,214.073 6.604,288.913 v 1128.7 c 0,74.839 29.729,146.61 82.648,199.53 52.919,52.919 124.69,82.648 199.53,82.648 h 1128.7 c 74.839,0 146.61,-29.729 199.53,-82.648 52.919,-52.918 82.648,-124.69 82.648,-199.53 v -1128.7 h 9e-4 z" />
      <path
         inkscape:connector-curvature="0"
         style="fill:url(#linearGradient14010);fill-rule:evenodd"
         id="path6162"
         d="M 1699.7,288.91 C 1699.7,133.07 1573.36,6.73 1417.52,6.73 H 288.82 C 133.01,6.734 6.68,133.07 6.68,288.91 v 846.53 c 677.62,53.4 1329.1,-272.39 1693,-846.49 z" />
      <path
         style="fill:#ffffff;fill-opacity:0.25842698;fill-rule:evenodd"
         inkscape:connector-curvature="0"
         id="path6164"
         d="m 1417.5,1671.6 c 140.96,-10.422 257.02,-114.87 282.18,-253.96 0,155.84 -126.34,282.18 -282.18,282.18 H 288.8 c -155.84,0 -282.18,-126.33 -282.18,-282.18 25.161,139.09 141.22,243.54 282.18,253.96 h 1128.7 z" />
      <path
         style="fill:none;stroke:#ff5555;stroke-width:14.93190384;stroke-linecap:round;stroke-linejoin:round;stroke-miterlimit:100;stroke-dasharray:none"
         inkscape:connector-curvature="0"
         id="path6166"
         stroke-miterlimit="100"
         d="m 1417.5,1699.8 c 155.84,0 282.18,-126.33 282.18,-282.18" />
      <path
         style="fill:none;stroke:#ff5555;stroke-width:14.93190384;stroke-linecap:round;stroke-linejoin:round;stroke-miterlimit:100;stroke-dasharray:none"
         inkscape:connector-curvature="0"
         id="path6168"
         stroke-miterlimit="100"
         d="m 6.655,1417.6 c 0,155.84 126.34,282.18 282.18,282.18" />
      <line
         style="fill:none;stroke:#ff5555;stroke-width:14.93200016;stroke-linecap:round;stroke-linejoin:round;stroke-miterlimit:100;stroke-dasharray:none"
         id="line6170"
         y2="1699.8"
         x2="1417.5"
         stroke-miterlimit="100"
         y1="1699.8"
         x1="288.82999" />
      <line
         style="fill:none;stroke:#ff5555;stroke-width:14.93200016;stroke-linecap:round;stroke-linejoin:round;stroke-miterlimit:100;stroke-dasharray:none"
         id="line6172"
         y2="1417.6"
         x2="6.6550002"
         stroke-miterlimit="100"
         y1="288.91"
         x1="6.6550002" />
      <path
         style="fill:none;stroke:#ff5555;stroke-width:14.93190384;stroke-linecap:round;stroke-linejoin:round;stroke-miterlimit:100;stroke-dasharray:none"
         inkscape:connector-curvature="0"
         id="path6174"
         stroke-miterlimit="100"
         d="M 288.83,6.734 C 132.99,6.734 6.65,133.074 6.65,288.914" />
      <line
         style="fill:none;stroke:#ff5555;stroke-width:14.93200016;stroke-linecap:round;stroke-linejoin:round;stroke-miterlimit:100;stroke-dasharray:none"
         id="line6176"
         y2="6.7340002"
         x2="288.82999"
         stroke-miterlimit="100"
         y1="6.7340002"
         x1="1417.5" />
      <path
         style="fill:none;stroke:#ff5555;stroke-width:14.93190384;stroke-linecap:round;stroke-linejoin:round;stroke-miterlimit:100;stroke-dasharray:none"
         inkscape:connector-curvature="0"
         id="path6178"
         stroke-miterlimit="100"
         d="M 1699.7,288.91 C 1699.7,133.07 1573.36,6.73 1417.52,6.73" />
      <line
         style="fill:none;stroke:#ff5555;stroke-width:14.93200016;stroke-linecap:round;stroke-linejoin:round;stroke-miterlimit:100;stroke-dasharray:none"
         id="line6180"
         y2="288.91"
         x2="1699.7"
         stroke-miterlimit="100"
         y1="1417.6"
         x1="1699.7" />
      <path
         style="fill:#ffffff;fill-opacity:0.58823529;fill-rule:evenodd"
         inkscape:connector-curvature="0"
         id="path6182"
         d="m 1417.5,1671.6 c 140.96,-10.422 257.02,-114.87 282.18,-253.96 0,155.84 -126.34,282.18 -282.18,282.18 H 288.8 c -155.84,0 -282.18,-126.33 -282.18,-282.18 25.161,139.09 141.22,243.54 282.18,253.96 h 1128.7 z" />
      <path
         style="fill:none;stroke:#e83131;stroke-width:10.2480011;stroke-linecap:round;stroke-linejoin:round;stroke-miterlimit:100;stroke-opacity:0.66666667;stroke-dasharray:none"
         inkscape:connector-curvature="0"
         id="path6184"
         stroke-miterlimit="100"
         d="M 1699.7,288.91 C 1699.7,133.07 1573.36,6.73 1417.52,6.73" />
      <path
         style="fill:#b40000;fill-opacity:0.58823529;fill-rule:evenodd"
         inkscape:connector-curvature="0"
         id="path6186"
         d="m 6.655,1417.6 c 23.376,0 42.327,-252.67 42.327,-564.36 0,-311.68 -18.951,-564.36 -42.327,-564.36 v 1128.7 z" />
      <path
         inkscape:connector-curvature="0"
         style="fill:url(#linearGradient19843);fill-rule:evenodd"
         id="path6188"
         d="m 1699.7,1417.6 c -23.376,0 -42.328,-252.67 -42.328,-564.36 0,-311.68 18.951,-564.36 42.328,-564.36 v 1128.7 z" />
      <path
         style="fill:#ffffff;fill-opacity:0.54901961;fill-rule:evenodd"
         inkscape:connector-curvature="0"
         id="path6190"
         d="M 1699.7,288.91 C 1652.7,168.68 1545.2,82.64 1417.5,63.17 H 288.8 C 161.22,82.642 53.67,168.68 6.66,288.91 6.66,133.07 133,6.73 288.84,6.73 h 1128.7 c 155.84,-9.9e-4 282.18,126.33 282.18,282.18 z" />
    </g>
    <g
       style="fill-rule:evenodd"
       id="g6192"
       transform="translate(-5.210447e-5,4.612732e-5)">
      <path
         style="fill:#ffffff"
         inkscape:connector-curvature="0"
         id="path6194"
         d="m 660.74,528.92 c -224.4,106.29 -320.14,374.36 -213.86,598.76 106.29,224.4 374.36,320.14 598.76,213.86 224.4,-106.29 320.14,-374.36 213.86,-598.76 -44.449,-93.844 -120.01,-169.41 -213.86,-213.86 -43.022,-20.378 -61.38,-71.773 -41.002,-114.8 20.378,-43.023 71.774,-61.38 114.8,-41.002 310.44,147.04 442.9,517.91 295.86,828.35 -147,310.4 -517.91,442.9 -828.36,295.8 -310.44,-147 -442.9,-517.88 -295.86,-828.32 61.5,-129.83 166.04,-234.37 295.86,-295.86 43.023,-20.378 94.418,-2.0212 114.8,41.002 20.378,43.023 2.02,94.418 -41.002,114.8 z" />
      <path
         style="fill:#ffffff"
         inkscape:connector-curvature="0"
         id="path6196"
         d="m 766.99,666.51 c 0,47.605 38.591,86.195 86.196,86.195 47.605,0 86.196,-38.591 86.196,-86.195 V 235.53 c 0,-47.605 -38.592,-86.196 -86.196,-86.196 -47.605,0 -86.196,38.591 -86.196,86.196 v 430.98 z" />
      <path
         style="fill:#000000;fill-opacity:0.62745098"
         inkscape:connector-curvature="0"
         id="path6198"
         d="m 1171.1,1253.1 c -175.57,175.57 -460.23,175.57 -635.8,0 82.141,88.298 197.3,138.45 317.9,138.45 120.6,0 235.76,-50.156 317.9,-138.45 z M 586.94,373.12 C 522.51,403.64 463.8,445.01 413.39,495.43 467.845,450.45 527,411.492 589.84,379.23 c 25.506,-9.7687 54.083,-7.2955 77.531,6.7088 23.448,14.0043 39.176,37.992 42.669,65.08 0,-29.547 -15.134,-57.036 -40.102,-72.836 -24.969,-15.8 -56.289,-17.711 -82.992,-5.062 z m 409.4,77.898 c 3.4927,-27.088 19.219,-51.076 42.668,-65.08 23.449,-14.004 52.025,-16.478 77.531,-6.7088 62.834,32.257 121.99,71.215 176.45,116.2 -50.413,-50.414 -109.12,-91.785 -173.55,-122.3 -26.704,-12.649 -58.024,-10.737 -82.992,5.0632 -24.967,15.8 -40.102,43.288 -40.102,72.835 z M 766.99,235.528 c 3.5977,-44.937 41.115,-79.571 86.196,-79.571 45.081,0 82.599,34.633 86.196,79.571 0,-47.605 -38.592,-86.196 -86.196,-86.196 -47.606,0 -86.196,38.591 -86.196,86.196 z" />
    </g>
  </g>
</svg>
