<?xml version="1.0" standalone="yes"?>

<svg version="1.1" viewBox="0.0 0.0 708.6482939632546 471.8923884514436" fill="none" stroke="none" stroke-linecap="square" stroke-miterlimit="10" xmlns="http://www.w3.org/2000/svg" xmlns:xlink="http://www.w3.org/1999/xlink"><clipPath id="p.0"><path d="m0 0l708.6483 0l0 471.8924l-708.6483 0l0 -471.8924z" clip-rule="nonzero"></path></clipPath><g clip-path="url(#p.0)"><path fill="#000000" fill-opacity="0.0" d="m0 0l708.6483 0l0 471.8924l-708.6483 0z" fill-rule="nonzero"></path><path fill="#cfe2f3" d="m152.37796 202.50919l0 0c0 -13.654907 11.069489 -24.724411 24.724396 -24.724411l0 0c6.5573273 0 12.846085 2.604889 17.482803 7.2416077c4.636734 4.636734 7.2416077 10.925476 7.2416077 17.482803l0 0c0 13.654907 -11.069489 24.724411 -24.724411 24.724411l0 0c-13.654907 0 -24.724396 -11.069504 -24.724396 -24.724411z" fill-rule="nonzero"></path><path stroke="#000000" stroke-width="1.0" stroke-linejoin="round" stroke-linecap="butt" d="m152.37796 202.50919l0 0c0 -13.654907 11.069489 -24.724411 24.724396 -24.724411l0 0c6.5573273 0 12.846085 2.604889 17.482803 7.2416077c4.636734 4.636734 7.2416077 10.925476 7.2416077 17.482803l0 0c0 13.654907 -11.069489 24.724411 -24.724411 24.724411l0 0c-13.654907 0 -24.724396 -11.069504 -24.724396 -24.724411z" fill-rule="nonzero"></path><path fill="#000000" d="m172.2712 209.42918l0 -13.59375l5.109375 0q1.546875 0 2.484375 0.40625q0.953125 0.40625 1.484375 1.265625q0.53125 0.859375 0.53125 1.796875q0 0.875 -0.46875 1.65625q-0.46875 0.765625 -1.4375 1.234375q1.234375 0.359375 1.890625 1.234375q0.671875 0.875 0.671875 2.0625q0 0.953125 -0.40625 1.78125q-0.390625 0.8125 -0.984375 1.265625q-0.59375 0.4375 -1.5 0.671875q-0.890625 0.21875 -2.1875 0.21875l-5.1875 0zm1.796875 -7.890625l2.9375 0q1.203125 0 1.71875 -0.15625q0.6875 -0.203125 1.03125 -0.671875q0.359375 -0.46875 0.359375 -1.1875q0 -0.671875 -0.328125 -1.1875q-0.328125 -0.515625 -0.9375 -0.703125q-0.59375 -0.203125 -2.0625 -0.203125l-2.71875 0l0 4.109375zm0 6.28125l3.390625 0q0.875 0 1.21875 -0.0625q0.625 -0.109375 1.046875 -0.359375q0.421875 -0.265625 0.6875 -0.765625q0.265625 -0.5 0.265625 -1.140625q0 -0.765625 -0.390625 -1.328125q-0.390625 -0.5625 -1.078125 -0.78125q-0.6875 -0.234375 -1.984375 -0.234375l-3.15625 0l0 4.671875z" fill-rule="nonzero"></path><path fill="#cfe2f3" d="m70.64829 191.15749l0 0c0 -13.6549225 11.069496 -24.724411 24.724411 -24.724411l0 0c6.5573196 0 12.846069 2.604889 17.482796 7.2416077c4.6367264 4.6367188 7.2416153 10.925476 7.2416153 17.482803l0 0c0 13.654907 -11.069496 24.724411 -24.724411 24.724411l0 0c-13.654915 0 -24.724411 -11.069504 -24.724411 -24.724411z" fill-rule="nonzero"></path><path stroke="#000000" stroke-width="1.0" stroke-linejoin="round" stroke-linecap="butt" d="m70.64829 191.15749l0 0c0 -13.6549225 11.069496 -24.724411 24.724411 -24.724411l0 0c6.5573196 0 12.846069 2.604889 17.482796 7.2416077c4.6367264 4.6367188 7.2416153 10.925476 7.2416153 17.482803l0 0c0 13.654907 -11.069496 24.724411 -24.724411 24.724411l0 0c-13.654915 0 -24.724411 -11.069504 -24.724411 -24.724411z" fill-rule="nonzero"></path><path fill="#000000" d="m89.11967 198.07748l5.234375 -13.59375l1.9375 0l5.5625 13.59375l-2.046875 0l-1.59375 -4.125l-5.6875 0l-1.484375 4.125l-1.921875 0zm3.921875 -5.578125l4.609375 0l-1.40625 -3.78125q-0.65625 -1.703125 -0.96875 -2.8125q-0.265625 1.3125 -0.734375 2.59375l-1.5 4.0z" fill-rule="nonzero"></path><path fill="#cfe2f3" d="m281.2861 6.8005247l154.86612 0l0 94.23622l-154.86612 0z" fill-rule="nonzero"></path><path stroke="#000000" stroke-width="1.0" stroke-linejoin="round" stroke-linecap="butt" d="m281.2861 6.8005247l154.86612 0l0 94.23622l-154.86612 0z" fill-rule="nonzero"></path><path fill="#000000" d="m357.35675 33.720524l-4.875 -13.59375l2.984375 0l3.4375 10.0625l3.328125 -10.0625l2.921875 0l-4.875 13.59375l-2.921875 0z" fill-rule="nonzero"></path><path fill="#000000" fill-opacity="0.0" d="m312.9185 57.233738l-200.06299 116.44095" fill-rule="nonzero"></path><path stroke="#000000" stroke-width="3.0" stroke-linejoin="round" stroke-linecap="butt" d="m312.9185 57.233738l-184.5061 107.386505" fill-rule="evenodd"></path><path fill="#000000" stroke="#000000" stroke-width="3.0" stroke-linecap="butt" d="m125.91981 160.3376l-9.273865 11.130966l14.259041 -2.565689z" fill-rule="evenodd"></path><path fill="#000000" fill-opacity="0.0" d="m315.3386 58.06824l-138.23624 119.71654" fill-rule="nonzero"></path><path stroke="#000000" stroke-width="3.0" stroke-linejoin="round" stroke-linecap="butt" d="m315.3386 58.06824l-124.62955 107.932755" fill-rule="evenodd"></path><path fill="#000000" stroke="#000000" stroke-width="3.0" stroke-linecap="butt" d="m187.46512 162.25522l-7.0474854 12.658432l13.53537 -5.1669006z" fill-rule="evenodd"></path><path fill="#cfe2f3" d="m281.2861 166.80052l154.86612 0l0 94.23622l-154.86612 0z" fill-rule="nonzero"></path><path stroke="#000000" stroke-width="1.0" stroke-linejoin="round" stroke-linecap="butt" d="m281.2861 166.80052l154.86612 0l0 94.23622l-154.86612 0z" fill-rule="nonzero"></path><path fill="#000000" d="m357.35675 193.72052l-4.875 -13.59375l2.984375 0l3.4375 10.0625l3.328125 -10.0625l2.921875 0l-4.875 13.59375l-2.921875 0z" fill-rule="nonzero"></path><path fill="#000000" fill-opacity="0.0" d="m358.71915 101.03674l0 65.76378" fill-rule="nonzero"></path><path stroke="#000000" stroke-width="3.0" stroke-linejoin="round" stroke-linecap="butt" d="m358.71915 101.03674l0 47.76378" fill-rule="evenodd"></path><path fill="#000000" stroke="#000000" stroke-width="3.0" stroke-linecap="butt" d="m353.76398 148.80052l4.9551697 13.614304l4.9552 -13.614304z" fill-rule="evenodd"></path><path fill="#000000" fill-opacity="0.0" d="m318.60825 225.0768l-200.37796 128.53545" fill-rule="nonzero"></path><path stroke="#000000" stroke-width="3.0" stroke-linejoin="round" stroke-linecap="butt" d="m318.60825 225.0768l-185.22716 118.81673" fill-rule="evenodd"></path><path fill="#000000" stroke="#000000" stroke-width="3.0" stroke-linecap="butt" d="m130.70564 339.7227l-8.783852 11.521606l14.134758 -3.1799011z" fill-rule="evenodd"></path><path fill="#000000" fill-opacity="0.0" d="m318.582 223.47049l-71.18111 130.14175" fill-rule="nonzero"></path><path stroke="#000000" stroke-width="3.0" stroke-linejoin="round" stroke-linecap="butt" d="m318.582 223.47049l-62.54355 114.34958" fill-rule="evenodd"></path><path fill="#000000" stroke="#000000" stroke-width="3.0" stroke-linecap="butt" d="m251.69102 335.44226l-2.1855927 14.322205l10.880402 -9.566589z" fill-rule="evenodd"></path><path fill="#cfe2f3" d="m88.37795 439.15747l0 0c0 -13.654907 11.069496 -24.724396 24.724411 -24.724396l0 0c6.5573196 0 12.846069 2.604889 17.482796 7.2416077c4.636734 4.6367188 7.2416077 10.925476 7.2416077 17.482788l0 0c0 13.654938 -11.069489 24.724426 -24.724403 24.724426l0 0c-13.654915 0 -24.724411 -11.069489 -24.724411 -24.724426z" fill-rule="nonzero"></path><path stroke="#000000" stroke-width="1.0" stroke-linejoin="round" stroke-linecap="butt" d="m88.37795 439.15747l0 0c0 -13.654907 11.069496 -24.724396 24.724411 -24.724396l0 0c6.5573196 0 12.846069 2.604889 17.482796 7.2416077c4.636734 4.6367188 7.2416077 10.925476 7.2416077 17.482788l0 0c0 13.654938 -11.069489 24.724426 -24.724403 24.724426l0 0c-13.654915 0 -24.724411 -11.069489 -24.724411 -24.724426z" fill-rule="nonzero"></path><path fill="#000000" d="m107.83464 446.07748l0 -13.59375l4.6875 0q1.578125 0 2.421875 0.1875q1.15625 0.265625 1.984375 0.96875q1.078125 0.921875 1.609375 2.34375q0.53125 1.40625 0.53125 3.21875q0 1.546875 -0.359375 2.75q-0.359375 1.1875 -0.921875 1.984375q-0.5625 0.78125 -1.234375 1.234375q-0.671875 0.4375 -1.625 0.671875q-0.953125 0.234375 -2.1875 0.234375l-4.90625 0zm1.796875 -1.609375l2.90625 0q1.34375 0 2.109375 -0.25q0.765625 -0.25 1.21875 -0.703125q0.640625 -0.640625 1.0 -1.71875q0.359375 -1.078125 0.359375 -2.625q0 -2.125 -0.703125 -3.265625q-0.703125 -1.15625 -1.703125 -1.546875q-0.71875 -0.28125 -2.328125 -0.28125l-2.859375 0l0 10.390625z" fill-rule="nonzero"></path><path fill="#cfe2f3" d="m6.648294 439.15747l0 0c0 -13.654907 11.069494 -24.724396 24.72441 -24.724396l0 0c6.5573196 0 12.846069 2.604889 17.482796 7.2416077c4.6367264 4.6367188 7.2416153 10.925476 7.2416153 17.482788l0 0c0 13.654938 -11.069496 24.724426 -24.724411 24.724426l0 0c-13.654915 0 -24.72441 -11.069489 -24.72441 -24.724426z" fill-rule="nonzero"></path><path stroke="#000000" stroke-width="1.0" stroke-linejoin="round" stroke-linecap="butt" d="m6.648294 439.15747l0 0c0 -13.654907 11.069494 -24.724396 24.72441 -24.724396l0 0c6.5573196 0 12.846069 2.604889 17.482796 7.2416077c4.6367264 4.6367188 7.2416153 10.925476 7.2416153 17.482788l0 0c0 13.654938 -11.069496 24.724426 -24.724411 24.724426l0 0c-13.654915 0 -24.72441 -11.069489 -24.72441 -24.724426z" fill-rule="nonzero"></path><path fill="#000000" d="m35.808105 441.31186l1.796875 0.453125q-0.5625 2.21875 -2.03125 3.390625q-1.46875 1.15625 -3.59375 1.15625q-2.203125 0 -3.578125 -0.890625q-1.375 -0.90625 -2.09375 -2.59375q-0.71875 -1.703125 -0.71875 -3.65625q0 -2.125 0.796875 -3.703125q0.8125 -1.578125 2.3125 -2.390625q1.5 -0.828125 3.296875 -0.828125q2.046875 0 3.4375 1.046875q1.390625 1.03125 1.9375 2.90625l-1.765625 0.421875q-0.46875 -1.484375 -1.375 -2.15625q-0.90625 -0.6875 -2.265625 -0.6875q-1.5625 0 -2.625 0.75q-1.046875 0.75 -1.484375 2.03125q-0.421875 1.265625 -0.421875 2.609375q0 1.734375 0.5 3.03125q0.515625 1.28125 1.578125 1.921875q1.078125 0.640625 2.3125 0.640625q1.515625 0 2.5625 -0.859375q1.046875 -0.875 1.421875 -2.59375z" fill-rule="nonzero"></path><path fill="#cfe2f3" d="m240.37796 439.15747l0 0c0 -13.654907 11.069489 -24.724396 24.724396 -24.724396l0 0c6.5573425 0 12.846069 2.604889 17.482819 7.2416077c4.6367188 4.6367188 7.2416077 10.925476 7.2416077 17.482788l0 0c0 13.654938 -11.069519 24.724426 -24.724426 24.724426l0 0c-13.654907 0 -24.724396 -11.069489 -24.724396 -24.724426z" fill-rule="nonzero"></path><path stroke="#000000" stroke-width="1.0" stroke-linejoin="round" stroke-linecap="butt" d="m240.37796 439.15747l0 0c0 -13.654907 11.069489 -24.724396 24.724396 -24.724396l0 0c6.5573425 0 12.846069 2.604889 17.482819 7.2416077c4.6367188 4.6367188 7.2416077 10.925476 7.2416077 17.482788l0 0c0 13.654938 -11.069519 24.724426 -24.724426 24.724426l0 0c-13.654907 0 -24.724396 -11.069489 -24.724396 -24.724426z" fill-rule="nonzero"></path><path fill="#000000" d="m260.96686 446.07748l0 -13.59375l9.171875 0l0 1.59375l-7.375 0l0 4.21875l6.375 0l0 1.609375l-6.375 0l0 6.171875l-1.796875 0z" fill-rule="nonzero"></path><path fill="#cfe2f3" d="m158.6483 439.15747l0 0c0 -13.654907 11.069489 -24.724396 24.724396 -24.724396l0 0c6.5573273 0 12.846085 2.604889 17.482803 7.2416077c4.636734 4.6367188 7.2416077 10.925476 7.2416077 17.482788l0 0c0 13.654938 -11.069489 24.724426 -24.724411 24.724426l0 0c-13.654907 0 -24.724396 -11.069489 -24.724396 -24.724426z" fill-rule="nonzero"></path><path stroke="#000000" stroke-width="1.0" stroke-linejoin="round" stroke-linecap="butt" d="m158.6483 439.15747l0 0c0 -13.654907 11.069489 -24.724396 24.724396 -24.724396l0 0c6.5573273 0 12.846085 2.604889 17.482803 7.2416077c4.636734 4.6367188 7.2416077 10.925476 7.2416077 17.482788l0 0c0 13.654938 -11.069489 24.724426 -24.724411 24.724426l0 0c-13.654907 0 -24.724396 -11.069489 -24.724396 -24.724426z" fill-rule="nonzero"></path><path fill="#000000" d="m178.65091 446.07748l0 -13.59375l9.84375 0l0 1.59375l-8.046875 0l0 4.171875l7.53125 0l0 1.59375l-7.53125 0l0 4.625l8.359375 0l0 1.609375l-10.15625 0z" fill-rule="nonzero"></path><path fill="#000000" fill-opacity="0.0" d="m104.54054 370.2101l-55.685043 51.46457" fill-rule="nonzero"></path><path stroke="#000000" stroke-width="3.0" stroke-linejoin="round" stroke-linecap="butt" d="m104.54054 370.21008l-42.466038 39.247467" fill-rule="evenodd"></path><path fill="#000000" stroke="#000000" stroke-width="3.0" stroke-linecap="butt" d="m58.711273 405.8185l-6.6349564 12.879456l13.36142 -5.6013794z" fill-rule="evenodd"></path><path fill="#000000" fill-opacity="0.0" d="m106.99213 370.2126l6.110237 44.22049" fill-rule="nonzero"></path><path stroke="#000000" stroke-width="3.0" stroke-linejoin="round" stroke-linecap="butt" d="m106.99213 370.2126l3.646469 26.389893" fill-rule="evenodd"></path><path fill="#000000" stroke="#000000" stroke-width="3.0" stroke-linecap="butt" d="m105.730034 397.28073l6.772026 12.807922l3.0450897 -14.164429z" fill-rule="evenodd"></path><path fill="#000000" fill-opacity="0.0" d="m229.41995 369.3937l-46.047256 45.039368" fill-rule="nonzero"></path><path stroke="#000000" stroke-width="3.0" stroke-linejoin="round" stroke-linecap="butt" d="m229.41995 369.3937l-33.179276 32.453033" fill-rule="evenodd"></path><path fill="#000000" stroke="#000000" stroke-width="3.0" stroke-linecap="butt" d="m192.7758 398.30435l-6.267807 13.062073l13.19754 -5.9772644z" fill-rule="evenodd"></path><path fill="#000000" fill-opacity="0.0" d="m231.02113 370.99753l16.598434 50.677155" fill-rule="nonzero"></path><path stroke="#000000" stroke-width="3.0" stroke-linejoin="round" stroke-linecap="butt" d="m231.02113 370.9975l10.995728 33.57132" fill-rule="evenodd"></path><path fill="#000000" stroke="#000000" stroke-width="3.0" stroke-linecap="butt" d="m237.3078 406.1112l8.946655 11.39563l0.47143555 -14.480377z" fill-rule="evenodd"></path><path fill="#ffffff" d="m78.926506 369.8924l0 0c0 -12.715607 10.308029 -23.02362 23.023628 -23.02362l0 0c6.1062393 0 11.962387 2.4256897 16.280159 6.743469c4.3177643 4.317749 6.7434616 10.173889 6.7434616 16.280151l0 0c0 12.715576 -10.308029 23.02362 -23.02362 23.02362l0 0c-12.715599 0 -23.023628 -10.308044 -23.023628 -23.02362z" fill-rule="nonzero"></path><path stroke="#000000" stroke-width="1.0" stroke-linejoin="round" stroke-linecap="butt" d="m78.926506 369.8924l0 0c0 -12.715607 10.308029 -23.02362 23.023628 -23.02362l0 0c6.1062393 0 11.962387 2.4256897 16.280159 6.743469c4.3177643 4.317749 6.7434616 10.173889 6.7434616 16.280151l0 0c0 12.715576 -10.308029 23.02362 -23.02362 23.02362l0 0c-12.715599 0 -23.023628 -10.308044 -23.023628 -23.02362z" fill-rule="nonzero"></path><path fill="#000000" d="m100.58772 376.81238l-4.875 -13.59375l2.984375 0l3.4375 10.0625l3.328125 -10.0625l2.921875 0l-4.875 13.59375l-2.921875 0z" fill-rule="nonzero"></path><path fill="#ffffff" d="m208.0971 369.8924l0 0c0 -12.715607 10.308029 -23.02362 23.02362 -23.02362l0 0c6.106247 0 11.962402 2.4256897 16.280167 6.743469c4.3177643 4.317749 6.743469 10.173889 6.743469 16.280151l0 0c0 12.715576 -10.308029 23.02362 -23.023636 23.02362l0 0c-12.715591 0 -23.02362 -10.308044 -23.02362 -23.02362z" fill-rule="nonzero"></path><path stroke="#000000" stroke-width="1.0" stroke-linejoin="round" stroke-linecap="butt" d="m208.0971 369.8924l0 0c0 -12.715607 10.308029 -23.02362 23.02362 -23.02362l0 0c6.106247 0 11.962402 2.4256897 16.280167 6.743469c4.3177643 4.317749 6.743469 10.173889 6.743469 16.280151l0 0c0 12.715576 -10.308029 23.02362 -23.023636 23.02362l0 0c-12.715591 0 -23.02362 -10.308044 -23.02362 -23.02362z" fill-rule="nonzero"></path><path fill="#000000" d="m229.75832 376.81238l-4.875 -13.59375l2.984375 0l3.4375 10.0625l3.328125 -10.0625l2.921875 0l-4.875 13.59375l-2.921875 0z" fill-rule="nonzero"></path><path fill="#ffffff" d="m295.6273 224.32545l0 0c0 -12.715591 10.308044 -23.02362 23.02362 -23.02362l0 0c6.106262 0 11.962402 2.425705 16.280182 6.743469c4.317749 4.3177643 6.7434387 10.173904 6.7434387 16.280151l0 0c0 12.715607 -10.308014 23.02362 -23.02362 23.02362l0 0c-12.715576 0 -23.02362 -10.308014 -23.02362 -23.02362z" fill-rule="nonzero"></path><path stroke="#000000" stroke-width="1.0" stroke-linejoin="round" stroke-linecap="butt" d="m295.6273 224.32545l0 0c0 -12.715591 10.308044 -23.02362 23.02362 -23.02362l0 0c6.106262 0 11.962402 2.425705 16.280182 6.743469c4.317749 4.3177643 6.7434387 10.173904 6.7434387 16.280151l0 0c0 12.715607 -10.308014 23.02362 -23.02362 23.02362l0 0c-12.715576 0 -23.02362 -10.308014 -23.02362 -23.02362z" fill-rule="nonzero"></path><path fill="#000000" d="m317.2885 231.24545l-4.875 -13.59375l2.984375 0l3.4375 10.0625l3.328125 -10.0625l2.921875 0l-4.875 13.59375l-2.921875 0z" fill-rule="nonzero"></path><path fill="#ffffff" d="m289.82678 59.51181l0 0c0 -12.715595 10.308014 -23.02362 23.02362 -23.02362l0 0c6.1062317 0 11.962372 2.4256935 16.280151 6.7434616c4.3177795 4.317768 6.743469 10.173916 6.743469 16.280159l0 0c0 12.715599 -10.308044 23.02362 -23.02362 23.02362l0 0c-12.715607 0 -23.02362 -10.308022 -23.02362 -23.02362z" fill-rule="nonzero"></path><path stroke="#000000" stroke-width="1.0" stroke-linejoin="round" stroke-linecap="butt" d="m289.82678 59.51181l0 0c0 -12.715595 10.308014 -23.02362 23.02362 -23.02362l0 0c6.1062317 0 11.962372 2.4256935 16.280151 6.7434616c4.3177795 4.317768 6.743469 10.173916 6.743469 16.280159l0 0c0 12.715599 -10.308044 23.02362 -23.02362 23.02362l0 0c-12.715607 0 -23.02362 -10.308022 -23.02362 -23.02362z" fill-rule="nonzero"></path><path fill="#000000" d="m311.48798 66.43181l-4.875 -13.59375l2.984375 0l3.4375 10.0625l3.328125 -10.0625l2.921875 0l-4.875 13.59375l-2.921875 0z" fill-rule="nonzero"></path><path fill="#000000" fill-opacity="0.0" d="m411.02167 229.95868l60.37796 123.653564" fill-rule="nonzero"></path><path stroke="#000000" stroke-width="3.0" stroke-linejoin="round" stroke-linecap="butt" d="m411.0217 229.95868l52.480072 107.47879" fill-rule="evenodd"></path><path fill="#000000" stroke="#000000" stroke-width="3.0" stroke-linecap="butt" d="m459.04904 339.61166l10.4263 10.059601l-1.5208435 -14.4079895z" fill-rule="evenodd"></path><path fill="#000000" fill-opacity="0.0" d="m412.63324 230.7461l187.93701 122.86615" fill-rule="nonzero"></path><path stroke="#000000" stroke-width="3.0" stroke-linejoin="round" stroke-linecap="butt" d="m412.63324 230.74608l172.87097 113.016556" fill-rule="evenodd"></path><path fill="#000000" stroke="#000000" stroke-width="3.0" stroke-linecap="butt" d="m582.7927 347.91016l14.106689 3.3022156l-8.683716 -11.597229z" fill-rule="evenodd"></path><path fill="#cfe2f3" d="m498.1076 439.15747l0 0c0 -13.654907 11.069489 -24.724396 24.724426 -24.724396l0 0c6.557312 0 12.846069 2.604889 17.482788 7.2416077c4.6367188 4.6367188 7.241638 10.925476 7.241638 17.482788l0 0c0 13.654938 -11.069519 24.724426 -24.724426 24.724426l0 0c-13.654938 0 -24.724426 -11.069489 -24.724426 -24.724426z" fill-rule="nonzero"></path><path stroke="#000000" stroke-width="1.0" stroke-linejoin="round" stroke-linecap="butt" d="m498.1076 439.15747l0 0c0 -13.654907 11.069489 -24.724396 24.724426 -24.724396l0 0c6.557312 0 12.846069 2.604889 17.482788 7.2416077c4.6367188 4.6367188 7.241638 10.925476 7.241638 17.482788l0 0c0 13.654938 -11.069519 24.724426 -24.724426 24.724426l0 0c-13.654938 0 -24.724426 -11.069489 -24.724426 -24.724426z" fill-rule="nonzero"></path><path fill="#000000" d="m517.61115 446.07748l0 -13.59375l1.8125 0l0 5.578125l7.0625 0l0 -5.578125l1.796875 0l0 13.59375l-1.796875 0l0 -6.40625l-7.0625 0l0 6.40625l-1.8125 0z" fill-rule="nonzero"></path><path fill="#cfe2f3" d="m416.37796 439.15747l0 0c0 -13.654907 11.069489 -24.724396 24.724396 -24.724396l0 0c6.5573425 0 12.846069 2.604889 17.482819 7.2416077c4.6367188 4.6367188 7.2416077 10.925476 7.2416077 17.482788l0 0c0 13.654938 -11.069519 24.724426 -24.724426 24.724426l0 0c-13.654907 0 -24.724396 -11.069489 -24.724396 -24.724426z" fill-rule="nonzero"></path><path stroke="#000000" stroke-width="1.0" stroke-linejoin="round" stroke-linecap="butt" d="m416.37796 439.15747l0 0c0 -13.654907 11.069489 -24.724396 24.724396 -24.724396l0 0c6.5573425 0 12.846069 2.604889 17.482819 7.2416077c4.6367188 4.6367188 7.2416077 10.925476 7.2416077 17.482788l0 0c0 13.654938 -11.069519 24.724426 -24.724426 24.724426l0 0c-13.654907 0 -24.724396 -11.069489 -24.724396 -24.724426z" fill-rule="nonzero"></path><path fill="#000000" d="m441.67477 440.74936l0 -1.609375l5.765625 0l0 5.046875q-1.328125 1.0625 -2.75 1.59375q-1.40625 0.53125 -2.890625 0.53125q-2.0 0 -3.640625 -0.859375q-1.625 -0.859375 -2.46875 -2.484375q-0.828125 -1.625 -0.828125 -3.625q0 -1.984375 0.828125 -3.703125q0.828125 -1.71875 2.390625 -2.546875q1.5625 -0.84375 3.59375 -0.84375q1.46875 0 2.65625 0.484375q1.203125 0.46875 1.875 1.328125q0.671875 0.84375 1.03125 2.21875l-1.625 0.4375q-0.3125 -1.03125 -0.765625 -1.625q-0.453125 -0.59375 -1.296875 -0.953125q-0.84375 -0.359375 -1.875 -0.359375q-1.234375 0 -2.140625 0.375q-0.890625 0.375 -1.453125 1.0q-0.546875 0.609375 -0.84375 1.34375q-0.53125 1.25 -0.53125 2.734375q0 1.8125 0.625 3.046875q0.640625 1.21875 1.828125 1.8125q1.203125 0.59375 2.546875 0.59375q1.171875 0 2.28125 -0.453125q1.109375 -0.453125 1.6875 -0.953125l0 -2.53125l-4.0 0z" fill-rule="nonzero"></path><path fill="#cfe2f3" d="m650.1076 439.15747l0 0c0 -13.654907 11.069519 -24.724396 24.724426 -24.724396l0 0c6.557312 0 12.846069 2.604889 17.482788 7.2416077c4.6367188 4.6367188 7.241638 10.925476 7.241638 17.482788l0 0c0 13.654938 -11.069519 24.724426 -24.724426 24.724426l0 0c-13.654907 0 -24.724426 -11.069489 -24.724426 -24.724426z" fill-rule="nonzero"></path><path stroke="#000000" stroke-width="1.0" stroke-linejoin="round" stroke-linecap="butt" d="m650.1076 439.15747l0 0c0 -13.654907 11.069519 -24.724396 24.724426 -24.724396l0 0c6.557312 0 12.846069 2.604889 17.482788 7.2416077c4.6367188 4.6367188 7.241638 10.925476 7.241638 17.482788l0 0c0 13.654938 -11.069519 24.724426 -24.724426 24.724426l0 0c-13.654907 0 -24.724426 -11.069489 -24.724426 -24.724426z" fill-rule="nonzero"></path><path fill="#000000" d="m670.71484 442.2181l1.625 -0.21875q0.0625 1.546875 0.578125 2.125q0.53125 0.578125 1.4375 0.578125q0.6875 0 1.171875 -0.3125q0.5 -0.3125 0.671875 -0.84375q0.1875 -0.53125 0.1875 -1.703125l0 -9.359375l1.8125 0l0 9.265625q0 1.703125 -0.421875 2.640625q-0.40625 0.9375 -1.3125 1.4375q-0.890625 0.484375 -2.09375 0.484375q-1.796875 0 -2.75 -1.03125q-0.9375 -1.03125 -0.90625 -3.0625z" fill-rule="nonzero"></path><path fill="#cfe2f3" d="m568.3779 439.15747l0 0c0 -13.654907 11.069519 -24.724396 24.724426 -24.724396l0 0c6.557312 0 12.846069 2.604889 17.482788 7.2416077c4.6367188 4.6367188 7.241638 10.925476 7.241638 17.482788l0 0c0 13.654938 -11.069519 24.724426 -24.724426 24.724426l0 0c-13.654907 0 -24.724426 -11.069489 -24.724426 -24.724426z" fill-rule="nonzero"></path><path stroke="#000000" stroke-width="1.0" stroke-linejoin="round" stroke-linecap="butt" d="m568.3779 439.15747l0 0c0 -13.654907 11.069519 -24.724396 24.724426 -24.724396l0 0c6.557312 0 12.846069 2.604889 17.482788 7.2416077c4.6367188 4.6367188 7.241638 10.925476 7.241638 17.482788l0 0c0 13.654938 -11.069519 24.724426 -24.724426 24.724426l0 0c-13.654907 0 -24.724426 -11.069489 -24.724426 -24.724426z" fill-rule="nonzero"></path><path fill="#000000" d="m592.2763 446.07748l0 -13.59375l1.8125 0l0 13.59375l-1.8125 0z" fill-rule="nonzero"></path><path fill="#000000" fill-opacity="0.0" d="m488.85287 371.8479l-30.2677 49.826782" fill-rule="nonzero"></path><path stroke="#000000" stroke-width="3.0" stroke-linejoin="round" stroke-linecap="butt" d="m488.8529 371.8479l-20.922577 34.44275" fill-rule="evenodd"></path><path fill="#000000" stroke="#000000" stroke-width="3.0" stroke-linecap="butt" d="m463.69528 403.71802l-2.8331604 14.208313l11.303253 -9.06308z" fill-rule="evenodd"></path><path fill="#000000" fill-opacity="0.0" d="m490.48557 376.70078l32.346466 37.7323" fill-rule="nonzero"></path><path stroke="#000000" stroke-width="3.0" stroke-linejoin="round" stroke-linecap="butt" d="m490.48557 376.70078l20.631287 24.066498" fill-rule="evenodd"></path><path fill="#000000" stroke="#000000" stroke-width="3.0" stroke-linecap="butt" d="m507.3548 403.9923l12.622803 7.111084l-5.098694 -13.561188z" fill-rule="evenodd"></path><path fill="#000000" fill-opacity="0.0" d="m616.9764 375.09448l-23.874023 39.338593" fill-rule="nonzero"></path><path stroke="#000000" stroke-width="3.0" stroke-linejoin="round" stroke-linecap="butt" d="m616.9764 375.09448l-14.535339 23.950684" fill-rule="evenodd"></path><path fill="#000000" stroke="#000000" stroke-width="3.0" stroke-linecap="butt" d="m598.20496 396.4743l-2.8272095 14.209503l11.299438 -9.06781z" fill-rule="evenodd"></path><path fill="#000000" fill-opacity="0.0" d="m620.2154 372.6353l37.13385 49.039368" fill-rule="nonzero"></path><path stroke="#000000" stroke-width="3.0" stroke-linejoin="round" stroke-linecap="butt" d="m620.21533 372.63528l26.26764 34.6893" fill-rule="evenodd"></path><path fill="#000000" stroke="#000000" stroke-width="3.0" stroke-linecap="butt" d="m642.53253 410.31595l12.169128 7.8623047l-4.2683105 -13.845032z" fill-rule="evenodd"></path><path fill="#ffffff" d="m464.65616 369.8924l0 0c0 -12.715607 10.308044 -23.02362 23.02362 -23.02362l0 0c6.106262 0 11.962402 2.4256897 16.280182 6.743469c4.317749 4.317749 6.7434387 10.173889 6.7434387 16.280151l0 0c0 12.715576 -10.308014 23.02362 -23.02362 23.02362l0 0c-12.715576 0 -23.02362 -10.308044 -23.02362 -23.02362z" fill-rule="nonzero"></path><path stroke="#000000" stroke-width="1.0" stroke-linejoin="round" stroke-linecap="butt" d="m464.65616 369.8924l0 0c0 -12.715607 10.308044 -23.02362 23.02362 -23.02362l0 0c6.106262 0 11.962402 2.4256897 16.280182 6.743469c4.317749 4.317749 6.7434387 10.173889 6.7434387 16.280151l0 0c0 12.715576 -10.308014 23.02362 -23.02362 23.02362l0 0c-12.715576 0 -23.02362 -10.308044 -23.02362 -23.02362z" fill-rule="nonzero"></path><path fill="#000000" d="m486.31738 376.81238l-4.875 -13.59375l2.984375 0l3.4375 10.0625l3.328125 -10.0625l2.921875 0l-4.875 13.59375l-2.921875 0z" fill-rule="nonzero"></path><path fill="#ffffff" d="m593.8268 369.8924l0 0c0 -12.715607 10.308044 -23.02362 23.02362 -23.02362l0 0c6.106262 0 11.962402 2.4256897 16.280151 6.743469c4.317749 4.317749 6.743469 10.173889 6.743469 16.280151l0 0c0 12.715576 -10.308044 23.02362 -23.02362 23.02362l0 0c-12.715576 0 -23.02362 -10.308044 -23.02362 -23.02362z" fill-rule="nonzero"></path><path stroke="#000000" stroke-width="1.0" stroke-linejoin="round" stroke-linecap="butt" d="m593.8268 369.8924l0 0c0 -12.715607 10.308044 -23.02362 23.02362 -23.02362l0 0c6.106262 0 11.962402 2.4256897 16.280151 6.743469c4.317749 4.317749 6.743469 10.173889 6.743469 16.280151l0 0c0 12.715576 -10.308044 23.02362 -23.02362 23.02362l0 0c-12.715576 0 -23.02362 -10.308044 -23.02362 -23.02362z" fill-rule="nonzero"></path><path fill="#000000" d="m615.488 376.81238l-4.875 -13.59375l2.984375 0l3.4375 10.0625l3.328125 -10.0625l2.921875 0l-4.875 13.59375l-2.921875 0z" fill-rule="nonzero"></path><path fill="#ffffff" d="m381.24146 224.32545l0 0c0 -12.715591 10.308044 -23.02362 23.023651 -23.02362l0 0c6.1062317 0 11.962372 2.425705 16.280151 6.743469c4.317749 4.3177643 6.743469 10.173904 6.743469 16.280151l0 0c0 12.715607 -10.308044 23.02362 -23.02362 23.02362l0 0c-12.715607 0 -23.023651 -10.308014 -23.023651 -23.02362z" fill-rule="nonzero"></path><path stroke="#000000" stroke-width="1.0" stroke-linejoin="round" stroke-linecap="butt" d="m381.24146 224.32545l0 0c0 -12.715591 10.308044 -23.02362 23.023651 -23.02362l0 0c6.1062317 0 11.962372 2.425705 16.280151 6.743469c4.317749 4.3177643 6.743469 10.173904 6.743469 16.280151l0 0c0 12.715607 -10.308044 23.02362 -23.02362 23.02362l0 0c-12.715607 0 -23.023651 -10.308014 -23.023651 -23.02362z" fill-rule="nonzero"></path><path fill="#000000" d="m402.90268 231.24545l-4.875 -13.59375l2.984375 0l3.4375 10.0625l3.328125 -10.0625l2.921875 0l-4.875 13.59375l-2.921875 0z" fill-rule="nonzero"></path><path fill="#cfe2f3" d="m598.9344 184.88715l0 0c0 -13.6549225 11.069519 -24.724411 24.724426 -24.724411l0 0c6.557312 0 12.846069 2.6048737 17.482788 7.2416077c4.6367188 4.6367188 7.241577 10.925476 7.241577 17.482803l0 0c0 13.654907 -11.069458 24.724396 -24.724365 24.724396l0 0c-13.654907 0 -24.724426 -11.069489 -24.724426 -24.724396z" fill-rule="nonzero"></path><path stroke="#000000" stroke-width="1.0" stroke-linejoin="round" stroke-linecap="butt" d="m598.9344 184.88715l0 0c0 -13.6549225 11.069519 -24.724411 24.724426 -24.724411l0 0c6.557312 0 12.846069 2.6048737 17.482788 7.2416077c4.6367188 4.6367188 7.241577 10.925476 7.241577 17.482803l0 0c0 13.654907 -11.069458 24.724396 -24.724365 24.724396l0 0c-13.654907 0 -24.724426 -11.069489 -24.724426 -24.724396z" fill-rule="nonzero"></path><path fill="#000000" d="m618.82764 191.80714l0 -13.59375l5.109375 0q1.546875 0 2.484375 0.40625q0.953125 0.40625 1.484375 1.265625q0.53125 0.859375 0.53125 1.796875q0 0.875 -0.46875 1.65625q-0.46875 0.765625 -1.4375 1.234375q1.234375 0.359375 1.890625 1.234375q0.671875 0.875 0.671875 2.0625q0 0.953125 -0.40625 1.78125q-0.390625 0.8125 -0.984375 1.265625q-0.59375 0.4375 -1.5 0.671875q-0.890625 0.21875 -2.1875 0.21875l-5.1875 0zm1.796875 -7.890625l2.9375 0q1.203125 0 1.71875 -0.15625q0.6875 -0.203125 1.03125 -0.671875q0.359375 -0.46875 0.359375 -1.1875q0 -0.671875 -0.328125 -1.1875q-0.328125 -0.515625 -0.9375 -0.703125q-0.59375 -0.203125 -2.0625 -0.203125l-2.71875 0l0 4.109375zm0 6.28125l3.390625 0q0.875 0 1.21875 -0.0625q0.625 -0.109375 1.046875 -0.359375q0.421875 -0.265625 0.6875 -0.765625q0.265625 -0.5 0.265625 -1.140625q0 -0.765625 -0.390625 -1.328125q-0.390625 -0.5625 -1.078125 -0.78125q-0.6875 -0.234375 -1.984375 -0.234375l-3.15625 0l0 4.671875z" fill-rule="nonzero"></path><path fill="#cfe2f3" d="m517.2047 205.53543l0 0c0 -13.654907 11.069519 -24.724411 24.724426 -24.724411l0 0c6.557312 0 12.846069 2.604889 17.482788 7.241623c4.6367188 4.6367188 7.241638 10.925476 7.241638 17.482788l0 0c0 13.6549225 -11.069519 24.724411 -24.724426 24.724411l0 0c-13.654907 0 -24.724426 -11.069489 -24.724426 -24.724411z" fill-rule="nonzero"></path><path stroke="#000000" stroke-width="1.0" stroke-linejoin="round" stroke-linecap="butt" d="m517.2047 205.53543l0 0c0 -13.654907 11.069519 -24.724411 24.724426 -24.724411l0 0c6.557312 0 12.846069 2.604889 17.482788 7.241623c4.6367188 4.6367188 7.241638 10.925476 7.241638 17.482788l0 0c0 13.6549225 -11.069519 24.724411 -24.724426 24.724411l0 0c-13.654907 0 -24.724426 -11.069489 -24.724426 -24.724411z" fill-rule="nonzero"></path><path fill="#000000" d="m535.6761 212.45543l5.234375 -13.59375l1.9375 0l5.5625 13.59375l-2.046875 0l-1.59375 -4.125l-5.6875 0l-1.484375 4.125l-1.921875 0zm3.921875 -5.578125l4.609375 0l-1.40625 -3.78125q-0.65625 -1.703125 -0.96875 -2.8125q-0.265625 1.3125 -0.734375 2.59375l-1.5 4.0z" fill-rule="nonzero"></path><path fill="#000000" fill-opacity="0.0" d="m406.14713 57.249485l118.299225 130.80316" fill-rule="nonzero"></path><path stroke="#000000" stroke-width="3.0" stroke-linejoin="round" stroke-linecap="butt" d="m406.1471 57.24949l106.2254 117.45315" fill-rule="evenodd"></path><path fill="#000000" stroke="#000000" stroke-width="3.0" stroke-linecap="butt" d="m508.6974 178.02643l12.807129 6.773468l-5.456909 -13.421051z" fill-rule="evenodd"></path><path fill="#000000" fill-opacity="0.0" d="m407.7823 61.294106l198.39374 106.11024" fill-rule="nonzero"></path><path stroke="#000000" stroke-width="3.0" stroke-linejoin="round" stroke-linecap="butt" d="m407.7823 61.294106l182.5213 97.62095" fill-rule="evenodd"></path><path fill="#000000" stroke="#000000" stroke-width="3.0" stroke-linecap="butt" d="m587.9666 163.28455l14.342041 2.0513763l-9.66803 -10.790344z" fill-rule="evenodd"></path><path fill="#ffffff" d="m381.24146 59.51181l0 0c0 -12.715595 10.308044 -23.02362 23.023651 -23.02362l0 0c6.1062317 0 11.962372 2.4256935 16.280151 6.7434616c4.317749 4.317768 6.743469 10.173916 6.743469 16.280159l0 0c0 12.715599 -10.308044 23.02362 -23.02362 23.02362l0 0c-12.715607 0 -23.023651 -10.308022 -23.023651 -23.02362z" fill-rule="nonzero"></path><path stroke="#000000" stroke-width="1.0" stroke-linejoin="round" stroke-linecap="butt" d="m381.24146 59.51181l0 0c0 -12.715595 10.308044 -23.02362 23.023651 -23.02362l0 0c6.1062317 0 11.962372 2.4256935 16.280151 6.7434616c4.317749 4.317768 6.743469 10.173916 6.743469 16.280159l0 0c0 12.715599 -10.308044 23.02362 -23.02362 23.02362l0 0c-12.715607 0 -23.023651 -10.308022 -23.023651 -23.02362z" fill-rule="nonzero"></path><path fill="#000000" d="m402.90268 66.43181l-4.875 -13.59375l2.984375 0l3.4375 10.0625l3.328125 -10.0625l2.921875 0l-4.875 13.59375l-2.921875 0z" fill-rule="nonzero"></path></g></svg>

