<?xml version="1.0" standalone="yes"?>

<svg version="1.1" viewBox="0.0 0.0 800.485564304462 330.6089238845144" fill="none" stroke="none" stroke-linecap="square" stroke-miterlimit="10" xmlns="http://www.w3.org/2000/svg" xmlns:xlink="http://www.w3.org/1999/xlink"><clipPath id="p.0"><path d="m0 0l800.48553 0l0 330.60892l-800.48553 0l0 -330.60892z" clip-rule="nonzero"></path></clipPath><g clip-path="url(#p.0)"><path fill="#000000" fill-opacity="0.0" d="m0 0l800.48553 0l0 330.60892l-800.48553 0z" fill-rule="nonzero"></path><path fill="#cfe2f3" d="m73.58368 300.1038l0 0c0 -12.367706 10.026001 -22.393707 22.3937 -22.393707l0 0c5.9391785 0 11.635109 2.359314 15.83474 6.55896c4.1996307 4.1996155 6.55896 9.895569 6.55896 15.834747l0 0c0 12.367676 -10.026001 22.393677 -22.3937 22.393677l0 0c-12.367699 0 -22.3937 -10.026001 -22.3937 -22.393677z" fill-rule="nonzero"></path><path stroke="#000000" stroke-width="1.0" stroke-linejoin="round" stroke-linecap="butt" d="m73.58368 300.1038l0 0c0 -12.367706 10.026001 -22.393707 22.3937 -22.393707l0 0c5.9391785 0 11.635109 2.359314 15.83474 6.55896c4.1996307 4.1996155 6.55896 9.895569 6.55896 15.834747l0 0c0 12.367676 -10.026001 22.393677 -22.3937 22.393677l0 0c-12.367699 0 -22.3937 -10.026001 -22.3937 -22.393677z" fill-rule="nonzero"></path><path fill="#000000" d="m91.14622 307.02377l0 -13.59375l5.109375 0q1.546875 0 2.484375 0.40625q0.953125 0.40625 1.484375 1.265625q0.53125 0.859375 0.53125 1.796875q0 0.875 -0.46875 1.65625q-0.46875 0.765625 -1.4375 1.234375q1.234375 0.359375 1.890625 1.234375q0.671875 0.875 0.671875 2.0625q0 0.953125 -0.40625 1.78125q-0.390625 0.8125 -0.984375 1.265625q-0.59375 0.4375 -1.5 0.671875q-0.890625 0.21875 -2.1875 0.21875l-5.1875 0zm1.796875 -7.890625l2.9375 0q1.203125 0 1.71875 -0.15625q0.6875 -0.203125 1.03125 -0.671875q0.359375 -0.46875 0.359375 -1.1875q0 -0.671875 -0.328125 -1.1875q-0.328125 -0.515625 -0.9375 -0.703125q-0.59375 -0.203125 -2.0625 -0.203125l-2.71875 0l0 4.109375zm0 6.28125l3.390625 0q0.875 0 1.21875 -0.0625q0.625 -0.109375 1.046875 -0.359375q0.421875 -0.265625 0.6875 -0.765625q0.265625 -0.5 0.265625 -1.140625q0 -0.765625 -0.390625 -1.328125q-0.390625 -0.5625 -1.078125 -0.78125q-0.6875 -0.234375 -1.984375 -0.234375l-3.15625 0l0 4.671875z" fill-rule="nonzero"></path><path fill="#cfe2f3" d="m8.000173 300.1017l0 0c0 -12.367706 10.026002 -22.393707 22.3937 -22.393707l0 0c5.9391804 0 11.635103 2.3593445 15.834738 6.55896c4.1996346 4.199646 6.558964 9.895569 6.558964 15.834747l0 0c0 12.367706 -10.026001 22.393707 -22.393702 22.393707l0 0c-12.367699 0 -22.3937 -10.026001 -22.3937 -22.393707z" fill-rule="nonzero"></path><path stroke="#000000" stroke-width="1.0" stroke-linejoin="round" stroke-linecap="butt" d="m8.000173 300.1017l0 0c0 -12.367706 10.026002 -22.393707 22.3937 -22.393707l0 0c5.9391804 0 11.635103 2.3593445 15.834738 6.55896c4.1996346 4.199646 6.558964 9.895569 6.558964 15.834747l0 0c0 12.367706 -10.026001 22.393707 -22.393702 22.393707l0 0c-12.367699 0 -22.3937 -10.026001 -22.3937 -22.393707z" fill-rule="nonzero"></path><path fill="#000000" d="m24.140837 307.0217l5.234375 -13.59375l1.9375 0l5.562502 13.59375l-2.046875 0l-1.59375 -4.125l-5.687502 0l-1.484375 4.125l-1.921875 0zm3.921875 -5.578125l4.609377 0l-1.4062519 -3.78125q-0.65625 -1.703125 -0.96875 -2.8125q-0.265625 1.3125 -0.734375 2.59375l-1.5 4.0z" fill-rule="nonzero"></path><path fill="#000000" fill-opacity="0.0" d="m75.9294 233.33784l-29.700787 50.929123" fill-rule="nonzero"></path><path stroke="#000000" stroke-width="3.0" stroke-linejoin="round" stroke-linecap="butt" d="m75.9294 233.33784l-20.6329 35.38005" fill-rule="evenodd"></path><path fill="#000000" stroke="#000000" stroke-width="3.0" stroke-linecap="butt" d="m51.016014 266.22162l-2.5780067 14.256836l11.138973 -9.264252z" fill-rule="evenodd"></path><path fill="#000000" fill-opacity="0.0" d="m78.276596 240.7337l17.700783 36.97638" fill-rule="nonzero"></path><path stroke="#000000" stroke-width="3.0" stroke-linejoin="round" stroke-linecap="butt" d="m78.276596 240.7337l9.928711 20.740753" fill-rule="evenodd"></path><path fill="#000000" stroke="#000000" stroke-width="3.0" stroke-linecap="butt" d="m83.73583 263.61404l10.347885 10.140228l-1.4089279 -14.419373z" fill-rule="evenodd"></path><path fill="#000000" fill-opacity="0.0" d="m288.7211 155.04926l-64.566925 59.685043" fill-rule="nonzero"></path><path stroke="#000000" stroke-width="3.0" stroke-linejoin="round" stroke-linecap="butt" d="m288.7211 155.04926l-51.34912 47.46663" fill-rule="evenodd"></path><path fill="#000000" stroke="#000000" stroke-width="3.0" stroke-linecap="butt" d="m234.00839 198.87717l-6.6336823 12.880112l13.36087 -5.6026764z" fill-rule="evenodd"></path><path fill="#000000" fill-opacity="0.0" d="m296.87506 163.60304l20.944885 58.992126" fill-rule="nonzero"></path><path stroke="#000000" stroke-width="3.0" stroke-linejoin="round" stroke-linecap="butt" d="m296.87506 163.60304l14.922394 42.029526" fill-rule="evenodd"></path><path fill="#000000" stroke="#000000" stroke-width="3.0" stroke-linecap="butt" d="m307.12784 207.2905l9.224731 11.171722l0.11450195 -14.487579z" fill-rule="evenodd"></path><path fill="#cfe2f3" d="m203.22462 300.1035l0 0c0 -12.367706 10.026001 -22.393707 22.393707 -22.393707l0 0c5.9391785 0 11.635101 2.359314 15.834732 6.55896c4.1996307 4.1996155 6.558975 9.895569 6.558975 15.834747l0 0c0 12.367676 -10.026016 22.393677 -22.393707 22.393677l0 0c-12.367706 0 -22.393707 -10.026001 -22.393707 -22.393677z" fill-rule="nonzero"></path><path stroke="#000000" stroke-width="1.0" stroke-linejoin="round" stroke-linecap="butt" d="m203.22462 300.1035l0 0c0 -12.367706 10.026001 -22.393707 22.393707 -22.393707l0 0c5.9391785 0 11.635101 2.359314 15.834732 6.55896c4.1996307 4.1996155 6.558975 9.895569 6.558975 15.834747l0 0c0 12.367676 -10.026016 22.393677 -22.393707 22.393677l0 0c-12.367706 0 -22.393707 -10.026001 -22.393707 -22.393677z" fill-rule="nonzero"></path><path fill="#000000" d="m220.3506 307.02347l0 -13.59375l4.6875 0q1.578125 0 2.421875 0.1875q1.15625 0.265625 1.984375 0.96875q1.078125 0.921875 1.609375 2.34375q0.53125 1.40625 0.53125 3.21875q0 1.546875 -0.359375 2.75q-0.359375 1.1875 -0.921875 1.984375q-0.5625 0.78125 -1.234375 1.234375q-0.671875 0.4375 -1.625 0.671875q-0.953125 0.234375 -2.1875 0.234375l-4.90625 0zm1.796875 -1.609375l2.90625 0q1.34375 0 2.109375 -0.25q0.765625 -0.25 1.21875 -0.703125q0.640625 -0.640625 1.0 -1.71875q0.359375 -1.078125 0.359375 -2.625q0 -2.125 -0.703125 -3.265625q-0.703125 -1.15625 -1.703125 -1.546875q-0.71875 -0.28125 -2.328125 -0.28125l-2.859375 0l0 10.390625z" fill-rule="nonzero"></path><path fill="#cfe2f3" d="m129.16199 300.1035l0 0c0 -12.367706 10.026001 -22.393707 22.393707 -22.393707l0 0c5.9391785 0 11.635101 2.359314 15.834732 6.55896c4.1996307 4.1996155 6.55896 9.895569 6.55896 15.834747l0 0c0 12.367676 -10.026001 22.393677 -22.393692 22.393677l0 0c-12.367706 0 -22.393707 -10.026001 -22.393707 -22.393677z" fill-rule="nonzero"></path><path stroke="#000000" stroke-width="1.0" stroke-linejoin="round" stroke-linecap="butt" d="m129.16199 300.1035l0 0c0 -12.367706 10.026001 -22.393707 22.393707 -22.393707l0 0c5.9391785 0 11.635101 2.359314 15.834732 6.55896c4.1996307 4.1996155 6.55896 9.895569 6.55896 15.834747l0 0c0 12.367676 -10.026001 22.393677 -22.393692 22.393677l0 0c-12.367706 0 -22.393707 -10.026001 -22.393707 -22.393677z" fill-rule="nonzero"></path><path fill="#000000" d="m155.99109 302.25784l1.796875 0.453125q-0.5625 2.21875 -2.03125 3.390625q-1.46875 1.15625 -3.59375 1.15625q-2.203125 0 -3.578125 -0.890625q-1.375 -0.90625 -2.09375 -2.59375q-0.71875 -1.703125 -0.71875 -3.65625q0 -2.125 0.796875 -3.703125q0.8125 -1.578125 2.3125 -2.390625q1.5 -0.828125 3.296875 -0.828125q2.046875 0 3.4375 1.046875q1.390625 1.03125 1.9375 2.90625l-1.765625 0.421875q-0.46875 -1.484375 -1.375 -2.15625q-0.90625 -0.6875 -2.265625 -0.6875q-1.5625 0 -2.625 0.75q-1.046875 0.75 -1.484375 2.03125q-0.421875 1.265625 -0.421875 2.609375q0 1.734375 0.5 3.03125q0.515625 1.28125 1.578125 1.921875q1.078125 0.640625 2.3125 0.640625q1.515625 0 2.5625 -0.859375q1.046875 -0.875 1.421875 -2.59375z" fill-rule="nonzero"></path><path fill="#cfe2f3" d="m340.96558 300.1035l0 0c0 -12.367706 10.026001 -22.393707 22.393707 -22.393707l0 0c5.9391785 0 11.635101 2.359314 15.834747 6.55896c4.1996155 4.1996155 6.55896 9.895569 6.55896 15.834747l0 0c0 12.367676 -10.026001 22.393677 -22.393707 22.393677l0 0c-12.367706 0 -22.393707 -10.026001 -22.393707 -22.393677z" fill-rule="nonzero"></path><path stroke="#000000" stroke-width="1.0" stroke-linejoin="round" stroke-linecap="butt" d="m340.96558 300.1035l0 0c0 -12.367706 10.026001 -22.393707 22.393707 -22.393707l0 0c5.9391785 0 11.635101 2.359314 15.834747 6.55896c4.1996155 4.1996155 6.55896 9.895569 6.55896 15.834747l0 0c0 12.367676 -10.026001 22.393677 -22.393707 22.393677l0 0c-12.367706 0 -22.393707 -10.026001 -22.393707 -22.393677z" fill-rule="nonzero"></path><path fill="#000000" d="m359.2238 307.02347l0 -13.59375l9.171875 0l0 1.59375l-7.375 0l0 4.21875l6.375 0l0 1.609375l-6.375 0l0 6.171875l-1.796875 0z" fill-rule="nonzero"></path><path fill="#cfe2f3" d="m266.90295 300.1035l0 0c0 -12.367706 10.026001 -22.393707 22.393677 -22.393707l0 0c5.9391785 0 11.635132 2.359314 15.834747 6.55896c4.199646 4.1996155 6.55896 9.895569 6.55896 15.834747l0 0c0 12.367676 -10.026001 22.393677 -22.393707 22.393677l0 0c-12.367676 0 -22.393677 -10.026001 -22.393677 -22.393677z" fill-rule="nonzero"></path><path stroke="#000000" stroke-width="1.0" stroke-linejoin="round" stroke-linecap="butt" d="m266.90295 300.1035l0 0c0 -12.367706 10.026001 -22.393707 22.393677 -22.393707l0 0c5.9391785 0 11.635132 2.359314 15.834747 6.55896c4.199646 4.1996155 6.55896 9.895569 6.55896 15.834747l0 0c0 12.367676 -10.026001 22.393677 -22.393707 22.393677l0 0c-12.367676 0 -22.393677 -10.026001 -22.393677 -22.393677z" fill-rule="nonzero"></path><path fill="#000000" d="m284.57486 307.02347l0 -13.59375l9.84375 0l0 1.59375l-8.046875 0l0 4.171875l7.53125 0l0 1.59375l-7.53125 0l0 4.625l8.359375 0l0 1.609375l-10.15625 0z" fill-rule="nonzero"></path><path fill="#000000" fill-opacity="0.0" d="m211.32744 232.83566l-43.93701 51.433075" fill-rule="nonzero"></path><path stroke="#000000" stroke-width="3.0" stroke-linejoin="round" stroke-linecap="butt" d="m211.32742 232.83568l-32.245544 37.746933" fill-rule="evenodd"></path><path fill="#000000" stroke="#000000" stroke-width="3.0" stroke-linecap="butt" d="m175.31424 267.3641l-5.07518 13.570007l12.610458 -7.132965z" fill-rule="evenodd"></path><path fill="#000000" fill-opacity="0.0" d="m210.84668 231.34756l14.771652 46.362213" fill-rule="nonzero"></path><path stroke="#000000" stroke-width="3.0" stroke-linejoin="round" stroke-linecap="butt" d="m210.84668 231.34756l9.307251 29.21167" fill-rule="evenodd"></path><path fill="#000000" stroke="#000000" stroke-width="3.0" stroke-linecap="butt" d="m215.43259 262.06354l8.85434 11.467499l0.58836365 -14.476074z" fill-rule="evenodd"></path><path fill="#000000" fill-opacity="0.0" d="m330.99744 236.89087l-41.700806 40.81891" fill-rule="nonzero"></path><path stroke="#000000" stroke-width="3.0" stroke-linejoin="round" stroke-linecap="butt" d="m330.99744 236.89087l-28.837585 28.227722" fill-rule="evenodd"></path><path fill="#000000" stroke="#000000" stroke-width="3.0" stroke-linecap="butt" d="m298.69366 261.57748l-6.2628784 13.064453l13.195282 -5.982239z" fill-rule="evenodd"></path><path fill="#000000" fill-opacity="0.0" d="m332.46942 238.34747l15.055115 45.921265" fill-rule="nonzero"></path><path stroke="#000000" stroke-width="3.0" stroke-linejoin="round" stroke-linecap="butt" d="m332.46942 238.34749l9.447571 28.817001" fill-rule="evenodd"></path><path fill="#000000" stroke="#000000" stroke-width="3.0" stroke-linecap="butt" d="m337.20837 268.7082l8.94989 11.393097l0.4673462 -14.480499z" fill-rule="evenodd"></path><path fill="#ffffff" d="m188.56033 229.47775l0 0c0 -11.515366 9.335037 -20.850403 20.850388 -20.850403l0 0c5.5298767 0 10.833252 2.1967316 14.743454 6.106949c3.910202 3.910202 6.1069336 9.213577 6.1069336 14.743454l0 0c0 11.51535 -9.335037 20.850388 -20.850388 20.850388l0 0c-11.51535 0 -20.850388 -9.335037 -20.850388 -20.850388z" fill-rule="nonzero"></path><path stroke="#000000" stroke-width="1.0" stroke-linejoin="round" stroke-linecap="butt" d="m188.56033 229.47775l0 0c0 -11.515366 9.335037 -20.850403 20.850388 -20.850403l0 0c5.5298767 0 10.833252 2.1967316 14.743454 6.106949c3.910202 3.910202 6.1069336 9.213577 6.1069336 14.743454l0 0c0 11.51535 -9.335037 20.850388 -20.850388 20.850388l0 0c-11.51535 0 -20.850388 -9.335037 -20.850388 -20.850388z" fill-rule="nonzero"></path><path fill="#000000" d="m208.04831 236.39775l-4.875 -13.59375l2.984375 0l3.4375 10.0625l3.328125 -10.0625l2.921875 0l-4.875 13.59375l-2.921875 0z" fill-rule="nonzero"></path><path fill="#ffffff" d="m311.71298 237.33862l0 0c0 -11.51535 9.3350525 -20.850403 20.850403 -20.850403l0 0c5.5298767 0 10.833252 2.1967316 14.743469 6.106949c3.9101868 3.910202 6.1069336 9.213577 6.1069336 14.743454l0 0c0 11.51535 -9.3350525 20.850403 -20.850403 20.850403l0 0c-11.51535 0 -20.850403 -9.3350525 -20.850403 -20.850403z" fill-rule="nonzero"></path><path stroke="#000000" stroke-width="1.0" stroke-linejoin="round" stroke-linecap="butt" d="m311.71298 237.33862l0 0c0 -11.51535 9.3350525 -20.850403 20.850403 -20.850403l0 0c5.5298767 0 10.833252 2.1967316 14.743469 6.106949c3.9101868 3.910202 6.1069336 9.213577 6.1069336 14.743454l0 0c0 11.51535 -9.3350525 20.850403 -20.850403 20.850403l0 0c-11.51535 0 -20.850403 -9.3350525 -20.850403 -20.850403z" fill-rule="nonzero"></path><path fill="#000000" d="m331.201 244.25862l-4.875 -13.59375l2.984375 0l3.4375 10.0625l3.328125 -10.0625l2.921875 0l-4.875 13.59375l-2.921875 0z" fill-rule="nonzero"></path><path fill="#ffffff" d="m268.44534 153.7846l0 0c0 -11.51535 9.335022 -20.850388 20.850372 -20.850388l0 0c5.5298767 0 10.833252 2.1967316 14.743469 6.1069336c3.9102173 3.9102173 6.1069336 9.213593 6.1069336 14.743454l0 0c0 11.515366 -9.335022 20.850403 -20.850403 20.850403l0 0c-11.51535 0 -20.850372 -9.335037 -20.850372 -20.850403z" fill-rule="nonzero"></path><path stroke="#000000" stroke-width="1.0" stroke-linejoin="round" stroke-linecap="butt" d="m268.44534 153.7846l0 0c0 -11.51535 9.335022 -20.850388 20.850372 -20.850388l0 0c5.5298767 0 10.833252 2.1967316 14.743469 6.1069336c3.9102173 3.9102173 6.1069336 9.213593 6.1069336 14.743454l0 0c0 11.515366 -9.335022 20.850403 -20.850403 20.850403l0 0c-11.51535 0 -20.850372 -9.335037 -20.850372 -20.850403z" fill-rule="nonzero"></path><path fill="#000000" d="m287.93332 160.7046l-4.875 -13.59375l2.984375 0l3.4375 10.0625l3.328125 -10.0625l2.921875 0l-4.875 13.59375l-2.921875 0z" fill-rule="nonzero"></path><path fill="#ffffff" d="m54.2506 229.47829l0 0c0 -11.51535 9.335037 -20.850388 20.850391 -20.850388l0 0c5.529869 0 10.833252 2.1967316 14.743454 6.1069336c3.9102097 3.910202 6.106941 9.213577 6.106941 14.743454l0 0c0 11.51535 -9.335037 20.850388 -20.850395 20.850388l0 0c-11.515354 0 -20.850391 -9.335037 -20.850391 -20.850388z" fill-rule="nonzero"></path><path stroke="#000000" stroke-width="1.0" stroke-linejoin="round" stroke-linecap="butt" d="m54.2506 229.47829l0 0c0 -11.51535 9.335037 -20.850388 20.850391 -20.850388l0 0c5.529869 0 10.833252 2.1967316 14.743454 6.1069336c3.9102097 3.910202 6.106941 9.213577 6.106941 14.743454l0 0c0 11.51535 -9.335037 20.850388 -20.850395 20.850388l0 0c-11.515354 0 -20.850391 -9.335037 -20.850391 -20.850388z" fill-rule="nonzero"></path><path fill="#000000" d="m73.73858 236.39828l-4.875 -13.59375l2.984375 0l3.4375 10.0625l3.328125 -10.0625l2.921875 0l-4.875 13.59375l-2.921875 0z" fill-rule="nonzero"></path><path fill="#000000" fill-opacity="0.0" d="m512.43317 170.3747l-28.629913 52.220474" fill-rule="nonzero"></path><path stroke="#000000" stroke-width="3.0" stroke-linejoin="round" stroke-linecap="butt" d="m512.43317 170.3747l-19.976593 36.43695" fill-rule="evenodd"></path><path fill="#000000" stroke="#000000" stroke-width="3.0" stroke-linecap="butt" d="m488.11154 204.42947l-2.1999207 14.320023l10.889984 -9.555695z" fill-rule="evenodd"></path><path fill="#000000" fill-opacity="0.0" d="m511.77896 167.63454l59.590546 54.960632" fill-rule="nonzero"></path><path stroke="#000000" stroke-width="3.0" stroke-linejoin="round" stroke-linecap="butt" d="m511.77896 167.63454l46.35898 42.75711" fill-rule="evenodd"></path><path fill="#000000" stroke="#000000" stroke-width="3.0" stroke-linecap="butt" d="m554.77844 214.03413l13.3671875 5.587631l-6.6481934 -12.87262z" fill-rule="evenodd"></path><path fill="#cfe2f3" d="m478.52277 300.1035l0 0c0 -12.367706 10.026001 -22.393707 22.393707 -22.393707l0 0c5.9391785 0 11.635101 2.359314 15.834747 6.55896c4.199646 4.1996155 6.55896 9.895569 6.55896 15.834747l0 0c0 12.367676 -10.026001 22.393677 -22.393707 22.393677l0 0c-12.367706 0 -22.393707 -10.026001 -22.393707 -22.393677z" fill-rule="nonzero"></path><path stroke="#000000" stroke-width="1.0" stroke-linejoin="round" stroke-linecap="butt" d="m478.52277 300.1035l0 0c0 -12.367706 10.026001 -22.393707 22.393707 -22.393707l0 0c5.9391785 0 11.635101 2.359314 15.834747 6.55896c4.199646 4.1996155 6.55896 9.895569 6.55896 15.834747l0 0c0 12.367676 -10.026001 22.393677 -22.393707 22.393677l0 0c-12.367706 0 -22.393707 -10.026001 -22.393707 -22.393677z" fill-rule="nonzero"></path><path fill="#000000" d="m495.69562 307.02347l0 -13.59375l1.8125 0l0 5.578125l7.0625 0l0 -5.578125l1.796875 0l0 13.59375l-1.796875 0l0 -6.40625l-7.0625 0l0 6.40625l-1.8125 0z" fill-rule="nonzero"></path><path fill="#cfe2f3" d="m404.46014 300.1035l0 0c0 -12.367706 10.026001 -22.393707 22.393707 -22.393707l0 0c5.9391785 0 11.635101 2.359314 15.834717 6.55896c4.199646 4.1996155 6.55896 9.895569 6.55896 15.834747l0 0c0 12.367676 -10.026001 22.393677 -22.393677 22.393677l0 0c-12.367706 0 -22.393707 -10.026001 -22.393707 -22.393677z" fill-rule="nonzero"></path><path stroke="#000000" stroke-width="1.0" stroke-linejoin="round" stroke-linecap="butt" d="m404.46014 300.1035l0 0c0 -12.367706 10.026001 -22.393707 22.393707 -22.393707l0 0c5.9391785 0 11.635101 2.359314 15.834717 6.55896c4.199646 4.1996155 6.55896 9.895569 6.55896 15.834747l0 0c0 12.367676 -10.026001 22.393677 -22.393677 22.393677l0 0c-12.367706 0 -22.393707 -10.026001 -22.393707 -22.393677z" fill-rule="nonzero"></path><path fill="#000000" d="m427.42624 301.69534l0 -1.609375l5.765625 0l0 5.046875q-1.328125 1.0625 -2.75 1.59375q-1.40625 0.53125 -2.890625 0.53125q-2.0 0 -3.640625 -0.859375q-1.625 -0.859375 -2.46875 -2.484375q-0.828125 -1.625 -0.828125 -3.625q0 -1.984375 0.828125 -3.703125q0.828125 -1.71875 2.390625 -2.546875q1.5625 -0.84375 3.59375 -0.84375q1.46875 0 2.65625 0.484375q1.203125 0.46875 1.875 1.328125q0.671875 0.84375 1.03125 2.21875l-1.625 0.4375q-0.3125 -1.03125 -0.765625 -1.625q-0.453125 -0.59375 -1.296875 -0.953125q-0.84375 -0.359375 -1.875 -0.359375q-1.234375 0 -2.140625 0.375q-0.890625 0.375 -1.453125 1.0q-0.546875 0.609375 -0.84375 1.34375q-0.53125 1.25 -0.53125 2.734375q0 1.8125 0.625 3.046875q0.640625 1.21875 1.828125 1.8125q1.203125 0.59375 2.546875 0.59375q1.171875 0 2.28125 -0.453125q1.109375 -0.453125 1.6875 -0.953125l0 -2.53125l-4.0 0z" fill-rule="nonzero"></path><path fill="#cfe2f3" d="m616.26373 300.1035l0 0c0 -12.367706 10.026001 -22.393707 22.393677 -22.393707l0 0c5.939209 0 11.635132 2.359314 15.834778 6.55896c4.199646 4.1996155 6.55896 9.895569 6.55896 15.834747l0 0c0 12.367676 -10.026001 22.393677 -22.393738 22.393677l0 0c-12.367676 0 -22.393677 -10.026001 -22.393677 -22.393677z" fill-rule="nonzero"></path><path stroke="#000000" stroke-width="1.0" stroke-linejoin="round" stroke-linecap="butt" d="m616.26373 300.1035l0 0c0 -12.367706 10.026001 -22.393707 22.393677 -22.393707l0 0c5.939209 0 11.635132 2.359314 15.834778 6.55896c4.199646 4.1996155 6.55896 9.895569 6.55896 15.834747l0 0c0 12.367676 -10.026001 22.393677 -22.393738 22.393677l0 0c-12.367676 0 -22.393677 -10.026001 -22.393677 -22.393677z" fill-rule="nonzero"></path><path fill="#000000" d="m634.5402 303.1641l1.625 -0.21875q0.0625 1.546875 0.578125 2.125q0.53125 0.578125 1.4375 0.578125q0.6875 0 1.171875 -0.3125q0.5 -0.3125 0.671875 -0.84375q0.1875 -0.53125 0.1875 -1.703125l0 -9.359375l1.8125 0l0 9.265625q0 1.703125 -0.421875 2.640625q-0.40625 0.9375 -1.3125 1.4375q-0.890625 0.484375 -2.09375 0.484375q-1.796875 0 -2.75 -1.03125q-0.9375 -1.03125 -0.90625 -3.0625z" fill-rule="nonzero"></path><path fill="#cfe2f3" d="m542.2011 300.1035l0 0c0 -12.367706 10.026001 -22.393707 22.393677 -22.393707l0 0c5.939209 0 11.635132 2.359314 15.834717 6.55896c4.199646 4.1996155 6.559021 9.895569 6.559021 15.834747l0 0c0 12.367676 -10.026001 22.393677 -22.393738 22.393677l0 0c-12.367676 0 -22.393677 -10.026001 -22.393677 -22.393677z" fill-rule="nonzero"></path><path stroke="#000000" stroke-width="1.0" stroke-linejoin="round" stroke-linecap="butt" d="m542.2011 300.1035l0 0c0 -12.367706 10.026001 -22.393707 22.393677 -22.393707l0 0c5.939209 0 11.635132 2.359314 15.834717 6.55896c4.199646 4.1996155 6.559021 9.895569 6.559021 15.834747l0 0c0 12.367676 -10.026001 22.393677 -22.393738 22.393677l0 0c-12.367676 0 -22.393677 -10.026001 -22.393677 -22.393677z" fill-rule="nonzero"></path><path fill="#000000" d="m563.7688 307.02347l0 -13.59375l1.8125 0l0 13.59375l-1.8125 0z" fill-rule="nonzero"></path><path fill="#000000" fill-opacity="0.0" d="m470.12164 239.10338l-27.433075 45.16536" fill-rule="nonzero"></path><path stroke="#000000" stroke-width="3.0" stroke-linejoin="round" stroke-linecap="butt" d="m470.12164 239.1034l-18.088684 29.780884" fill-rule="evenodd"></path><path fill="#000000" stroke="#000000" stroke-width="3.0" stroke-linecap="butt" d="m447.7978 266.31186l-2.8324585 14.208435l11.302826 -9.063629z" fill-rule="evenodd"></path><path fill="#000000" fill-opacity="0.0" d="m471.59366 243.53654l29.322815 34.173233" fill-rule="nonzero"></path><path stroke="#000000" stroke-width="3.0" stroke-linejoin="round" stroke-linecap="butt" d="m471.59363 243.53654l17.601349 20.512833" fill-rule="evenodd"></path><path fill="#000000" stroke="#000000" stroke-width="3.0" stroke-linecap="butt" d="m485.43442 267.27618l12.626099 7.1052246l-5.105011 -13.558838z" fill-rule="evenodd"></path><path fill="#000000" fill-opacity="0.0" d="m586.2011 242.05623l-21.606323 35.65355" fill-rule="nonzero"></path><path stroke="#000000" stroke-width="3.0" stroke-linejoin="round" stroke-linecap="butt" d="m586.2011 242.05623l-12.277466 20.259628" fill-rule="evenodd"></path><path fill="#000000" stroke="#000000" stroke-width="3.0" stroke-linecap="butt" d="m569.68585 259.7477l-2.8180542 14.211334l11.29364 -9.075073z" fill-rule="evenodd"></path><path fill="#000000" fill-opacity="0.0" d="m589.1849 239.82779l33.637817 44.44095" fill-rule="nonzero"></path><path stroke="#000000" stroke-width="3.0" stroke-linejoin="round" stroke-linecap="butt" d="m589.18494 239.82779l22.774414 30.088684" fill-rule="evenodd"></path><path fill="#000000" stroke="#000000" stroke-width="3.0" stroke-linecap="butt" d="m608.0083 272.90704l12.1675415 7.8647766l-4.265503 -13.845886z" fill-rule="evenodd"></path><path fill="#ffffff" d="m448.2094 237.33862l0 0c0 -11.51535 9.335022 -20.850403 20.850372 -20.850403l0 0c5.5298767 0 10.833252 2.1967316 14.743469 6.106949c3.9102173 3.910202 6.1069336 9.213577 6.1069336 14.743454l0 0c0 11.51535 -9.3350525 20.850403 -20.850403 20.850403l0 0c-11.51535 0 -20.850372 -9.3350525 -20.850372 -20.850403z" fill-rule="nonzero"></path><path stroke="#000000" stroke-width="1.0" stroke-linejoin="round" stroke-linecap="butt" d="m448.2094 237.33862l0 0c0 -11.51535 9.335022 -20.850403 20.850372 -20.850403l0 0c5.5298767 0 10.833252 2.1967316 14.743469 6.106949c3.9102173 3.910202 6.1069336 9.213577 6.1069336 14.743454l0 0c0 11.51535 -9.3350525 20.850403 -20.850403 20.850403l0 0c-11.51535 0 -20.850372 -9.3350525 -20.850372 -20.850403z" fill-rule="nonzero"></path><path fill="#000000" d="m467.6974 244.25862l-4.875 -13.59375l2.984375 0l3.4375 10.0625l3.328125 -10.0625l2.921875 0l-4.875 13.59375l-2.921875 0z" fill-rule="nonzero"></path><path fill="#ffffff" d="m565.2626 237.33862l0 0c0 -11.51535 9.335022 -20.850403 20.850403 -20.850403l0 0c5.529846 0 10.833252 2.1967316 14.743469 6.106949c3.9101562 3.910202 6.1069336 9.213577 6.1069336 14.743454l0 0c0 11.51535 -9.335083 20.850403 -20.850403 20.850403l0 0c-11.515381 0 -20.850403 -9.3350525 -20.850403 -20.850403z" fill-rule="nonzero"></path><path stroke="#000000" stroke-width="1.0" stroke-linejoin="round" stroke-linecap="butt" d="m565.2626 237.33862l0 0c0 -11.51535 9.335022 -20.850403 20.850403 -20.850403l0 0c5.529846 0 10.833252 2.1967316 14.743469 6.106949c3.9101562 3.910202 6.1069336 9.213577 6.1069336 14.743454l0 0c0 11.51535 -9.335083 20.850403 -20.850403 20.850403l0 0c-11.515381 0 -20.850403 -9.3350525 -20.850403 -20.850403z" fill-rule="nonzero"></path><path fill="#000000" d="m584.75055 244.25862l-4.875 -13.59375l2.984375 0l3.4375 10.0625l3.328125 -10.0625l2.921875 0l-4.875 13.59375l-2.921875 0z" fill-rule="nonzero"></path><path fill="#ffffff" d="m494.71057 162.27805l0 0c0 -11.51535 9.3350525 -20.850388 20.850403 -20.850388l0 0c5.529846 0 10.833252 2.1967316 14.743469 6.1069336c3.9101562 3.9102173 6.1069336 9.213593 6.1069336 14.743454l0 0c0 11.515366 -9.335083 20.850403 -20.850403 20.850403l0 0c-11.51535 0 -20.850403 -9.335037 -20.850403 -20.850403z" fill-rule="nonzero"></path><path stroke="#000000" stroke-width="1.0" stroke-linejoin="round" stroke-linecap="butt" d="m494.71057 162.27805l0 0c0 -11.51535 9.3350525 -20.850388 20.850403 -20.850388l0 0c5.529846 0 10.833252 2.1967316 14.743469 6.1069336c3.9101562 3.9102173 6.1069336 9.213593 6.1069336 14.743454l0 0c0 11.515366 -9.335083 20.850403 -20.850403 20.850403l0 0c-11.51535 0 -20.850403 -9.335037 -20.850403 -20.850403z" fill-rule="nonzero"></path><path fill="#000000" d="m514.19855 169.19804l-4.875 -13.59375l2.984375 0l3.4375 10.0625l3.328125 -10.0625l2.921875 0l-4.875 13.59375l-2.921875 0z" fill-rule="nonzero"></path><path fill="#cfe2f3" d="m746.3091 300.10178l0 0c0 -12.367706 10.026001 -22.393707 22.393738 -22.393707l0 0c5.939148 0 11.635071 2.359314 15.834717 6.55896c4.199646 4.199646 6.55896 9.895569 6.55896 15.834747l0 0c0 12.367676 -10.026001 22.393677 -22.393677 22.393677l0 0c-12.367737 0 -22.393738 -10.026001 -22.393738 -22.393677z" fill-rule="nonzero"></path><path stroke="#000000" stroke-width="1.0" stroke-linejoin="round" stroke-linecap="butt" d="m746.3091 300.10178l0 0c0 -12.367706 10.026001 -22.393707 22.393738 -22.393707l0 0c5.939148 0 11.635071 2.359314 15.834717 6.55896c4.199646 4.199646 6.55896 9.895569 6.55896 15.834747l0 0c0 12.367676 -10.026001 22.393677 -22.393677 22.393677l0 0c-12.367737 0 -22.393738 -10.026001 -22.393738 -22.393677z" fill-rule="nonzero"></path><path fill="#000000" d="m763.87164 307.02176l0 -13.59375l5.109375 0q1.546875 0 2.484375 0.40625q0.953125 0.40625 1.484375 1.265625q0.53125 0.859375 0.53125 1.796875q0 0.875 -0.46875 1.65625q-0.46875 0.765625 -1.4375 1.234375q1.234375 0.359375 1.890625 1.234375q0.671875 0.875 0.671875 2.0625q0 0.953125 -0.40625 1.78125q-0.390625 0.8125 -0.984375 1.265625q-0.59375 0.4375 -1.5 0.671875q-0.890625 0.21875 -2.1875 0.21875l-5.1875 0zm1.796875 -7.890625l2.9375 0q1.203125 0 1.71875 -0.15625q0.6875 -0.203125 1.03125 -0.671875q0.359375 -0.46875 0.359375 -1.1875q0 -0.671875 -0.328125 -1.1875q-0.328125 -0.515625 -0.9375 -0.703125q-0.59375 -0.203125 -2.0625 -0.203125l-2.71875 0l0 4.109375zm0 6.28125l3.390625 0q0.875 0 1.21875 -0.0625q0.625 -0.109375 1.046875 -0.359375q0.421875 -0.265625 0.6875 -0.765625q0.265625 -0.5 0.265625 -1.140625q0 -0.765625 -0.390625 -1.328125q-0.390625 -0.5625 -1.078125 -0.78125q-0.6875 -0.234375 -1.984375 -0.234375l-3.15625 0l0 4.671875z" fill-rule="nonzero"></path><path fill="#cfe2f3" d="m684.53735 300.102l0 0c0 -12.367706 10.026001 -22.393707 22.393677 -22.393707l0 0c5.939209 0 11.635132 2.359314 15.834778 6.55896c4.199585 4.1996155 6.55896 9.895538 6.55896 15.834747l0 0c0 12.367676 -10.026001 22.393677 -22.393738 22.393677l0 0c-12.367676 0 -22.393677 -10.026001 -22.393677 -22.393677z" fill-rule="nonzero"></path><path stroke="#000000" stroke-width="1.0" stroke-linejoin="round" stroke-linecap="butt" d="m684.53735 300.102l0 0c0 -12.367706 10.026001 -22.393707 22.393677 -22.393707l0 0c5.939209 0 11.635132 2.359314 15.834778 6.55896c4.199585 4.1996155 6.55896 9.895538 6.55896 15.834747l0 0c0 12.367676 -10.026001 22.393677 -22.393738 22.393677l0 0c-12.367676 0 -22.393677 -10.026001 -22.393677 -22.393677z" fill-rule="nonzero"></path><path fill="#000000" d="m700.67804 307.02197l5.234375 -13.59375l1.9375 0l5.5625 13.59375l-2.046875 0l-1.59375 -4.125l-5.6875 0l-1.484375 4.125l-1.921875 0zm3.921875 -5.578125l4.609375 0l-1.40625 -3.78125q-0.65625 -1.703125 -0.96875 -2.8125q-0.265625 1.3125 -0.734375 2.59375l-1.5 4.0z" fill-rule="nonzero"></path><path fill="#000000" fill-opacity="0.0" d="m731.68695 244.13347l-24.75592 33.574814" fill-rule="nonzero"></path><path stroke="#000000" stroke-width="3.0" stroke-linejoin="round" stroke-linecap="butt" d="m731.68695 244.13347l-14.073669 19.087204" fill-rule="evenodd"></path><path fill="#000000" stroke="#000000" stroke-width="3.0" stroke-linecap="butt" d="m713.62494 260.28l-4.0911865 13.898376l12.067749 -8.016998z" fill-rule="evenodd"></path><path fill="#000000" fill-opacity="0.0" d="m731.002 244.13326l37.700806 33.574814" fill-rule="nonzero"></path><path stroke="#000000" stroke-width="3.0" stroke-linejoin="round" stroke-linecap="butt" d="m731.00195 244.13327l24.258606 21.603699" fill-rule="evenodd"></path><path fill="#000000" stroke="#000000" stroke-width="3.0" stroke-linecap="butt" d="m751.965 269.43747l13.462524 5.3538513l-6.871521 -12.754822z" fill-rule="evenodd"></path><path fill="#ffffff" d="m711.0638 237.33916l0 0c0 -11.51535 9.335022 -20.850388 20.850403 -20.850388l0 0c5.529846 0 10.833252 2.1967316 14.743469 6.1069336c3.9102173 3.910202 6.1069336 9.213593 6.1069336 14.743454l0 0c0 11.51535 -9.335022 20.850388 -20.850403 20.850388l0 0c-11.515381 0 -20.850403 -9.335037 -20.850403 -20.850388z" fill-rule="nonzero"></path><path stroke="#000000" stroke-width="1.0" stroke-linejoin="round" stroke-linecap="butt" d="m711.0638 237.33916l0 0c0 -11.51535 9.335022 -20.850388 20.850403 -20.850388l0 0c5.529846 0 10.833252 2.1967316 14.743469 6.1069336c3.9102173 3.910202 6.1069336 9.213593 6.1069336 14.743454l0 0c0 11.51535 -9.335022 20.850388 -20.850403 20.850388l0 0c-11.515381 0 -20.850403 -9.335037 -20.850403 -20.850388z" fill-rule="nonzero"></path><path fill="#000000" d="m730.55176 244.25916l-4.875 -13.59375l2.984375 0l3.4375 10.0625l3.328125 -10.0625l2.921875 0l-4.875 13.59375l-2.921875 0z" fill-rule="nonzero"></path><path fill="#000000" fill-opacity="0.0" d="m170.88382 91.42774l-81.039375 123.30709" fill-rule="nonzero"></path><path stroke="#000000" stroke-width="3.0" stroke-linejoin="round" stroke-linecap="butt" d="m170.88382 91.42774l-71.153404 108.264885" fill-rule="evenodd"></path><path fill="#000000" stroke="#000000" stroke-width="3.0" stroke-linecap="butt" d="m95.58947 196.97113l-3.3363037 14.098663l11.618195 -8.65567z" fill-rule="evenodd"></path><path fill="#000000" fill-opacity="0.0" d="m401.23273 28.461779l-211.08661 61.322838" fill-rule="nonzero"></path><path stroke="#000000" stroke-width="3.0" stroke-linejoin="round" stroke-linecap="butt" d="m401.23273 28.461779l-193.80124 56.30126" fill-rule="evenodd"></path><path fill="#000000" stroke="#000000" stroke-width="3.0" stroke-linecap="butt" d="m206.0491 80.00457l-11.691391 8.556534l14.4561615 0.9603958z" fill-rule="evenodd"></path><path fill="#000000" fill-opacity="0.0" d="m400.73404 30.477526l217.07089 59.30709" fill-rule="nonzero"></path><path stroke="#000000" stroke-width="3.0" stroke-linejoin="round" stroke-linecap="butt" d="m400.73404 30.477526l199.70724 54.563087" fill-rule="evenodd"></path><path fill="#000000" stroke="#000000" stroke-width="3.0" stroke-linecap="butt" d="m599.1354 89.82062l14.438904 -1.1918793l-11.826965 -8.368126z" fill-rule="evenodd"></path><path fill="#000000" fill-opacity="0.0" d="m640.6038 92.42248l76.566895 130.17322" fill-rule="nonzero"></path><path stroke="#000000" stroke-width="3.0" stroke-linejoin="round" stroke-linecap="butt" d="m640.6038 92.42247l67.44104 114.65811" fill-rule="evenodd"></path><path fill="#000000" stroke="#000000" stroke-width="3.0" stroke-linecap="butt" d="m703.77374 209.59285l11.173523 9.22258l-2.6312256 -14.247086z" fill-rule="evenodd"></path><path fill="#000000" fill-opacity="0.0" d="m639.0918 93.42436l-108.78735 54.11023" fill-rule="nonzero"></path><path stroke="#000000" stroke-width="3.0" stroke-linejoin="round" stroke-linecap="butt" d="m639.0918 93.424355l-92.6709 46.094" fill-rule="evenodd"></path><path fill="#000000" stroke="#000000" stroke-width="3.0" stroke-linecap="butt" d="m544.2141 135.08168l-9.98291 10.499756l14.396423 -1.6264038z" fill-rule="evenodd"></path><path fill="#000000" fill-opacity="0.0" d="m173.89085 92.42699l100.66142 46.614166" fill-rule="nonzero"></path><path stroke="#000000" stroke-width="3.0" stroke-linejoin="round" stroke-linecap="butt" d="m173.89085 92.42698l84.32774 39.050392" fill-rule="evenodd"></path><path fill="#000000" stroke="#000000" stroke-width="3.0" stroke-linecap="butt" d="m256.13635 135.97385l14.436218 1.2243958l-10.271759 -10.217346z" fill-rule="evenodd"></path><path fill="#ffffff" d="m148.44533 89.784615l0 0c0 -11.515358 9.335037 -20.850395 20.850403 -20.850395l0 0c5.5298615 0 10.833237 2.1967316 14.743454 6.106941c3.910202 3.910202 6.1069336 9.213585 6.1069336 14.743454l0 0c0 11.51535 -9.335037 20.850395 -20.850388 20.850395l0 0c-11.515366 0 -20.850403 -9.335045 -20.850403 -20.850395z" fill-rule="nonzero"></path><path stroke="#000000" stroke-width="1.0" stroke-linejoin="round" stroke-linecap="butt" d="m148.44533 89.784615l0 0c0 -11.515358 9.335037 -20.850395 20.850403 -20.850395l0 0c5.5298615 0 10.833237 2.1967316 14.743454 6.106941c3.910202 3.910202 6.1069336 9.213585 6.1069336 14.743454l0 0c0 11.51535 -9.335037 20.850395 -20.850388 20.850395l0 0c-11.515366 0 -20.850403 -9.335045 -20.850403 -20.850395z" fill-rule="nonzero"></path><path fill="#000000" d="m167.93332 96.70461l-4.875 -13.59375l2.984375 0l3.4375 10.0625l3.328125 -10.0625l2.921875 0l-4.875 13.59375l-2.921875 0z" fill-rule="nonzero"></path><path fill="#ffffff" d="m617.80493 89.784615l0 0c0 -11.515358 9.335022 -20.850395 20.850403 -20.850395l0 0c5.529846 0 10.833191 2.1967316 14.743408 6.106941c3.9102173 3.910202 6.1069336 9.213585 6.1069336 14.743454l0 0c0 11.51535 -9.335022 20.850395 -20.850342 20.850395l0 0c-11.515381 0 -20.850403 -9.335045 -20.850403 -20.850395z" fill-rule="nonzero"></path><path stroke="#000000" stroke-width="1.0" stroke-linejoin="round" stroke-linecap="butt" d="m617.80493 89.784615l0 0c0 -11.515358 9.335022 -20.850395 20.850403 -20.850395l0 0c5.529846 0 10.833191 2.1967316 14.743408 6.106941c3.9102173 3.910202 6.1069336 9.213585 6.1069336 14.743454l0 0c0 11.51535 -9.335022 20.850395 -20.850342 20.850395l0 0c-11.515381 0 -20.850403 -9.335045 -20.850403 -20.850395z" fill-rule="nonzero"></path><path fill="#000000" d="m637.2929 96.70461l-4.875 -13.59375l2.984375 0l3.4375 10.0625l3.328125 -10.0625l2.921875 0l-4.875 13.59375l-2.921875 0z" fill-rule="nonzero"></path><path fill="#ffffff" d="m378.9624 27.834482l0 0c0 -11.515356 9.335022 -20.850395 20.850372 -20.850395l0 0c5.5298767 0 10.833252 2.196732 14.743469 6.106939c3.9102173 3.9102077 6.1069336 9.213587 6.1069336 14.743456l0 0c0 11.515352 -9.335022 20.850393 -20.850403 20.850393l0 0c-11.51535 0 -20.850372 -9.335041 -20.850372 -20.850393z" fill-rule="nonzero"></path><path stroke="#000000" stroke-width="1.0" stroke-linejoin="round" stroke-linecap="butt" d="m378.9624 27.834482l0 0c0 -11.515356 9.335022 -20.850395 20.850372 -20.850395l0 0c5.5298767 0 10.833252 2.196732 14.743469 6.106939c3.9102173 3.9102077 6.1069336 9.213587 6.1069336 14.743456l0 0c0 11.515352 -9.335022 20.850393 -20.850403 20.850393l0 0c-11.51535 0 -20.850372 -9.335041 -20.850372 -20.850393z" fill-rule="nonzero"></path><path fill="#000000" d="m398.45038 34.75448l-4.875 -13.59375l2.984375 0l3.4375 10.0625l3.328125 -10.0625l2.921875 0l-4.875 13.59375l-2.921875 0z" fill-rule="nonzero"></path></g></svg>

