<?xml version="1.0" encoding="UTF-8" standalone="no"?>
<!-- Created with Inkscape (http://www.inkscape.org/) -->

<svg
   xmlns:dc="http://purl.org/dc/elements/1.1/"
   xmlns:cc="http://creativecommons.org/ns#"
   xmlns:rdf="http://www.w3.org/1999/02/22-rdf-syntax-ns#"
   xmlns:svg="http://www.w3.org/2000/svg"
   xmlns="http://www.w3.org/2000/svg"
   xmlns:xlink="http://www.w3.org/1999/xlink"
   xmlns:sodipodi="http://sodipodi.sourceforge.net/DTD/sodipodi-0.dtd"
   xmlns:inkscape="http://www.inkscape.org/namespaces/inkscape"
   version="1.1"
   width="100%"
   height="100%"
   viewBox="0 0 1024 768"
   id="svg5442"
   inkscape:version="0.48.3.1 r9886"
   sodipodi:docname="blocky.svg">
  <sodipodi:namedview
     pagecolor="#ffffff"
     bordercolor="#666666"
     borderopacity="1"
     objecttolerance="10"
     gridtolerance="10"
     guidetolerance="10"
     inkscape:pageopacity="0"
     inkscape:pageshadow="2"
     inkscape:window-width="1918"
     inkscape:window-height="1054"
     id="namedview3014"
     showgrid="false"
     inkscape:zoom="25.337993"
     inkscape:cx="0.96042242"
     inkscape:cy="290.6047"
     inkscape:window-x="0"
     inkscape:window-y="24"
     inkscape:window-maximized="0"
     inkscape:current-layer="layer1"
     showguides="true"
     inkscape:guide-bbox="true">
    <sodipodi:guide
       orientation="1,0"
       position="2.2883721,298.35349"
       id="guide3797" />
    <sodipodi:guide
       orientation="1,0"
       position="28.493023,298.54884"
       id="guide3799" />
    <sodipodi:guide
       orientation="0,1"
       position="27.781395,287.52558"
       id="guide3801" />
  </sodipodi:namedview>
  <defs
     id="defs5444">
    <linearGradient
       id="linearGradient4894">
      <stop
         id="stop4896"
         style="stop-color:#7f6565;stop-opacity:1"
         offset="0" />
      <stop
         id="stop4898"
         style="stop-color:#392626;stop-opacity:1"
         offset="1" />
    </linearGradient>
    <linearGradient
       id="linearGradient4924">
      <stop
         id="stop5440"
         style="stop-color:#4f2521;stop-opacity:1"
         offset="0" />
      <stop
         id="stop4928"
         style="stop-color:#338333;stop-opacity:1"
         offset="1" />
    </linearGradient>
    <linearGradient
       x1="252.12766"
       y1="605.31915"
       x2="247.87233"
       y2="208.51062"
       id="linearGradient4839"
       xlink:href="#linearGradient4924"
       gradientUnits="userSpaceOnUse"
       gradientTransform="matrix(1.2835854,0,0,1,0.64745998,166.2276)" />
    <linearGradient
       x1="186.20399"
       y1="345.56934"
       x2="381.92273"
       y2="615.10077"
       id="linearGradient4873"
       xlink:href="#linearGradient4894"
       gradientUnits="userSpaceOnUse"
       gradientTransform="matrix(0.25467235,0,0,0.25644276,-10.766548,68.951446)" />
    <linearGradient
       x1="186.20399"
       y1="345.56934"
       x2="381.92273"
       y2="615.10077"
       id="linearGradient4889"
       xlink:href="#linearGradient4894"
       gradientUnits="userSpaceOnUse"
       gradientTransform="matrix(0.25467235,0,0,0.25644276,283.97029,293.95145)" />
    <linearGradient
       x1="252.12766"
       y1="605.31915"
       x2="247.87233"
       y2="208.51062"
       id="linearGradient3137"
       xlink:href="#linearGradient4924"
       gradientUnits="userSpaceOnUse"
       gradientTransform="matrix(1.2835854,0,0,1,0.64745998,166.2276)" />
    <linearGradient
       x1="252.12766"
       y1="605.31915"
       x2="247.87233"
       y2="208.51062"
       id="linearGradient3137-3"
       xlink:href="#linearGradient4924-0"
       gradientUnits="userSpaceOnUse"
       gradientTransform="matrix(1.2835854,0,0,1,0.64745998,166.2276)" />
    <linearGradient
       id="linearGradient4924-0">
      <stop
         id="stop5440-1"
         style="stop-color:#4f2521;stop-opacity:1"
         offset="0" />
      <stop
         id="stop4928-2"
         style="stop-color:#338333;stop-opacity:1"
         offset="1" />
    </linearGradient>
    <linearGradient
       y2="208.51062"
       x2="247.87233"
       y1="605.31915"
       x1="252.12766"
       gradientTransform="matrix(1.2835854,0,0,1,2.3098983,78.664453)"
       gradientUnits="userSpaceOnUse"
       id="linearGradient3058"
       xlink:href="#linearGradient4924-0"
       inkscape:collect="always" />
    <linearGradient
       inkscape:collect="always"
       xlink:href="#linearGradient4924-0"
       id="linearGradient3155"
       gradientUnits="userSpaceOnUse"
       gradientTransform="matrix(1.2835854,0,0,1,1.74342,163.54806)"
       x1="252.12766"
       y1="605.31915"
       x2="247.87233"
       y2="208.51062" />
  </defs>
  <metadata
     id="metadata5447">
    <rdf:RDF>
      <cc:Work
         rdf:about="">
        <dc:format>image/svg+xml</dc:format>
        <dc:type
           rdf:resource="http://purl.org/dc/dcmitype/StillImage" />
        <dc:title />
      </cc:Work>
    </rdf:RDF>
  </metadata>
  <g
     inkscape:groupmode="layer"
     id="layer1"
     inkscape:label="Layer1">
    <path
       inkscape:connector-curvature="0"
       d="m 1.59998,480.67018 135.11096,32.72292 121.64836,-52.61816 90.01616,166.2308 177.53604,-73.30952 70.75812,-17.76415 86.38372,-109.6609 192.87504,23.17132 151.61242,-71.0121 2.1412,386.98011 L 0,768 z"
       id="ground-skeleton"
       style="fill:url(#linearGradient3155);fill-opacity:1;stroke:#000000;stroke-width:1.13295424px;stroke-linecap:butt;stroke-linejoin:miter;stroke-opacity:1" />
    <g
       transform="matrix(0.16354665,0,0,0.17294153,643.76722,65.683747)"
       id="snake">
      <path
         inkscape:connector-curvature="0"
         d="M 369.40693,457.13023 C 343.45846,398.2563 280.47783,321.77751 118.76428,193.95883 418.08327,341.75668 737.89259,499.0248 737.89259,499.0248 c 0,0 -224.17779,-49.19018 -343.12803,-27.09185 z"
         id="path3770"
         style="fill:#c400cd;fill-opacity:1;stroke:#000000;stroke-width:3;stroke-linecap:butt;stroke-linejoin:miter;stroke-opacity:1" />
      <g
         transform="translate(-39.306358,24.855491)"
         id="g3988"
         style="stroke:#000000;stroke-width:3;stroke-opacity:1">
        <path
           inkscape:connector-curvature="0"
           d="m -87.644779,606.22321 a 43.629345,29.53668 0 1 1 -87.258691,0 43.629345,29.53668 0 1 1 87.258691,0 z"
           transform="matrix(0.70710678,-0.70710679,0.70710679,0.70710678,-408.73234,-82.896217)"
           id="path3990"
           style="fill:#ffffff;fill-opacity:1;stroke:#000000;stroke-width:3;stroke-linecap:butt;stroke-linejoin:miter;stroke-opacity:1" />
        <path
           inkscape:connector-curvature="0"
           d="M 58.562409,479.98343 C 74.636675,459.32822 93.172749,432.2897 95.93017,413.27112 98.687588,394.25255 91.634674,358.94769 59.022885,344.34816 20.969383,333.8184 -28.256972,376.94496 -42.551153,407.84758"
           id="path3992"
           style="fill:none;stroke:#000000;stroke-width:3;stroke-linecap:butt;stroke-linejoin:miter;stroke-opacity:1" />
        <path
           inkscape:connector-curvature="0"
           d="m -90.938914,442.32357 c 12.74131,15.05792 12.74131,15.05792 12.74131,15.05792"
           id="path3994"
           style="fill:none;stroke:#000000;stroke-width:3;stroke-linecap:butt;stroke-linejoin:miter;stroke-opacity:1" />
      </g>
      <path
         inkscape:connector-curvature="0"
         d="M -0.83232693,600.93431 C -14.72122,585.19357 -39.637889,509.85955 49.07407,456.99181 c 71.5406,-42.6345 101.07573,-9.03385 120.78007,17.00262 55.69831,-44.91411 127.92399,-82.24386 205.14586,-73.4841 35.94416,4.07737 82.1662,34.27483 87.97852,77.06972 8.54761,62.93423 -13.04855,83.16215 -44.53003,116.49549 -45.98224,48.68709 -72.27669,57.74976 -111.57796,113.90445 -36.04005,51.49497 -41.77795,81.16262 -41.6122,120.23809 0.35947,84.74463 60.71428,173.86402 59.78836,173.86402 -0.51576,0 -56.42937,-30.06459 -88.07493,-83.82623 -25.16661,-42.75476 -27.881,-107.60064 -26.17189,-133.23729 4.62964,-69.44445 30.75787,-95.98506 68.87644,-142.88048 33.89389,-41.69799 112.70676,-117.99838 88.78774,-150.80144 -24.19049,-33.17536 -67.84502,-33.99292 -111.0619,-9.47035 -34.94478,19.82873 -39.84896,23.82441 -56.71963,36.86244 40.09471,53.49212 -28.60401,102.79241 -44.5311,115.69939 C 69.469378,704.67347 23.360256,639.81353 9.1522195,617.30991 35.997716,613.30342 77.159302,607.81112 77.159302,607.81112 l -3.839974,-23.64066 40.569562,8.93246 -8.33333,-39.81481 48.80174,8.60567 -43.24619,-78.05012 6.48148,48.14816 -37.037034,-11.11112 10.185185,47.22222 -37.962964,-2.77777 1.101537,27.04115 z"
         id="path2989"
         style="fill:#007700;fill-opacity:1;stroke:#000000;stroke-width:3;stroke-linecap:butt;stroke-linejoin:miter;stroke-opacity:1" />
      <path
         inkscape:connector-curvature="0"
         d="m 32.773109,477.57227 c 10.560982,23.57483 37.656144,29.23007 57.983194,0"
         id="path2991"
         style="fill:none;stroke:#000000;stroke-width:3;stroke-linecap:butt;stroke-linejoin:miter;stroke-opacity:1" />
      <g
         id="g3983"
         style="stroke:#000000;stroke-width:3;stroke-opacity:1">
        <path
           inkscape:connector-curvature="0"
           d="m -87.644779,606.22321 a 43.629345,29.53668 0 1 1 -87.258691,0 43.629345,29.53668 0 1 1 87.258691,0 z"
           transform="matrix(0.70710678,-0.70710679,0.70710679,0.70710678,-408.73234,-82.896217)"
           id="path3981"
           style="fill:#ffffff;fill-opacity:1;stroke:#000000;stroke-width:3;stroke-linecap:butt;stroke-linejoin:miter;stroke-opacity:1" />
        <path
           inkscape:connector-curvature="0"
           d="M 58.562409,479.98343 C 74.636675,459.32822 93.172749,432.2897 95.93017,413.27112 98.687588,394.25255 91.634674,358.94769 59.022885,344.34816 20.969383,333.8184 -28.256972,376.94496 -42.551153,407.84758"
           id="path2993"
           style="fill:none;stroke:#000000;stroke-width:3;stroke-linecap:butt;stroke-linejoin:miter;stroke-opacity:1" />
        <path
           inkscape:connector-curvature="0"
           d="m -90.938914,442.32357 c 12.74131,15.05792 12.74131,15.05792 12.74131,15.05792"
           id="path3979"
           style="fill:none;stroke:#000000;stroke-width:3;stroke-linecap:butt;stroke-linejoin:miter;stroke-opacity:1" />
      </g>
      <path
         inkscape:connector-curvature="0"
         d="M 387.86127,431.55293 C 378.03467,367.96912 336.99422,277.7957 213.87283,112.47779 464.73988,332.709 732.94798,567.39108 732.94798,567.39108 c 0,0 -203.80777,-105.53554 -324.42434,-114.97678 z"
         id="path3000"
         style="fill:#c400cd;fill-opacity:1;stroke:#000000;stroke-width:3;stroke-linecap:butt;stroke-linejoin:miter;stroke-opacity:1" />
    </g>
    <path
       style="fill:none;stroke:#000000;stroke-width:3;stroke-opacity:1;stroke-miterlimit:4;stroke-dasharray:none"
       d="m 0.49835836,475.46297 7.53335584,4.43256 14.2912168,10e-6 7.505658,-4.93489 z"
       id="block"
       inkscape:connector-curvature="0"
       sodipodi:nodetypes="ccccc"
       inkscape:label="#block" />
  </g>
</svg>
