<?xml version="1.0" encoding="UTF-8" standalone="no"?>
<!-- Created with Inkscape (http://www.inkscape.org/) -->

<svg
   xmlns:dc="http://purl.org/dc/elements/1.1/"
   xmlns:cc="http://creativecommons.org/ns#"
   xmlns:rdf="http://www.w3.org/1999/02/22-rdf-syntax-ns#"
   xmlns:svg="http://www.w3.org/2000/svg"
   xmlns="http://www.w3.org/2000/svg"
   xmlns:sodipodi="http://sodipodi.sourceforge.net/DTD/sodipodi-0.dtd"
   xmlns:inkscape="http://www.inkscape.org/namespaces/inkscape"
   width="500"
   height="400"
   id="svg2995"
   version="1.1"
   inkscape:version="0.48.2 r9819"
   sodipodi:docname="ttt.svg">
  <defs
     id="defs2997" />
  <sodipodi:namedview
     id="base"
     pagecolor="#ffffff"
     bordercolor="#666666"
     borderopacity="1.0"
     inkscape:pageopacity="0.0"
     inkscape:pageshadow="2"
     inkscape:zoom="1.01"
     inkscape:cx="185.14851"
     inkscape:cy="73.177408"
     inkscape:document-units="px"
     inkscape:current-layer="layer1"
     showgrid="false"
     inkscape:window-width="1602"
     inkscape:window-height="1228"
     inkscape:window-x="2134"
     inkscape:window-y="184"
     inkscape:window-maximized="0" />
  <metadata
     id="metadata3000">
    <rdf:RDF>
      <cc:Work
         rdf:about="">
        <dc:format>image/svg+xml</dc:format>
        <dc:type
           rdf:resource="http://purl.org/dc/dcmitype/StillImage" />
        <dc:title />
      </cc:Work>
    </rdf:RDF>
  </metadata>
  <g
     inkscape:label="Layer 1"
     inkscape:groupmode="layer"
     id="layer1"
     transform="translate(0,-652.36218)">
    <path
       style="fill:#0000ff;stroke:#000000;stroke-width:4;stroke-linecap:butt;stroke-linejoin:miter;stroke-opacity:1"
       d="m 16.190209,778.32788 c 97.183101,0 194.366201,0 291.549301,0 m -291.549301,91.5493 c 97.183101,0 194.366201,0 291.549301,0 m -100,-191.5493 c 0,97.1831 0,194.3662 0,291.5493 m -91.5493,-291.5493 c 0,97.1831 0,194.3662 0,291.5493"
       id="board"
       inkscape:connector-curvature="0" />
    <path
       style="fill:#008000;stroke:#ff0000;stroke-width:4;stroke-linecap:round;stroke-linejoin:round;stroke-opacity:1"
       d="m -83.079374,743.85967 c 18.976887,-18.97689 37.953774,-37.95378 56.930691,-56.93064 m -56.930691,0 c 18.976917,18.97686 37.953804,37.95375 56.930692,56.93064"
       id="X1"
       inkscape:connector-curvature="0" />
    <path
       style="fill:none;stroke:#00ff00;stroke-width:4;stroke-linecap:round;stroke-linejoin:round;stroke-opacity:1"
       d="m -16.728433,719.21118 c 1.767569,28.75742 -40.764252,43.55653 -58.21584,21.23024 -18.965943,-18.52074 -1.927837,-54.75357 24.068716,-53.51229 17.609327,-0.79055 34.635116,14.29931 34.147124,32.28205 z"
       id="O1"
       inkscape:connector-curvature="0" />
    <path
       style="fill:#008000;stroke:#ff0000;stroke-width:4;stroke-linecap:round;stroke-linejoin:round;stroke-opacity:1"
       d="m -83.079374,743.85968 c 18.976887,-18.97689 37.953777,-37.95378 56.930686,-56.93065 m -56.930686,0 c 18.976912,18.97687 37.953802,37.95376 56.930686,56.93065"
       id="X2"
       inkscape:connector-curvature="0" />
    <path
       style="fill:#008000;stroke:#ff0000;stroke-width:4;stroke-linecap:round;stroke-linejoin:round;stroke-opacity:1"
       d="m -83.079374,743.85968 c 18.976889,-18.97689 37.953779,-37.95378 56.930689,-56.93065 m -56.930689,0 c 18.976914,18.97687 37.953804,37.95376 56.930689,56.93065"
       id="X3"
       inkscape:connector-curvature="0" />
    <path
       style="fill:#008000;stroke:#ff0000;stroke-width:4;stroke-linecap:round;stroke-linejoin:round;stroke-opacity:1"
       d="m -83.079374,743.85968 c 18.976892,-18.97689 37.953782,-37.95378 56.930693,-56.93065 m -56.930693,0 c 18.976917,18.97686 37.953807,37.95375 56.930693,56.93065"
       id="X4"
       inkscape:connector-curvature="0" />
    <path
       style="fill:#008000;stroke:#ff0000;stroke-width:4;stroke-linecap:round;stroke-linejoin:round;stroke-opacity:1"
       d="m -83.079374,743.85968 c 18.976888,-18.97689 37.953797,-37.95376 56.930687,-56.93065 m -56.930687,0 c 18.976893,18.97689 37.953802,37.95376 56.930687,56.93065"
       id="X5"
       inkscape:connector-curvature="0" />
    <path
       style="fill:none;stroke:#00ff00;stroke-width:4;stroke-linecap:round;stroke-linejoin:round;stroke-opacity:1"
       d="m -16.728431,719.21118 c 1.767567,28.75743 -40.764251,43.55652 -58.215847,21.23025 -18.965955,-18.52072 -1.927824,-54.75358 24.068717,-53.5123 17.609325,-0.79054 34.63512,14.29931 34.14713,32.28205 z"
       id="O2"
       inkscape:connector-curvature="0" />
    <path
       style="fill:none;stroke:#00ff00;stroke-width:4;stroke-linecap:round;stroke-linejoin:round;stroke-opacity:1"
       d="m -16.728428,719.21118 c 1.767569,28.75743 -40.76426,43.55653 -58.21585,21.23024 -18.965932,-18.52075 -1.927831,-54.75356 24.06872,-53.51229 17.609325,-0.79054 34.63512,14.29931 34.14713,32.28205 z"
       id="O3"
       inkscape:connector-curvature="0" />
    <path
       style="fill:none;stroke:#00ff00;stroke-width:4;stroke-linecap:round;stroke-linejoin:round;stroke-opacity:1"
       d="m -16.728433,719.21117 c 1.767568,28.75742 -40.76425,43.55652 -58.215845,21.23025 -18.965956,-18.52072 -1.927822,-54.75357 24.068715,-53.51229 17.609321,-0.79054 34.635118,14.2993 34.14713,32.28204 z"
       id="O4"
       inkscape:connector-curvature="0" />
    <path
       style="fill:none;stroke:#00ff00;stroke-width:4;stroke-linecap:round;stroke-linejoin:round;stroke-opacity:1"
       d="m -16.72843,719.21118 c 1.767567,28.75743 -40.764252,43.55652 -58.215848,21.23025 -18.965955,-18.52072 -1.927822,-54.75358 24.068718,-53.5123 17.609325,-0.79054 34.63512,14.29931 34.14713,32.28205 z"
       id="O5"
       inkscape:connector-curvature="0" />
    <path
       style="fill:none;stroke:none"
       d="m 16.831684,678.10475 c 32.343234,0 64.686468,0 97.029706,0 0,33.00331 0,66.00661 0,99.00991 -32.343238,0 -64.686472,0 -97.029706,0 0,-33.0033 0,-66.0066 0,-99.00991 z"
       id="spot0"
       inkscape:connector-curvature="0" />
    <path
       style="fill:none;stroke:none"
       d="m 112.87128,679.09485 c 32.34323,0 64.68646,0 97.0297,0 0,33.0033 0,66.0066 0,99.0099 -32.34324,0 -64.68647,0 -97.0297,0 0,-33.0033 0,-66.0066 0,-99.0099 z"
       id="spot1"
       inkscape:connector-curvature="0" />
    <path
       style="fill:none;stroke:none"
       d="m 209.90097,679.09485 c 32.34323,0 64.68647,0 97.0297,0 0,33.0033 0,66.0066 0,99.0099 -32.34323,0 -64.68647,0 -97.0297,0 0,-33.0033 0,-66.0066 0,-99.0099 z"
       id="spot2"
       inkscape:connector-curvature="0" />
    <path
       style="fill:none;stroke:none"
       d="m 208.91087,775.13446 c 32.34324,0 64.68647,0 97.0297,0 0,33.0033 0,66.0066 0,99.0099 -32.34323,0 -64.68646,0 -97.0297,0 0,-33.0033 0,-66.0066 0,-99.0099 z"
       id="spot5"
       inkscape:connector-curvature="0" />
    <path
       style="fill:none;stroke:none"
       d="m 112.87128,775.13446 c 32.34323,0 64.68646,0 97.0297,0 0,33.0033 0,66.0066 0,99.0099 -32.34324,0 -64.68647,0 -97.0297,0 0,-33.0033 0,-66.0066 0,-99.0099 z"
       id="spot4"
       inkscape:connector-curvature="0" />
    <path
       style="fill:none;stroke:none"
       d="m 16.831684,774.14435 c 32.343234,0 64.686468,0 97.029706,0 0,33.0033 0,66.0066 0,99.0099 -32.343238,0 -64.686472,0 -97.029706,0 0,-33.0033 0,-66.0066 0,-99.0099 z"
       id="spot3"
       inkscape:connector-curvature="0" />
    <path
       style="fill:none;stroke:none"
       d="m 18.811882,871.17407 c 32.343234,0 64.686468,0 97.029698,0 0,33.0033 0,66.0066 0,99.00991 -32.34323,0 -64.686464,0 -97.029698,0 0,-33.00331 0,-66.00661 0,-99.00991 z"
       id="spot6"
       inkscape:connector-curvature="0" />
    <path
       style="fill:none;stroke:none"
       d="m 114.85149,871.17407 c 32.34323,0 64.68646,0 97.0297,0 0,33.0033 0,66.0066 0,99.00991 -32.34324,0 -64.68647,0 -97.0297,0 0,-33.00331 0,-66.00661 0,-99.00991 z"
       id="spot7"
       inkscape:connector-curvature="0" />
    <path
       style="fill:none;stroke:none"
       d="m 209.90099,872.16418 c 32.34323,0 64.68646,0 97.0297,0 0,33.00331 0,66.00661 0,99.00991 -32.34324,0 -64.68647,0 -97.0297,0 0,-33.0033 0,-66.0066 0,-99.00991 z"
       id="spot8"
       inkscape:connector-curvature="0" />
  </g>
</svg>
