<?xml version="1.0" encoding="UTF-8" standalone="no"?>
<!-- Created with Inkscape (http://www.inkscape.org/) -->

<svg
   xmlns:dc="http://purl.org/dc/elements/1.1/"
   xmlns:cc="http://creativecommons.org/ns#"
   xmlns:rdf="http://www.w3.org/1999/02/22-rdf-syntax-ns#"
   xmlns:svg="http://www.w3.org/2000/svg"
   xmlns="http://www.w3.org/2000/svg"
   xmlns:xlink="http://www.w3.org/1999/xlink"
   xmlns:sodipodi="http://sodipodi.sourceforge.net/DTD/sodipodi-0.dtd"
   xmlns:inkscape="http://www.inkscape.org/namespaces/inkscape"
   width="500"
   height="400"
   id="svg2995"
   version="1.1"
   inkscape:version="0.48.2 r9819"
   sodipodi:docname="ttt.svg">
  <defs
     id="defs2997">
    <linearGradient
       inkscape:collect="always"
       xlink:href="#linearGradient2253"
       id="linearGradient1413"
       gradientUnits="userSpaceOnUse"
       gradientTransform="scale(1.104397,0.905471)"
       x1="10.390738"
       y1="5.3817744"
       x2="32.536823"
       y2="31.246054" />
    <linearGradient
       inkscape:collect="always"
       xlink:href="#linearGradient2752"
       id="linearGradient1411"
       gradientUnits="userSpaceOnUse"
       gradientTransform="scale(2.309851,0.432928)"
       x1="8.1134243"
       y1="88.509071"
       x2="8.1134233"
       y2="100.20015" />
    <linearGradient
       inkscape:collect="always"
       xlink:href="#linearGradient2752"
       id="linearGradient1409"
       gradientUnits="userSpaceOnUse"
       gradientTransform="scale(2.309851,0.432928)"
       x1="8.1134243"
       y1="88.509071"
       x2="8.1134233"
       y2="100.20015" />
    <linearGradient
       inkscape:collect="always"
       xlink:href="#linearGradient2985"
       id="linearGradient2991"
       gradientTransform="scale(1.492875,0.669848)"
       x1="-23.885700"
       y1="49.953003"
       x2="-23.885700"
       y2="44.878883"
       gradientUnits="userSpaceOnUse" />
    <linearGradient
       inkscape:collect="always"
       xlink:href="#linearGradient2245"
       id="linearGradient2981"
       gradientUnits="userSpaceOnUse"
       gradientTransform="scale(1.129863,0.885063)"
       x1="18.316999"
       y1="48.643234"
       x2="18.176752"
       y2="52.536461" />
    <linearGradient
       inkscape:collect="always"
       xlink:href="#linearGradient2253"
       id="linearGradient2979"
       gradientTransform="scale(1.104397,0.905471)"
       x1="10.390738"
       y1="5.3817744"
       x2="32.536823"
       y2="31.246054"
       gradientUnits="userSpaceOnUse" />
    <linearGradient
       inkscape:collect="always"
       xlink:href="#linearGradient2752"
       id="linearGradient2758"
       gradientTransform="scale(2.309851,0.432928)"
       x1="8.1134243"
       y1="88.509071"
       x2="8.1134233"
       y2="100.20015"
       gradientUnits="userSpaceOnUse" />
    <linearGradient
       inkscape:collect="always"
       xlink:href="#linearGradient2635"
       id="linearGradient2741"
       gradientUnits="userSpaceOnUse"
       gradientTransform="matrix(2.143634,0,0,0.466498,1,-0.508826)"
       x1="13.628710"
       y1="101.28460"
       x2="8.6485014"
       y2="74.098007" />
    <linearGradient
       inkscape:collect="always"
       xlink:href="#linearGradient2711"
       id="linearGradient2733"
       gradientUnits="userSpaceOnUse"
       x1="34.300991"
       y1="3.9384086"
       x2="35.520542"
       y2="3.8451097" />
    <linearGradient
       inkscape:collect="always"
       xlink:href="#linearGradient2711"
       id="linearGradient2729"
       gradientUnits="userSpaceOnUse"
       x1="34.300991"
       y1="3.9384086"
       x2="35.520542"
       y2="3.8451097" />
    <linearGradient
       inkscape:collect="always"
       xlink:href="#linearGradient2711"
       id="linearGradient2725"
       gradientUnits="userSpaceOnUse"
       x1="34.300991"
       y1="3.9384086"
       x2="35.520542"
       y2="3.8451097" />
    <linearGradient
       inkscape:collect="always"
       xlink:href="#linearGradient2711"
       id="linearGradient2721"
       gradientUnits="userSpaceOnUse"
       x1="34.300991"
       y1="3.9384086"
       x2="35.520542"
       y2="3.8451097" />
    <linearGradient
       inkscape:collect="always"
       xlink:href="#linearGradient2711"
       id="linearGradient2717"
       x1="34.300991"
       y1="3.9384086"
       x2="35.520542"
       y2="3.8451097"
       gradientUnits="userSpaceOnUse" />
    <linearGradient
       inkscape:collect="always"
       xlink:href="#linearGradient2701"
       id="linearGradient2707"
       gradientTransform="scale(1.816345,0.550556)"
       x1="12.206709"
       y1="53.535141"
       x2="12.127711"
       y2="64.892525"
       gradientUnits="userSpaceOnUse" />
    <linearGradient
       inkscape:collect="always"
       xlink:href="#linearGradient2683"
       id="linearGradient2689"
       gradientTransform="matrix(5.705159,0,0,0.17528,1,-0.679373)"
       x1="3.7069976"
       y1="171.29134"
       x2="3.7069974"
       y2="162.45061"
       gradientUnits="userSpaceOnUse" />
    <linearGradient
       inkscape:collect="always"
       xlink:href="#linearGradient2675"
       id="linearGradient2681"
       gradientTransform="matrix(1.174139,0,0,0.945431,0.721825,-1.331524)"
       x1="19.150396"
       y1="32.622238"
       x2="16.315819"
       y2="8.8666229"
       gradientUnits="userSpaceOnUse" />
    <linearGradient
       inkscape:collect="always"
       xlink:href="#linearGradient2667"
       id="linearGradient2673"
       gradientTransform="matrix(1.238977,0,0,0.895955,0.590553,-1.331524)"
       x1="11.492236"
       y1="1.6537577"
       x2="17.199417"
       y2="26.729263"
       gradientUnits="userSpaceOnUse" />
    <radialGradient
       inkscape:collect="always"
       xlink:href="#linearGradient2454"
       id="radialGradient2659"
       gradientUnits="userSpaceOnUse"
       gradientTransform="scale(1.925808,0.519262)"
       cx="12.575710"
       cy="67.501709"
       fx="12.575710"
       fy="67.501709"
       r="8.7662794" />
    <linearGradient
       inkscape:collect="always"
       xlink:href="#linearGradient2635"
       id="linearGradient2655"
       gradientUnits="userSpaceOnUse"
       gradientTransform="scale(2.143634,0.466498)"
       x1="13.628710"
       y1="101.28460"
       x2="8.6485014"
       y2="74.098007" />
    <linearGradient
       inkscape:collect="always"
       xlink:href="#linearGradient2623"
       id="linearGradient2653"
       gradientUnits="userSpaceOnUse"
       gradientTransform="scale(1.983556,0.504145)"
       x1="10.728384"
       y1="84.029198"
       x2="10.728384"
       y2="92.570930" />
    <radialGradient
       r="8.7662794"
       fy="67.501709"
       fx="12.575710"
       cy="67.501709"
       cx="12.575710"
       gradientTransform="scale(1.925808,0.519262)"
       gradientUnits="userSpaceOnUse"
       id="radialGradient2464"
       xlink:href="#linearGradient2454"
       inkscape:collect="always" />
    <radialGradient
       gradientUnits="userSpaceOnUse"
       r="8.7662794"
       fy="67.501709"
       fx="12.575710"
       cy="67.501709"
       cx="12.575710"
       gradientTransform="scale(1.925808,0.519262)"
       id="radialGradient2460"
       xlink:href="#linearGradient2454"
       inkscape:collect="always" />
    <linearGradient
       y2="-1.3221773"
       x2="19.994572"
       y1="30.078255"
       x1="21.356108"
       gradientTransform="matrix(1.027870,0.000000,0.000000,0.822296,1.523986,1.001198)"
       gradientUnits="userSpaceOnUse"
       id="linearGradient2445"
       xlink:href="#linearGradient2379"
       inkscape:collect="always" />
    <linearGradient
       gradientUnits="userSpaceOnUse"
       y2="55.200756"
       x2="34.974548"
       y1="13.004725"
       x1="17.698339"
       gradientTransform="matrix(1.108069,0,0,0.902471,1,1)"
       id="linearGradient2421"
       xlink:href="#linearGradient2415"
       inkscape:collect="always" />
    <linearGradient
       gradientUnits="userSpaceOnUse"
       y2="39.031910"
       x2="27.289009"
       y1="10.842293"
       x1="16.119127"
       gradientTransform="matrix(1.289166,0.000000,0.000000,0.922731,-0.789284,-0.503380)"
       id="linearGradient2334"
       xlink:href="#linearGradient2328"
       inkscape:collect="always" />
    <linearGradient
       gradientUnits="userSpaceOnUse"
       y2="53.734985"
       x2="24.418941"
       y1="9.3235140"
       x1="16.851954"
       gradientTransform="matrix(1.208393,0.000000,0.000000,0.984410,-0.789284,-0.503380)"
       id="linearGradient2313"
       xlink:href="#linearGradient2307"
       inkscape:collect="always" />
    <linearGradient
       gradientUnits="userSpaceOnUse"
       y2="33.339787"
       x2="34.784473"
       y1="7.2293582"
       x1="8.6116238"
       gradientTransform="matrix(1.129863,0,0,0.885063,-1.625,-1.304372)"
       id="linearGradient2251"
       xlink:href="#linearGradient2245"
       inkscape:collect="always" />
    <linearGradient
       id="linearGradient2245">
      <stop
         id="stop2247"
         offset="0.0000000"
         style="stop-color:#dde1d9;stop-opacity:1.0000000;" />
      <stop
         id="stop2249"
         offset="1.0000000"
         style="stop-color:#cacdc6;stop-opacity:1.0000000;" />
    </linearGradient>
    <linearGradient
       id="linearGradient2253">
      <stop
         id="stop2255"
         offset="0.0000000"
         style="stop-color:#8f8f8f;stop-opacity:1.0000000;" />
      <stop
         id="stop2257"
         offset="1.0000000"
         style="stop-color:#494949;stop-opacity:1.0000000;" />
    </linearGradient>
    <linearGradient
       id="linearGradient2307"
       inkscape:collect="always">
      <stop
         id="stop2309"
         offset="0"
         style="stop-color:#5a7aa4;stop-opacity:1;" />
      <stop
         id="stop2311"
         offset="1"
         style="stop-color:#5a7aa4;stop-opacity:0;" />
    </linearGradient>
    <linearGradient
       id="linearGradient2328"
       inkscape:collect="always">
      <stop
         id="stop2330"
         offset="0"
         style="stop-color:#ffffff;stop-opacity:1;" />
      <stop
         id="stop2332"
         offset="1"
         style="stop-color:#ffffff;stop-opacity:0;" />
    </linearGradient>
    <linearGradient
       id="linearGradient2379">
      <stop
         id="stop2381"
         offset="0.0000000"
         style="stop-color:#1a4876;stop-opacity:1.0000000;" />
      <stop
         id="stop2383"
         offset="1.0000000"
         style="stop-color:#3f54a3;stop-opacity:0.0000000;" />
    </linearGradient>
    <linearGradient
       id="linearGradient2415"
       inkscape:collect="always">
      <stop
         id="stop2417"
         offset="0"
         style="stop-color:#ffffff;stop-opacity:1;" />
      <stop
         id="stop2419"
         offset="1"
         style="stop-color:#ffffff;stop-opacity:0;" />
    </linearGradient>
    <linearGradient
       id="linearGradient2454"
       inkscape:collect="always">
      <stop
         id="stop2456"
         offset="0"
         style="stop-color:#000000;stop-opacity:1;" />
      <stop
         id="stop2458"
         offset="1"
         style="stop-color:#000000;stop-opacity:0;" />
    </linearGradient>
    <linearGradient
       id="linearGradient2623">
      <stop
         style="stop-color:#dfdfde;stop-opacity:1.0000000;"
         offset="0.0000000"
         id="stop2625" />
      <stop
         style="stop-color:#9d9f9a;stop-opacity:1.0000000;"
         offset="1.0000000"
         id="stop2627" />
    </linearGradient>
    <linearGradient
       inkscape:collect="always"
       id="linearGradient2635">
      <stop
         style="stop-color:#f9fff5;stop-opacity:1;"
         offset="0"
         id="stop2637" />
      <stop
         style="stop-color:#f9fff5;stop-opacity:0;"
         offset="1"
         id="stop2639" />
    </linearGradient>
    <linearGradient
       id="linearGradient2667">
      <stop
         style="stop-color:#ffffff;stop-opacity:1.0000000;"
         offset="0.0000000"
         id="stop2669" />
      <stop
         style="stop-color:#fcfcff;stop-opacity:0.0000000;"
         offset="1.0000000"
         id="stop2671" />
    </linearGradient>
    <linearGradient
       id="linearGradient2675">
      <stop
         style="stop-color:#5b5b97;stop-opacity:1.0000000;"
         offset="0.0000000"
         id="stop2677" />
      <stop
         style="stop-color:#1b1b43;stop-opacity:1.0000000;"
         offset="1.0000000"
         id="stop2679" />
    </linearGradient>
    <linearGradient
       inkscape:collect="always"
       id="linearGradient2683">
      <stop
         style="stop-color:#000000;stop-opacity:1;"
         offset="0"
         id="stop2685" />
      <stop
         style="stop-color:#000000;stop-opacity:0;"
         offset="1"
         id="stop2687" />
    </linearGradient>
    <linearGradient
       id="linearGradient2691">
      <stop
         style="stop-color:#868686;stop-opacity:1.0000000;"
         offset="0.0000000"
         id="stop2693" />
      <stop
         style="stop-color:#e9e9e9;stop-opacity:1.0000000;"
         offset="1.0000000"
         id="stop2695" />
    </linearGradient>
    <linearGradient
       id="linearGradient2701">
      <stop
         style="stop-color:#585956;stop-opacity:1.0000000;"
         offset="0.0000000"
         id="stop2703" />
      <stop
         style="stop-color:#bbbeb8;stop-opacity:1.0000000;"
         offset="1.0000000"
         id="stop2705" />
    </linearGradient>
    <linearGradient
       id="linearGradient2711">
      <stop
         style="stop-color:#909090;stop-opacity:1.0000000;"
         offset="0.0000000"
         id="stop2713" />
      <stop
         style="stop-color:#bebebe;stop-opacity:0.0000000;"
         offset="1.0000000"
         id="stop2715" />
    </linearGradient>
    <linearGradient
       id="linearGradient2752">
      <stop
         style="stop-color:#9d9d9d;stop-opacity:1;"
         offset="0"
         id="stop2754" />
      <stop
         style="stop-color:#b9b9b9;stop-opacity:1.0000000;"
         offset="1.0000000"
         id="stop2756" />
    </linearGradient>
    <linearGradient
       inkscape:collect="always"
       id="linearGradient2985">
      <stop
         style="stop-color:#d8dfd6;stop-opacity:1;"
         offset="0"
         id="stop2987" />
      <stop
         style="stop-color:#d8dfd6;stop-opacity:0;"
         offset="1"
         id="stop2989" />
    </linearGradient>
  </defs>
  <sodipodi:namedview
     id="base"
     pagecolor="#ffffff"
     bordercolor="#666666"
     borderopacity="1.0"
     inkscape:pageopacity="0.0"
     inkscape:pageshadow="2"
     inkscape:zoom="1.01"
     inkscape:cx="183.70327"
     inkscape:cy="73.177408"
     inkscape:document-units="px"
     inkscape:current-layer="layer1"
     showgrid="false"
     inkscape:window-width="1602"
     inkscape:window-height="1228"
     inkscape:window-x="2273"
     inkscape:window-y="177"
     inkscape:window-maximized="0" />
  <metadata
     id="metadata3000">
    <rdf:RDF>
      <cc:Work
         rdf:about="">
        <dc:format>image/svg+xml</dc:format>
        <dc:type
           rdf:resource="http://purl.org/dc/dcmitype/StillImage" />
        <dc:title />
      </cc:Work>
    </rdf:RDF>
  </metadata>
  <g
     inkscape:label="Layer 1"
     inkscape:groupmode="layer"
     id="layer1"
     transform="translate(0,-652.36218)">
    <text
       xml:space="preserve"
       style="font-size:71.87839508000000400px;font-style:normal;font-weight:normal;line-height:125%;letter-spacing:0px;word-spacing:0px;fill:#e6e6e6;fill-opacity:1;stroke:none;font-family:Sans"
       x="31.642536"
       y="907.98193"
       id="text3861"
       sodipodi:linespacing="125%"
       transform="scale(1.1819546,0.84605621)"
       onclick=" lazpEvent('click0')"><tspan
         sodipodi:role="line"
         id="tspan3863"
         x="31.642536"
         y="907.98193"
         style="font-size:129.38110352000001000px;font-style:normal;font-variant:normal;font-weight:bold;font-stretch:normal;fill:#e6e6e6;stroke:none;font-family:Poplar Std;-inkscape-font-specification:Poplar Std Bold">0</tspan></text>
    <text
       transform="scale(1.1819546,0.84605619)"
       sodipodi:linespacing="125%"
       id="text3865"
       y="906.81171"
       x="121.27424"
       style="font-size:71.87839508px;font-style:normal;font-weight:normal;line-height:125%;letter-spacing:0px;word-spacing:0px;fill:#e6e6e6;fill-opacity:1;stroke:none;font-family:Sans"
       xml:space="preserve"
       onclick=" lazpEvent('click1')"><tspan
         style="font-size:129.38110352px;font-style:normal;font-variant:normal;font-weight:bold;font-stretch:normal;fill:#e6e6e6;stroke:none;font-family:Poplar Std;-inkscape-font-specification:Poplar Std Bold"
         y="906.81171"
         x="121.27424"
         sodipodi:role="line"
         id="tspan3869">1</tspan></text>
    <text
       xml:space="preserve"
       style="font-size:71.87839508px;font-style:normal;font-weight:normal;line-height:125%;letter-spacing:0px;word-spacing:0px;fill:#e6e6e6;fill-opacity:1;stroke:none;font-family:Sans"
       x="192.47699"
       y="905.64148"
       id="text3873"
       sodipodi:linespacing="125%"
       transform="scale(1.1819546,0.84605619)"
       onclick=" lazpEvent('click2')"><tspan
         id="tspan3875"
         sodipodi:role="line"
         x="192.47699"
         y="905.64148"
         style="font-size:129.38110352px;font-style:normal;font-variant:normal;font-weight:bold;font-stretch:normal;fill:#e6e6e6;stroke:none;font-family:Poplar Std;-inkscape-font-specification:Poplar Std Bold">2</tspan></text>
    <text
       transform="scale(1.1819546,0.84605619)"
       sodipodi:linespacing="125%"
       id="text3877"
       y="1021.4965"
       x="29.967188"
       style="font-size:71.87839508px;font-style:normal;font-weight:normal;line-height:125%;letter-spacing:0px;word-spacing:0px;fill:#e6e6e6;fill-opacity:1;stroke:none;font-family:Sans"
       xml:space="preserve"
       onclick=" lazpEvent('click3')"><tspan
         style="font-size:129.38110352px;font-style:normal;font-variant:normal;font-weight:bold;font-stretch:normal;fill:#e6e6e6;stroke:none;font-family:Poplar Std;-inkscape-font-specification:Poplar Std Bold"
         y="1021.4965"
         x="29.967188"
         sodipodi:role="line"
         id="tspan3879">3</tspan></text>
    <text
       xml:space="preserve"
       style="font-size:71.87839508px;font-style:normal;font-weight:normal;line-height:125%;letter-spacing:0px;word-spacing:0px;fill:#e6e6e6;fill-opacity:1;stroke:none;font-family:Sans"
       x="109.54673"
       y="1020.3263"
       id="text3881"
       sodipodi:linespacing="125%"
       transform="scale(1.1819546,0.84605619)"
       onclick=" lazpEvent('click4')"><tspan
         id="tspan3883"
         sodipodi:role="line"
         x="109.54673"
         y="1020.3263"
         style="font-size:129.38110352px;font-style:normal;font-variant:normal;font-weight:bold;font-stretch:normal;fill:#e6e6e6;stroke:none;font-family:Poplar Std;-inkscape-font-specification:Poplar Std Bold">4</tspan></text>
    <text
       transform="scale(1.1819546,0.84605619)"
       sodipodi:linespacing="125%"
       id="text3885"
       y="1021.4965"
       x="189.96396"
       style="font-size:71.87839508px;font-style:normal;font-weight:normal;line-height:125%;letter-spacing:0px;word-spacing:0px;fill:#e6e6e6;fill-opacity:1;stroke:none;font-family:Sans"
       xml:space="preserve"
       onclick=" lazpEvent('click5')"><tspan
         style="font-size:129.38110352px;font-style:normal;font-variant:normal;font-weight:bold;font-stretch:normal;fill:#e6e6e6;stroke:none;font-family:Poplar Std;-inkscape-font-specification:Poplar Std Bold"
         y="1021.4965"
         x="189.96396"
         sodipodi:role="line"
         id="tspan3887">5</tspan></text>
    <text
       xml:space="preserve"
       style="font-size:71.87839508px;font-style:normal;font-weight:normal;line-height:125%;letter-spacing:0px;word-spacing:0px;fill:#e6e6e6;fill-opacity:1;stroke:none;font-family:Sans"
       x="28.291836"
       y="1138.5217"
       id="text3889"
       sodipodi:linespacing="125%"
       transform="scale(1.1819546,0.84605619)"
       onclick=" lazpEvent('click6')"><tspan
         id="tspan3891"
         sodipodi:role="line"
         x="28.291836"
         y="1138.5217"
         style="font-size:129.38110352px;font-style:normal;font-variant:normal;font-weight:bold;font-stretch:normal;fill:#e6e6e6;stroke:none;font-family:Poplar Std;-inkscape-font-specification:Poplar Std Bold">6</tspan></text>
    <text
       transform="scale(1.1819546,0.84605619)"
       sodipodi:linespacing="125%"
       id="text3893"
       y="1139.6919"
       x="115.4105"
       style="font-size:71.87839508px;font-style:normal;font-weight:normal;line-height:125%;letter-spacing:0px;word-spacing:0px;fill:#e6e6e6;fill-opacity:1;stroke:none;font-family:Sans"
       xml:space="preserve"
       onclick=" lazpEvent('click7')"><tspan
         style="font-size:129.38110352px;font-style:normal;font-variant:normal;font-weight:bold;font-stretch:normal;fill:#e6e6e6;stroke:none;font-family:Poplar Std;-inkscape-font-specification:Poplar Std Bold"
         y="1139.6919"
         x="115.4105"
         sodipodi:role="line"
         id="tspan3895">7</tspan></text>
    <text
       xml:space="preserve"
       style="font-size:71.87839508px;font-style:normal;font-weight:normal;line-height:125%;letter-spacing:0px;word-spacing:0px;fill:#e6e6e6;fill-opacity:1;stroke:none;font-family:Sans"
       x="193.31468"
       y="1139.6919"
       id="text3897"
       sodipodi:linespacing="125%"
       transform="scale(1.1819546,0.84605619)"
       onclick=" lazpEvent('click8')"><tspan
         id="tspan3899"
         sodipodi:role="line"
         x="193.31468"
         y="1139.6919"
         style="font-size:129.38110352px;font-style:normal;font-variant:normal;font-weight:bold;font-stretch:normal;fill:#e6e6e6;stroke:none;font-family:Poplar Std;-inkscape-font-specification:Poplar Std Bold">8</tspan></text>
    <path
       id="board"
       style="fill:#0000ff;stroke:#000000;stroke-width:4;stroke-linecap:butt;stroke-linejoin:miter;stroke-opacity:1"
       d="m 118.1704,678.32788 c 0,97.1831 0,194.3662 0,291.5493 m 91.5493,-291.5493 c 0,97.1831 0,194.3662 0,291.5493 M 19.160504,872.84748 c 97.183096,0 194.366196,0 291.549296,0 m -292.539396,-98.48 c 97.183096,0 194.366196,0 291.549296,0"
       inkscape:connector-curvature="0" />
    <path
       style="fill:none;stroke:none"
       d="m 16.831684,678.10475 c 32.343234,0 64.686468,0 97.029706,0 0,33.00331 0,66.00661 0,99.00991 -32.343238,0 -64.686472,0 -97.029706,0 0,-33.0033 0,-66.0066 0,-99.00991 z"
       id="spot0"
       inkscape:connector-curvature="0" />
    <path
       style="fill:none;stroke:none"
       d="m 112.87128,679.09485 c 32.34323,0 64.68646,0 97.0297,0 0,33.0033 0,66.0066 0,99.0099 -32.34324,0 -64.68647,0 -97.0297,0 0,-33.0033 0,-66.0066 0,-99.0099 z"
       id="spot1"
       inkscape:connector-curvature="0" />
    <path
       style="fill:none;stroke:none"
       d="m 209.90097,679.09485 c 32.34323,0 64.68647,0 97.0297,0 0,33.0033 0,66.0066 0,99.0099 -32.34323,0 -64.68647,0 -97.0297,0 0,-33.0033 0,-66.0066 0,-99.0099 z"
       id="spot2"
       inkscape:connector-curvature="0" />
    <path
       style="fill:none;stroke:none"
       d="m 208.91087,775.13446 c 32.34324,0 64.68647,0 97.0297,0 0,33.0033 0,66.0066 0,99.0099 -32.34323,0 -64.68646,0 -97.0297,0 0,-33.0033 0,-66.0066 0,-99.0099 z"
       id="spot5"
       inkscape:connector-curvature="0" />
    <path
       style="fill:none;stroke:none"
       d="m 112.87128,775.13446 c 32.34323,0 64.68646,0 97.0297,0 0,33.0033 0,66.0066 0,99.0099 -32.34324,0 -64.68647,0 -97.0297,0 0,-33.0033 0,-66.0066 0,-99.0099 z"
       id="spot4"
       inkscape:connector-curvature="0" />
    <path
       style="fill:none;stroke:none"
       d="m 16.831684,774.14435 c 32.343234,0 64.686468,0 97.029706,0 0,33.0033 0,66.0066 0,99.0099 -32.343238,0 -64.686472,0 -97.029706,0 0,-33.0033 0,-66.0066 0,-99.0099 z"
       id="spot3"
       inkscape:connector-curvature="0" />
    <path
       style="fill:none;stroke:none"
       d="m 18.811882,871.17407 c 32.343234,0 64.686468,0 97.029698,0 0,33.0033 0,66.0066 0,99.00991 -32.34323,0 -64.686464,0 -97.029698,0 0,-33.00331 0,-66.00661 0,-99.00991 z"
       id="spot6"
       inkscape:connector-curvature="0" />
    <path
       style="fill:none;stroke:none"
       d="m 114.85149,871.17407 c 32.34323,0 64.68646,0 97.0297,0 0,33.0033 0,66.0066 0,99.00991 -32.34324,0 -64.68647,0 -97.0297,0 0,-33.00331 0,-66.00661 0,-99.00991 z"
       id="spot7"
       inkscape:connector-curvature="0" />
    <path
       style="fill:none;stroke:none"
       d="m 209.90099,872.16418 c 32.34323,0 64.68646,0 97.0297,0 0,33.00331 0,66.00661 0,99.00991 -32.34324,0 -64.68647,0 -97.0297,0 0,-33.0033 0,-66.0066 0,-99.00991 z"
       id="spot8"
       inkscape:connector-curvature="0" />
    <path
       style="fill:#008000;stroke:#ff0000;stroke-width:16;stroke-linecap:round;stroke-linejoin:round;stroke-opacity:1"
       d="m -83.079374,743.85967 c 18.976887,-18.97689 37.953774,-37.95378 56.930691,-56.93064 m -56.930691,0 c 18.976917,18.97686 37.953804,37.95375 56.930692,56.93064"
       id="X1"
       inkscape:connector-curvature="0" />
    <path
       style="fill:none;stroke:#00ff00;stroke-width:16;stroke-linecap:round;stroke-linejoin:round;stroke-opacity:1"
       d="m -16.728433,719.21118 c 1.767569,28.75742 -40.764252,43.55653 -58.21584,21.23024 -18.965943,-18.52074 -1.927837,-54.75357 24.068716,-53.51229 17.609327,-0.79055 34.635116,14.29931 34.147124,32.28205 z"
       id="O1"
       inkscape:connector-curvature="0" />
    <path
       style="fill:#008000;stroke:#ff0000;stroke-width:16;stroke-linecap:round;stroke-linejoin:round;stroke-opacity:1"
       d="m -83.079374,743.85968 c 18.976887,-18.97689 37.953777,-37.95378 56.930686,-56.93065 m -56.930686,0 c 18.976912,18.97687 37.953802,37.95376 56.930686,56.93065"
       id="X2"
       inkscape:connector-curvature="0" />
    <path
       style="fill:#008000;stroke:#ff0000;stroke-width:16;stroke-linecap:round;stroke-linejoin:round;stroke-opacity:1"
       d="m -83.079374,743.85968 c 18.976889,-18.97689 37.953779,-37.95378 56.930689,-56.93065 m -56.930689,0 c 18.976914,18.97687 37.953804,37.95376 56.930689,56.93065"
       id="X3"
       inkscape:connector-curvature="0" />
    <path
       style="fill:#008000;stroke:#ff0000;stroke-width:16;stroke-linecap:round;stroke-linejoin:round;stroke-opacity:1"
       d="m -83.079374,743.85968 c 18.976892,-18.97689 37.953782,-37.95378 56.930693,-56.93065 m -56.930693,0 c 18.976917,18.97686 37.953807,37.95375 56.930693,56.93065"
       id="X4"
       inkscape:connector-curvature="0" />
    <path
       style="fill:#008000;stroke:#ff0000;stroke-width:16;stroke-linecap:round;stroke-linejoin:round;stroke-opacity:1"
       d="m -83.079374,743.85968 c 18.976888,-18.97689 37.953797,-37.95376 56.930687,-56.93065 m -56.930687,0 c 18.976893,18.97689 37.953802,37.95376 56.930687,56.93065"
       id="X5"
       inkscape:connector-curvature="0" />
    <path
       style="fill:none;stroke:#00ff00;stroke-width:16;stroke-linecap:round;stroke-linejoin:round;stroke-opacity:1"
       d="m -16.728431,719.21118 c 1.767567,28.75743 -40.764251,43.55652 -58.215847,21.23025 -18.965955,-18.52072 -1.927824,-54.75358 24.068717,-53.5123 17.609325,-0.79054 34.63512,14.29931 34.14713,32.28205 z"
       id="O2"
       inkscape:connector-curvature="0" />
    <path
       style="fill:none;stroke:#00ff00;stroke-width:16;stroke-linecap:round;stroke-linejoin:round;stroke-opacity:1"
       d="m -16.728428,719.21118 c 1.767569,28.75743 -40.76426,43.55653 -58.21585,21.23024 -18.965932,-18.52075 -1.927831,-54.75356 24.06872,-53.51229 17.609325,-0.79054 34.63512,14.29931 34.14713,32.28205 z"
       id="O3"
       inkscape:connector-curvature="0" />
    <path
       style="fill:none;stroke:#00ff00;stroke-width:16;stroke-linecap:round;stroke-linejoin:round;stroke-opacity:1"
       d="m -16.728433,719.21117 c 1.767568,28.75742 -40.76425,43.55652 -58.215845,21.23025 -18.965956,-18.52072 -1.927822,-54.75357 24.068715,-53.51229 17.609321,-0.79054 34.635118,14.2993 34.14713,32.28204 z"
       id="O4"
       inkscape:connector-curvature="0" />
    <path
       style="fill:none;stroke:#00ff00;stroke-width:16;stroke-linecap:round;stroke-linejoin:round;stroke-opacity:1"
       d="m -16.72843,719.21118 c 1.767567,28.75743 -40.764252,43.55652 -58.215848,21.23025 -18.965955,-18.52072 -1.927822,-54.75358 24.068718,-53.5123 17.609325,-0.79054 34.63512,14.29931 34.14713,32.28205 z"
       id="O5"
       inkscape:connector-curvature="0" />
    <g
       inkscape:label="Layer 1"
       id="computer"
       transform="matrix(2.7506608,0,0,2.5554727,326.33914,678.63677)"
       onclick="lazpEvent(&quot;clickC&quot;)">
      <path
         transform="matrix(1,0,0,1.368932,-1.978553,-13.61713)"
         d="m 41.10058,35.051105 c 0,2.514001 -7.558406,4.552001 -16.882173,4.552001 -9.323767,0 -16.8821739,-2.038 -16.8821739,-4.552001 0,-2.514 7.5584069,-4.552 16.8821739,-4.552 9.323767,0 16.882173,2.038 16.882173,4.552 z"
         sodipodi:ry="4.552"
         sodipodi:rx="16.882174"
         sodipodi:cy="35.051105"
         sodipodi:cx="24.218407"
         id="path2452"
         style="color:#000000;fill:url(#radialGradient2460);fill-opacity:1;fill-rule:evenodd;stroke:none;stroke-width:1;marker:none;visibility:visible;display:inline;overflow:visible"
         sodipodi:type="arc" />
      <path
         transform="translate(57.53339,3.203427)"
         d="m -26.263968,29.716238 c 0,2.175778 -4.206024,3.939595 -9.394418,3.939595 -5.188394,0 -9.394419,-1.763817 -9.394419,-3.939595 0,-2.175778 4.206025,-3.939595 9.394419,-3.939595 5.188394,0 9.394418,1.763817 9.394418,3.939595 z"
         sodipodi:ry="3.939595"
         sodipodi:rx="9.3944187"
         sodipodi:cy="29.716238"
         sodipodi:cx="-35.658386"
         id="path2407"
         style="color:#000000;fill:#adb0aa;fill-opacity:1;fill-rule:evenodd;stroke:#4b4d4a;stroke-width:1;stroke-linecap:butt;stroke-linejoin:miter;stroke-miterlimit:4;stroke-opacity:1;stroke-dashoffset:0;marker:none;visibility:visible;display:inline;overflow:visible"
         sodipodi:type="arc" />
      <path
         sodipodi:type="arc"
         style="color:#000000;fill:none;stroke:#7b7f7a;stroke-width:1;stroke-linecap:butt;stroke-linejoin:miter;stroke-miterlimit:4;stroke-opacity:1;stroke-dashoffset:0;marker:none;visibility:visible;display:inline;overflow:visible"
         id="path1825"
         sodipodi:cx="-35.658386"
         sodipodi:cy="29.716238"
         sodipodi:rx="9.3944187"
         sodipodi:ry="3.939595"
         d="m -26.263968,29.716238 c 0,2.175778 -4.206024,3.939595 -9.394418,3.939595 -5.188394,0 -9.394419,-1.763817 -9.394419,-3.939595 0,-2.175778 4.206025,-3.939595 9.394419,-3.939595 5.188394,0 9.394418,1.763817 9.394418,3.939595 z"
         transform="matrix(0.940273,0,0,0.940273,55.40361,4.271194)" />
      <path
         transform="matrix(0.940273,0,0,0.940273,55.40361,3.521194)"
         d="m -26.263968,29.716238 c 0,2.175778 -4.206024,3.939595 -9.394418,3.939595 -5.188394,0 -9.394419,-1.763817 -9.394419,-3.939595 0,-2.175778 4.206025,-3.939595 9.394419,-3.939595 5.188394,0 9.394418,1.763817 9.394418,3.939595 z"
         sodipodi:ry="3.939595"
         sodipodi:rx="9.3944187"
         sodipodi:cy="29.716238"
         sodipodi:cx="-35.658386"
         id="path2983"
         style="color:#000000;fill:none;stroke:url(#linearGradient2991);stroke-width:0.68065339;stroke-linecap:butt;stroke-linejoin:miter;stroke-miterlimit:4;stroke-opacity:1;stroke-dashoffset:0;marker:none;visibility:visible;display:inline;overflow:visible"
         sodipodi:type="arc" />
      <path
         id="path2411"
         d="m 25.6875,28.766243 -0.0625,1 c 0,0 4.324108,3.599166 9,4.202507 2.337946,0.30167 4.753675,0.702412 6.75,1.1875 1.996325,0.485088 3.588356,1.119606 4.125,1.65625 0.310411,0.310411 0.451063,0.573639 0.5,0.78125 0.04894,0.207611 0.03822,0.354815 -0.09375,0.5625 -0.263933,0.41537 -1.079857,0.967652 -2.46875,1.40625 C 40.659715,40.439695 35.717076,41 28.875,41 l 0,1 c 6.895998,0 11.863665,-0.527671 14.84375,-1.46875 1.490042,-0.47054 2.524942,-1.015687 3.03125,-1.8125 C 47.003154,38.320344 47.107321,37.830301 47,37.375 46.892679,36.919699 46.615445,36.490445 46.21875,36.09375 45.34118,35.21618 43.681912,34.68731 41.625,34.1875 39.568088,33.68769 37.109264,33.273171 34.75,32.96875 30.031473,32.359908 25.6875,28.766243 25.6875,28.766243 z"
         style="fill:#d0d0d0;fill-opacity:1;fill-rule:evenodd;stroke:#979797;stroke-width:0.40000001;stroke-linecap:butt;stroke-linejoin:round;stroke-miterlimit:4;stroke-opacity:1"
         sodipodi:nodetypes="ccccccccccccccccc"
         inkscape:connector-curvature="0" />
      <path
         sodipodi:type="arc"
         style="color:#000000;fill:url(#radialGradient2464);fill-opacity:1;fill-rule:evenodd;stroke:none;stroke-width:1;marker:none;visibility:visible;display:inline;overflow:visible"
         id="path2462"
         sodipodi:cx="24.218407"
         sodipodi:cy="35.051105"
         sodipodi:rx="16.882174"
         sodipodi:ry="4.552"
         d="m 41.10058,35.051105 c 0,2.514001 -7.558406,4.552001 -16.882173,4.552001 -9.323767,0 -16.8821739,-2.038 -16.8821739,-4.552001 0,-2.514 7.5584069,-4.552 16.8821739,-4.552 9.323767,0 16.882173,2.038 16.882173,4.552 z"
         transform="matrix(1,0,0,1.368932,-1.978553,-19.02126)" />
      <rect
         style="color:#000000;fill:url(#linearGradient2707);fill-opacity:1;fill-rule:evenodd;stroke:none;stroke-width:0.60872948;marker:none;visibility:visible;display:inline;overflow:visible"
         id="rect2699"
         width="9.0396729"
         height="2.7400389"
         x="17.472397"
         y="30.703611" />
      <path
         sodipodi:nodetypes="cssssssss"
         id="rect2404"
         d="m 7.0809024,1.6956221 29.5881946,0 c 0.911342,0 1.624147,0.5834818 1.666752,1.401587 l 1.332044,25.5781139 c 0.05821,1.117735 -0.901056,2.020305 -2.020305,2.020305 l -31.545176,0 c -1.1192491,0 -2.078514,-0.90257 -2.0203052,-2.020305 L 5.4141506,3.0972091 c 0.040284,-0.7735346 0.5475027,-1.401587 1.6667518,-1.401587 z"
         style="color:#000000;fill:url(#linearGradient2251);fill-opacity:1;fill-rule:evenodd;stroke:url(#linearGradient2979);stroke-width:1;stroke-linecap:butt;stroke-linejoin:miter;stroke-miterlimit:4;stroke-opacity:1;stroke-dashoffset:0;marker:none;visibility:visible;display:inline;overflow:visible"
         inkscape:connector-curvature="0" />
      <path
         style="fill:url(#linearGradient2681);fill-opacity:1;fill-rule:evenodd;stroke:#000079;stroke-width:0.5;stroke-linecap:butt;stroke-linejoin:round;stroke-miterlimit:4;stroke-opacity:1;stroke-dasharray:none"
         d="m 8.4105348,4.3058272 -1.242195,22.0453168 27.6503892,0 L 33.483712,4.3992558 8.4105348,4.3058272 z"
         id="path2377"
         sodipodi:nodetypes="ccccc"
         inkscape:connector-curvature="0" />
      <path
         id="path2393"
         d="m 6.1774331,28.735789 31.4284769,0"
         style="fill:none;stroke:url(#linearGradient2689);stroke-width:0.99618119;stroke-linecap:round;stroke-linejoin:miter;stroke-miterlimit:4;stroke-opacity:0.24840764"
         inkscape:connector-curvature="0" />
      <path
         style="color:#000000;fill:none;stroke:url(#linearGradient2421);stroke-width:0.99999964;stroke-linecap:butt;stroke-linejoin:miter;stroke-miterlimit:4;stroke-opacity:0.70063692;stroke-dashoffset:0;marker:none;visibility:visible;display:inline;overflow:visible"
         d="M 6.9145985,2.7063396 36.760101,2.6685383 c 0.283697,-3.593e-4 0.559302,0.2372498 0.582105,0.6525438 L 38.704098,28.12433 c 0.05804,1.057031 -0.539749,1.785871 -1.598371,1.785871 l -30.5239687,0 c -1.0586228,0 -1.5930144,-0.728791 -1.5358714,-1.785871 L 6.3699773,3.6301633 C 6.4086732,2.9143326 6.5363627,2.7068187 6.9145985,2.7063396 z"
         id="path2397"
         sodipodi:nodetypes="cssssssss"
         inkscape:connector-curvature="0" />
      <path
         id="path2443"
         d="M 8.7115364,4.7463626 7.9090069,22.616693 C 18.953645,20.216063 19.33047,12.124494 33.063039,9.4699426 L 32.901567,4.8124267 8.7115364,4.7463626 z"
         style="opacity:0.53142856;fill:url(#linearGradient2673);fill-opacity:1;fill-rule:evenodd;stroke:none"
         sodipodi:nodetypes="ccccc"
         inkscape:connector-curvature="0" />
      <path
         sodipodi:type="arc"
         style="color:#000000;fill:url(#radialGradient2659);fill-opacity:1;fill-rule:evenodd;stroke:none;stroke-width:1;marker:none;visibility:visible;display:inline;overflow:visible"
         id="path2657"
         sodipodi:cx="24.218407"
         sodipodi:cy="35.051105"
         sodipodi:rx="16.882174"
         sodipodi:ry="4.552"
         d="m 41.10058,35.051105 c 0,2.514001 -7.558406,4.552001 -16.882173,4.552001 -9.323767,0 -16.8821739,-2.038 -16.8821739,-4.552001 0,-2.514 7.5584069,-4.552 16.8821739,-4.552 9.323767,0 16.882173,2.038 16.882173,4.552 z"
         transform="matrix(1.264398,0,0,1.291262,-6.216332,-4.000423)" />
      <path
         style="color:#000000;fill:url(#linearGradient2981);fill-opacity:1;fill-rule:evenodd;stroke:url(#linearGradient1413);stroke-width:1;stroke-linecap:butt;stroke-linejoin:miter;stroke-miterlimit:4;stroke-opacity:1;stroke-dasharray:none;stroke-dashoffset:0;marker:none;visibility:visible;display:inline;overflow:visible"
         d="m 6.4621839,36.817452 31.0024061,0 c 1.119249,0 0.977355,0.271438 1.092227,0.612846 l 2.834646,8.42481 c 0.114872,0.341409 0.02702,0.612846 -1.092227,0.612846 l -36.6716978,0 c -1.1192491,0 -1.2070995,-0.271437 -1.0922275,-0.612846 l 2.8346457,-8.42481 c 0.114872,-0.341409 -0.027022,-0.612846 1.0922275,-0.612846 z"
         id="path2409"
         sodipodi:nodetypes="cssssssss"
         inkscape:connector-curvature="0" />
      <path
         style="fill:#7a7d77;fill-opacity:1;fill-rule:evenodd;stroke:none"
         d="m 6.3916892,38.829113 -1.7677669,5.126525 5.4800777,0 0.53033,-2.032932 14.849242,0 0.549679,2.075114 6.167835,0 -1.679378,-5.168707 -24.1300188,0 z"
         id="path2611"
         sodipodi:nodetypes="ccccccccc"
         inkscape:connector-curvature="0" />
      <path
         style="fill:#777874;fill-opacity:1;fill-rule:evenodd;stroke:none"
         d="m 11.076272,42.27626 -0.441942,1.679379 14.760854,0 -0.441942,-1.767767 -13.87697,0.08839 z"
         id="path2613"
         inkscape:connector-curvature="0" />
      <path
         id="path2619"
         d="m 37.592776,38.829114 1.679379,5.038136 -5.480078,-0.08839 -1.502602,-4.861359 5.303301,-0.08839 z"
         style="color:#000000;fill:#777a75;fill-opacity:1;fill-rule:evenodd;stroke:none;stroke-width:0.25pt;marker:none;visibility:visible;display:inline;overflow:visible"
         inkscape:connector-curvature="0" />
      <path
         style="color:#000000;fill:url(#linearGradient2758);fill-opacity:1;fill-rule:evenodd;stroke:none;stroke-width:0.25pt;marker:none;visibility:visible;display:inline;overflow:visible"
         d="m 37.592776,38.298786 1.679379,5.038136 -5.480078,-0.08839 -1.502602,-4.861359 5.303301,-0.08839 z"
         id="path2615"
         inkscape:connector-curvature="0" />
      <path
         sodipodi:nodetypes="ccccccccc"
         id="path2617"
         d="m 6.3916892,38.210397 -1.7677669,5.126525 5.4800777,0 0.53033,-2.032932 14.849242,0 0.549679,2.075114 6.167835,0 -1.679378,-5.168707 -24.1300188,0 z"
         style="fill:url(#linearGradient1411);fill-opacity:1;fill-rule:evenodd;stroke:none"
         inkscape:connector-curvature="0" />
      <path
         id="path2621"
         d="m 11.076272,41.745932 -0.441942,1.679379 14.760854,0 -0.441942,-1.767767 -13.87697,0.08839 z"
         style="color:#000000;fill:url(#linearGradient1409);fill-opacity:1;fill-rule:evenodd;stroke:none;stroke-width:0.25pt;marker:none;visibility:visible;display:inline;overflow:visible"
         inkscape:connector-curvature="0" />
      <path
         sodipodi:nodetypes="ccccc"
         id="path2631"
         d="m 6.1278189,37.578116 31.8258151,0 2.637179,8.092563 -37.2610701,0 2.798076,-8.092563 z"
         style="color:#000000;fill:none;stroke:url(#linearGradient2741);stroke-width:0.5;stroke-linecap:butt;stroke-linejoin:round;stroke-miterlimit:4;stroke-opacity:1;stroke-dashoffset:0;marker:none;visibility:visible;display:inline;overflow:visible"
         inkscape:connector-curvature="0" />
      <path
         sodipodi:type="arc"
         style="color:#000000;fill:url(#linearGradient2717);fill-opacity:1;fill-rule:evenodd;stroke:none;stroke-width:0.5;marker:none;visibility:visible;display:inline;overflow:visible"
         id="path2709"
         sodipodi:cx="34.780815"
         sodipodi:cy="3.9384086"
         sodipodi:rx="0.83968931"
         sodipodi:ry="0.83968931"
         d="m 35.620504,3.9384086 c 0,0.4637476 -0.375941,0.8396893 -0.839689,0.8396893 -0.463747,0 -0.839689,-0.3759417 -0.839689,-0.8396893 0,-0.4637476 0.375942,-0.8396893 0.839689,-0.8396893 0.463748,0 0.839689,0.3759417 0.839689,0.8396893 z"
         transform="matrix(1.331237,0,0,0.658449,-10.41933,2.853866)" />
      <path
         transform="matrix(1.331237,0,0,0.658449,-10.30573,4.959651)"
         d="m 35.620504,3.9384086 c 0,0.4637476 -0.375941,0.8396893 -0.839689,0.8396893 -0.463747,0 -0.839689,-0.3759417 -0.839689,-0.8396893 0,-0.4637476 0.375942,-0.8396893 0.839689,-0.8396893 0.463748,0 0.839689,0.3759417 0.839689,0.8396893 z"
         sodipodi:ry="0.83968931"
         sodipodi:rx="0.83968931"
         sodipodi:cy="3.9384086"
         sodipodi:cx="34.780815"
         id="path2719"
         style="color:#000000;fill:url(#linearGradient2721);fill-opacity:1;fill-rule:evenodd;stroke:none;stroke-width:0.5;marker:none;visibility:visible;display:inline;overflow:visible"
         sodipodi:type="arc" />
      <path
         sodipodi:type="arc"
         style="color:#000000;fill:url(#linearGradient2725);fill-opacity:1;fill-rule:evenodd;stroke:none;stroke-width:0.5;marker:none;visibility:visible;display:inline;overflow:visible"
         id="path2723"
         sodipodi:cx="34.780815"
         sodipodi:cy="3.9384086"
         sodipodi:rx="0.83968931"
         sodipodi:ry="0.83968931"
         d="m 35.620504,3.9384086 c 0,0.4637476 -0.375941,0.8396893 -0.839689,0.8396893 -0.463747,0 -0.839689,-0.3759417 -0.839689,-0.8396893 0,-0.4637476 0.375942,-0.8396893 0.839689,-0.8396893 0.463748,0 0.839689,0.3759417 0.839689,0.8396893 z"
         transform="matrix(1.331237,0,0,0.658449,-10.19213,6.959651)" />
      <path
         transform="matrix(1.331237,0,0,0.658449,-10.07853,8.959651)"
         d="m 35.620504,3.9384086 c 0,0.4637476 -0.375941,0.8396893 -0.839689,0.8396893 -0.463747,0 -0.839689,-0.3759417 -0.839689,-0.8396893 0,-0.4637476 0.375942,-0.8396893 0.839689,-0.8396893 0.463748,0 0.839689,0.3759417 0.839689,0.8396893 z"
         sodipodi:ry="0.83968931"
         sodipodi:rx="0.83968931"
         sodipodi:cy="3.9384086"
         sodipodi:cx="34.780815"
         id="path2727"
         style="color:#000000;fill:url(#linearGradient2729);fill-opacity:1;fill-rule:evenodd;stroke:none;stroke-width:0.5;marker:none;visibility:visible;display:inline;overflow:visible"
         sodipodi:type="arc" />
      <path
         sodipodi:type="arc"
         style="color:#000000;fill:url(#linearGradient2733);fill-opacity:1;fill-rule:evenodd;stroke:none;stroke-width:0.5;marker:none;visibility:visible;display:inline;overflow:visible"
         id="path2731"
         sodipodi:cx="34.780815"
         sodipodi:cy="3.9384086"
         sodipodi:rx="0.83968931"
         sodipodi:ry="0.83968931"
         d="m 35.620504,3.9384086 c 0,0.4637476 -0.375941,0.8396893 -0.839689,0.8396893 -0.463747,0 -0.839689,-0.3759417 -0.839689,-0.8396893 0,-0.4637476 0.375942,-0.8396893 0.839689,-0.8396893 0.463748,0 0.839689,0.3759417 0.839689,0.8396893 z"
         transform="matrix(1.331237,0,0,0.658449,-9.96493,10.95965)" />
      <path
         style="font-size:0.9029026px;font-style:normal;font-variant:normal;font-weight:bold;font-stretch:normal;writing-mode:lr-tb;text-anchor:start;fill:#4a4a4a;fill-opacity:1;stroke:none;font-family:Bitstream Vera Sans"
         d="m 20,27.317666 0.281716,0 c 0.08376,1e-6 0.147985,0.01866 0.19266,0.05599 0.04497,0.03703 0.06745,0.08994 0.06745,0.158714 -1e-6,0.06907 -0.02248,0.122268 -0.06745,0.159595 -0.04467,0.03703 -0.108895,0.05555 -0.19266,0.05555 l -0.111981,0 0,0.22837 -0.169735,0 0,-0.658219 m 0.169735,0.123003 0,0.183843 0.0939,0 c 0.03292,0 0.05834,-0.0079 0.07627,-0.02381 0.01793,-0.01617 0.02689,-0.03894 0.02689,-0.06834 0,-0.02939 -0.009,-0.05202 -0.02689,-0.06789 -0.01793,-0.01587 -0.04335,-0.02381 -0.07627,-0.02381 l -0.0939,0 m 0.792244,-0.0119 c -0.05173,1e-6 -0.09185,0.01911 -0.120358,0.05731 -0.02851,0.03821 -0.04276,0.092 -0.04276,0.161359 0,0.06907 0.01425,0.122709 0.04276,0.160918 0.02851,0.03821 0.06863,0.05731 0.120358,0.05731 0.05202,0 0.09229,-0.0191 0.120799,-0.05731 0.02851,-0.03821 0.04276,-0.09185 0.04276,-0.160918 -10e-7,-0.06936 -0.01425,-0.123149 -0.04276,-0.161359 -0.02851,-0.03821 -0.06878,-0.05731 -0.120799,-0.05731 m 0,-0.123003 c 0.105808,1e-6 0.188692,0.03027 0.248651,0.09082 0.05996,0.06055 0.08994,0.144165 0.08994,0.250855 -1e-6,0.106397 -0.02998,0.189868 -0.08994,0.250414 -0.05996,0.06055 -0.142843,0.09082 -0.248651,0.09082 -0.105515,0 -0.188399,-0.03027 -0.248651,-0.09082 -0.05996,-0.06055 -0.08994,-0.144017 -0.08994,-0.250414 0,-0.10669 0.02998,-0.190309 0.08994,-0.250855 0.06025,-0.06055 0.143136,-0.09082 0.248651,-0.09082 m 0.466441,0.0119 0.189574,0 0.239393,0.451451 0,-0.451451 0.160918,0 0,0.658219 -0.189575,0 -0.239392,-0.451451 0,0.451451 -0.160918,0 0,-0.658219 m 0.663069,0 0.185606,0 0.149896,0.234543 0.149896,-0.234543 0.186048,0 -0.250856,0.380912 0,0.277307 -0.169735,0 0,-0.277307 -0.250855,-0.380912"
         id="text2735"
         inkscape:connector-curvature="0" />
    </g>
    <text
       xml:space="preserve"
       style="font-size:72px;font-style:normal;font-variant:normal;font-weight:bold;font-stretch:normal;line-height:125%;letter-spacing:0px;word-spacing:0px;fill:#000000;fill-opacity:1;stroke:none;font-family:Poplar Std;-inkscape-font-specification:Poplar Std Bold"
       x="344.55447"
       y="955.33252"
       id="new"
       sodipodi:linespacing="125%"
       inkscape:label="#text4236"
       onclick="lazpEvent(&quot;newGame&quot;)"><tspan
         sodipodi:role="line"
         id="tspan4238"
         x="344.55447"
         y="955.33252">NEW</tspan></text>
  </g>
</svg>
